G04 #@! TF.GenerationSoftware,KiCad,Pcbnew,(6.0.4)*
G04 #@! TF.CreationDate,2022-04-26T12:45:06+08:00*
G04 #@! TF.ProjectId,A133CoreDK,41313333-436f-4726-9544-4b2e6b696361,rev?*
G04 #@! TF.SameCoordinates,Original*
G04 #@! TF.FileFunction,Legend,Bot*
G04 #@! TF.FilePolarity,Positive*
%FSLAX46Y46*%
G04 Gerber Fmt 4.6, Leading zero omitted, Abs format (unit mm)*
G04 Created by KiCad (PCBNEW (6.0.4)) date 2022-04-26 12:45:06*
%MOMM*%
%LPD*%
G01*
G04 APERTURE LIST*
%ADD10C,0.254000*%
%ADD11C,0.127000*%
%ADD12C,1.198900*%
%ADD13C,1.300500*%
%ADD14C,0.899200*%
%ADD15C,1.701800*%
%ADD16C,0.701000*%
%ADD17C,0.650000*%
%ADD18O,1.000000X2.100000*%
%ADD19O,1.000000X1.600000*%
%ADD20R,2.000000X0.609600*%
%ADD21R,0.609600X2.000000*%
G04 APERTURE END LIST*
D10*
X149304828Y-80412771D02*
X150393400Y-80412771D01*
X150611114Y-80340200D01*
X150756257Y-80195057D01*
X150828828Y-79977342D01*
X150828828Y-79832200D01*
X150828828Y-81864200D02*
X150828828Y-81138485D01*
X149304828Y-81138485D01*
X150683685Y-83243057D02*
X150756257Y-83170485D01*
X150828828Y-82952771D01*
X150828828Y-82807628D01*
X150756257Y-82589914D01*
X150611114Y-82444771D01*
X150465971Y-82372200D01*
X150175685Y-82299628D01*
X149957971Y-82299628D01*
X149667685Y-82372200D01*
X149522542Y-82444771D01*
X149377400Y-82589914D01*
X149304828Y-82807628D01*
X149304828Y-82952771D01*
X149377400Y-83170485D01*
X149449971Y-83243057D01*
X149304828Y-84331628D02*
X150393400Y-84331628D01*
X150611114Y-84259057D01*
X150756257Y-84113914D01*
X150828828Y-83896200D01*
X150828828Y-83751057D01*
X150828828Y-85783057D02*
X150828828Y-85057342D01*
X149304828Y-85057342D01*
X150683685Y-87161914D02*
X150756257Y-87089342D01*
X150828828Y-86871628D01*
X150828828Y-86726485D01*
X150756257Y-86508771D01*
X150611114Y-86363628D01*
X150465971Y-86291057D01*
X150175685Y-86218485D01*
X149957971Y-86218485D01*
X149667685Y-86291057D01*
X149522542Y-86363628D01*
X149377400Y-86508771D01*
X149304828Y-86726485D01*
X149304828Y-86871628D01*
X149377400Y-87089342D01*
X149449971Y-87161914D01*
X149304828Y-88250485D02*
X150393400Y-88250485D01*
X150611114Y-88177914D01*
X150756257Y-88032771D01*
X150828828Y-87815057D01*
X150828828Y-87669914D01*
X150828828Y-89701914D02*
X150828828Y-88976200D01*
X149304828Y-88976200D01*
X150683685Y-91080771D02*
X150756257Y-91008200D01*
X150828828Y-90790485D01*
X150828828Y-90645342D01*
X150756257Y-90427628D01*
X150611114Y-90282485D01*
X150465971Y-90209914D01*
X150175685Y-90137342D01*
X149957971Y-90137342D01*
X149667685Y-90209914D01*
X149522542Y-90282485D01*
X149377400Y-90427628D01*
X149304828Y-90645342D01*
X149304828Y-90790485D01*
X149377400Y-91008200D01*
X149449971Y-91080771D01*
X149304828Y-92169342D02*
X150393400Y-92169342D01*
X150611114Y-92096771D01*
X150756257Y-91951628D01*
X150828828Y-91733914D01*
X150828828Y-91588771D01*
X150828828Y-93620771D02*
X150828828Y-92895057D01*
X149304828Y-92895057D01*
X150683685Y-94999628D02*
X150756257Y-94927057D01*
X150828828Y-94709342D01*
X150828828Y-94564200D01*
X150756257Y-94346485D01*
X150611114Y-94201342D01*
X150465971Y-94128771D01*
X150175685Y-94056200D01*
X149957971Y-94056200D01*
X149667685Y-94128771D01*
X149522542Y-94201342D01*
X149377400Y-94346485D01*
X149304828Y-94564200D01*
X149304828Y-94709342D01*
X149377400Y-94927057D01*
X149449971Y-94999628D01*
X128168400Y-67426114D02*
X128168400Y-68151828D01*
X128603828Y-67280971D02*
X127079828Y-67788971D01*
X128603828Y-68296971D01*
X128603828Y-69603257D02*
X128603828Y-68732400D01*
X128603828Y-69167828D02*
X127079828Y-69167828D01*
X127297542Y-69022685D01*
X127442685Y-68877542D01*
X127515257Y-68732400D01*
X127079828Y-70111257D02*
X127079828Y-71054685D01*
X127660400Y-70546685D01*
X127660400Y-70764400D01*
X127732971Y-70909542D01*
X127805542Y-70982114D01*
X127950685Y-71054685D01*
X128313542Y-71054685D01*
X128458685Y-70982114D01*
X128531257Y-70909542D01*
X128603828Y-70764400D01*
X128603828Y-70328971D01*
X128531257Y-70183828D01*
X128458685Y-70111257D01*
X127079828Y-71562685D02*
X127079828Y-72506114D01*
X127660400Y-71998114D01*
X127660400Y-72215828D01*
X127732971Y-72360971D01*
X127805542Y-72433542D01*
X127950685Y-72506114D01*
X128313542Y-72506114D01*
X128458685Y-72433542D01*
X128531257Y-72360971D01*
X128603828Y-72215828D01*
X128603828Y-71780400D01*
X128531257Y-71635257D01*
X128458685Y-71562685D01*
X128023257Y-73159257D02*
X128023257Y-74320400D01*
X128458685Y-75916971D02*
X128531257Y-75844400D01*
X128603828Y-75626685D01*
X128603828Y-75481542D01*
X128531257Y-75263828D01*
X128386114Y-75118685D01*
X128240971Y-75046114D01*
X127950685Y-74973542D01*
X127732971Y-74973542D01*
X127442685Y-75046114D01*
X127297542Y-75118685D01*
X127152400Y-75263828D01*
X127079828Y-75481542D01*
X127079828Y-75626685D01*
X127152400Y-75844400D01*
X127224971Y-75916971D01*
X127079828Y-76860400D02*
X127079828Y-77150685D01*
X127152400Y-77295828D01*
X127297542Y-77440971D01*
X127587828Y-77513542D01*
X128095828Y-77513542D01*
X128386114Y-77440971D01*
X128531257Y-77295828D01*
X128603828Y-77150685D01*
X128603828Y-76860400D01*
X128531257Y-76715257D01*
X128386114Y-76570114D01*
X128095828Y-76497542D01*
X127587828Y-76497542D01*
X127297542Y-76570114D01*
X127152400Y-76715257D01*
X127079828Y-76860400D01*
X128603828Y-79037542D02*
X127878114Y-78529542D01*
X128603828Y-78166685D02*
X127079828Y-78166685D01*
X127079828Y-78747257D01*
X127152400Y-78892400D01*
X127224971Y-78964971D01*
X127370114Y-79037542D01*
X127587828Y-79037542D01*
X127732971Y-78964971D01*
X127805542Y-78892400D01*
X127878114Y-78747257D01*
X127878114Y-78166685D01*
X127805542Y-79690685D02*
X127805542Y-80198685D01*
X128603828Y-80416400D02*
X128603828Y-79690685D01*
X127079828Y-79690685D01*
X127079828Y-80416400D01*
X128023257Y-81069542D02*
X128023257Y-82230685D01*
X128603828Y-82956400D02*
X127079828Y-82956400D01*
X128168400Y-83464400D01*
X127079828Y-83972400D01*
X128603828Y-83972400D01*
X127079828Y-84988400D02*
X127079828Y-85278685D01*
X127152400Y-85423828D01*
X127297542Y-85568971D01*
X127587828Y-85641542D01*
X128095828Y-85641542D01*
X128386114Y-85568971D01*
X128531257Y-85423828D01*
X128603828Y-85278685D01*
X128603828Y-84988400D01*
X128531257Y-84843257D01*
X128386114Y-84698114D01*
X128095828Y-84625542D01*
X127587828Y-84625542D01*
X127297542Y-84698114D01*
X127152400Y-84843257D01*
X127079828Y-84988400D01*
X128603828Y-86294685D02*
X127079828Y-86294685D01*
X127079828Y-86657542D01*
X127152400Y-86875257D01*
X127297542Y-87020400D01*
X127442685Y-87092971D01*
X127732971Y-87165542D01*
X127950685Y-87165542D01*
X128240971Y-87092971D01*
X128386114Y-87020400D01*
X128531257Y-86875257D01*
X128603828Y-86657542D01*
X128603828Y-86294685D01*
X127079828Y-87818685D02*
X128313542Y-87818685D01*
X128458685Y-87891257D01*
X128531257Y-87963828D01*
X128603828Y-88108971D01*
X128603828Y-88399257D01*
X128531257Y-88544400D01*
X128458685Y-88616971D01*
X128313542Y-88689542D01*
X127079828Y-88689542D01*
X128603828Y-90140971D02*
X128603828Y-89415257D01*
X127079828Y-89415257D01*
X127805542Y-90648971D02*
X127805542Y-91156971D01*
X128603828Y-91374685D02*
X128603828Y-90648971D01*
X127079828Y-90648971D01*
X127079828Y-91374685D01*
D11*
X129587000Y-115346000D02*
X131386998Y-117146000D01*
X129537000Y-116596000D02*
X130086998Y-117146000D01*
X170487000Y-60146000D02*
X170487000Y-117146000D01*
X129487000Y-116446000D02*
X130136998Y-117096000D01*
X129537000Y-116696000D02*
X129887000Y-117046000D01*
X129587000Y-116146000D02*
X130587000Y-117146000D01*
X129587000Y-115946000D02*
X130687000Y-117046000D01*
X129487000Y-117146000D02*
X170487000Y-117146000D01*
X129587000Y-115746000D02*
X130987000Y-117146000D01*
X129587000Y-115846000D02*
X130787000Y-117046000D01*
X129537000Y-115096000D02*
X131587000Y-117146000D01*
X129587000Y-115546000D02*
X131087000Y-117046000D01*
X129587000Y-116246000D02*
X130387000Y-117046000D01*
X129487000Y-60146000D02*
X170487000Y-60146000D01*
X129537000Y-116896000D02*
X129787000Y-117146000D01*
X129487000Y-114846000D02*
X131687000Y-117046000D01*
X129487000Y-114646000D02*
X131937000Y-117096000D01*
X129637000Y-116396000D02*
X130286998Y-117046000D01*
X130136998Y-117096000D02*
X130186998Y-117046000D01*
X129587000Y-116046000D02*
X129587000Y-116146000D01*
X129487000Y-60146000D02*
X129487000Y-117146000D01*
%LPC*%
D12*
X144269500Y-59070200D03*
X152270500Y-59070200D03*
D13*
X160985200Y-92486400D03*
D14*
X160985200Y-64287400D03*
D15*
X129489200Y-115341400D03*
X129489200Y-121340900D03*
D16*
X135470900Y-58661300D03*
X133769100Y-58661300D03*
D17*
X167990000Y-120007000D03*
X162210000Y-120007000D03*
D18*
X169420000Y-119477000D03*
D19*
X160780000Y-123657000D03*
X169420000Y-123657000D03*
D18*
X160780000Y-119477000D03*
D16*
X126784100Y-58661300D03*
X128485900Y-58661300D03*
D17*
X144557000Y-120007000D03*
X150337000Y-120007000D03*
D19*
X143127000Y-123657000D03*
D18*
X143127000Y-119477000D03*
X151767000Y-119477000D03*
D19*
X151767000Y-123657000D03*
D16*
X161886900Y-58661300D03*
X160185100Y-58661300D03*
D20*
X130987000Y-113246000D03*
X130987000Y-112046000D03*
X130987000Y-110846000D03*
X130987000Y-109646000D03*
X130987000Y-108446000D03*
X130987000Y-107246000D03*
X130987000Y-106046000D03*
X130987000Y-104846000D03*
X130987000Y-103646000D03*
X130987000Y-102446000D03*
X130987000Y-101246000D03*
X130987000Y-100046000D03*
X130987000Y-98846000D03*
X130987000Y-97646000D03*
X130987000Y-96446000D03*
X130987000Y-95246000D03*
X130987000Y-94046000D03*
X130987000Y-92846000D03*
X130987000Y-91646000D03*
X130987000Y-90446000D03*
X130987000Y-89246000D03*
X130987000Y-88046000D03*
X130987000Y-86846000D03*
X130987000Y-85646000D03*
X130987000Y-84446000D03*
X130987000Y-83246000D03*
X130987000Y-82046000D03*
X130987000Y-80846000D03*
X130987000Y-79646000D03*
X130987000Y-78446000D03*
X130987000Y-77246000D03*
X130987000Y-76046000D03*
X130987000Y-74846000D03*
X130987000Y-73646000D03*
X130987000Y-72446000D03*
X130987000Y-71246000D03*
X130987000Y-70046000D03*
X130987000Y-68846000D03*
X130987000Y-67646000D03*
X130987000Y-66446000D03*
X130987000Y-65246000D03*
X130987000Y-64046000D03*
D21*
X132586998Y-61646000D03*
X133787000Y-61646000D03*
X134987000Y-61646000D03*
X136187000Y-61646000D03*
X137387000Y-61646000D03*
X138587000Y-61646000D03*
X139787000Y-61646000D03*
X140987000Y-61646000D03*
X142187000Y-61646000D03*
X143387000Y-61646000D03*
X144587000Y-61646000D03*
X145787000Y-61646000D03*
X146987000Y-61646000D03*
X148187000Y-61646000D03*
X149387000Y-61646000D03*
X150586998Y-61646000D03*
X151786998Y-61646000D03*
X152986998Y-61646000D03*
X154186998Y-61646000D03*
X155387000Y-61646000D03*
X156587000Y-61646000D03*
X157787000Y-61646000D03*
X158987000Y-61646000D03*
X160187000Y-61646000D03*
X161387000Y-61646000D03*
X162587000Y-61646000D03*
X163787000Y-61646000D03*
X164987000Y-61646000D03*
X166187000Y-61646000D03*
X167387000Y-61646000D03*
D20*
X168987000Y-64046000D03*
X168987000Y-65246000D03*
X168987000Y-66446000D03*
X168987000Y-67646000D03*
X168987000Y-68846000D03*
X168987000Y-70046000D03*
X168987000Y-71246000D03*
X168987000Y-72446000D03*
X168987000Y-73646000D03*
X168987000Y-74846000D03*
X168987000Y-76046000D03*
X168987000Y-77246000D03*
X168987000Y-78446000D03*
X168987000Y-79646000D03*
X168987000Y-80846000D03*
X168987000Y-82046000D03*
X168987000Y-83246000D03*
X168987000Y-84446000D03*
X168987000Y-85646000D03*
X168987000Y-86846000D03*
X168987000Y-88046000D03*
X168987000Y-89246000D03*
X168987000Y-90446000D03*
X168987000Y-91646000D03*
X168987000Y-92846000D03*
X168987000Y-94046000D03*
X168987000Y-95246000D03*
X168987000Y-96446000D03*
X168987000Y-97646000D03*
X168987000Y-98846000D03*
X168987000Y-100046000D03*
X168987000Y-101246000D03*
X168987000Y-102446000D03*
X168987000Y-103646000D03*
X168987000Y-104846000D03*
X168987000Y-106046000D03*
X168987000Y-107246000D03*
X168987000Y-108446000D03*
X168987000Y-109646000D03*
X168987000Y-110846000D03*
X168987000Y-112046000D03*
X168987000Y-113246000D03*
D21*
X167387000Y-115646000D03*
X166187000Y-115646000D03*
X164987000Y-115646000D03*
X163787000Y-115646000D03*
X162587000Y-115646000D03*
X161387000Y-115646000D03*
X160187000Y-115646000D03*
X158987000Y-115646000D03*
X157787000Y-115646000D03*
X156587000Y-115646000D03*
X155387000Y-115646000D03*
X154186998Y-115646000D03*
X152986998Y-115646000D03*
X151786998Y-115646000D03*
X150586998Y-115646000D03*
X149387000Y-115646000D03*
X148187000Y-115646000D03*
X146987000Y-115646000D03*
X145787000Y-115646000D03*
X144587000Y-115646000D03*
X143387000Y-115646000D03*
X142187000Y-115646000D03*
X140987000Y-115646000D03*
X139787000Y-115646000D03*
X138587000Y-115646000D03*
X137387000Y-115646000D03*
X136187000Y-115646000D03*
X134987000Y-115646000D03*
X133787000Y-115646000D03*
X132586998Y-115646000D03*
M02*
