G04 #@! TF.GenerationSoftware,KiCad,Pcbnew,(6.0.4)*
G04 #@! TF.CreationDate,2022-04-26T12:45:06+08:00*
G04 #@! TF.ProjectId,A133CoreDK,41313333-436f-4726-9544-4b2e6b696361,rev?*
G04 #@! TF.SameCoordinates,Original*
G04 #@! TF.FileFunction,Soldermask,Bot*
G04 #@! TF.FilePolarity,Negative*
%FSLAX46Y46*%
G04 Gerber Fmt 4.6, Leading zero omitted, Abs format (unit mm)*
G04 Created by KiCad (PCBNEW (6.0.4)) date 2022-04-26 12:45:06*
%MOMM*%
%LPD*%
G01*
G04 APERTURE LIST*
%ADD10C,1.198900*%
%ADD11C,1.300500*%
%ADD12C,0.899200*%
%ADD13C,1.701800*%
%ADD14C,0.701000*%
%ADD15C,0.650000*%
%ADD16O,1.000000X2.100000*%
%ADD17O,1.000000X1.600000*%
%ADD18R,2.000000X0.609600*%
%ADD19R,0.609600X2.000000*%
G04 APERTURE END LIST*
D10*
X144269500Y-59070200D03*
X152270500Y-59070200D03*
D11*
X160985200Y-92486400D03*
D12*
X160985200Y-64287400D03*
D13*
X129489200Y-115341400D03*
X129489200Y-121340900D03*
D14*
X135470900Y-58661300D03*
X133769100Y-58661300D03*
D15*
X167990000Y-120007000D03*
X162210000Y-120007000D03*
D16*
X169420000Y-119477000D03*
D17*
X160780000Y-123657000D03*
X169420000Y-123657000D03*
D16*
X160780000Y-119477000D03*
D14*
X126784100Y-58661300D03*
X128485900Y-58661300D03*
D15*
X144557000Y-120007000D03*
X150337000Y-120007000D03*
D17*
X143127000Y-123657000D03*
D16*
X143127000Y-119477000D03*
X151767000Y-119477000D03*
D17*
X151767000Y-123657000D03*
D14*
X161886900Y-58661300D03*
X160185100Y-58661300D03*
D18*
X130987000Y-113246000D03*
X130987000Y-112046000D03*
X130987000Y-110846000D03*
X130987000Y-109646000D03*
X130987000Y-108446000D03*
X130987000Y-107246000D03*
X130987000Y-106046000D03*
X130987000Y-104846000D03*
X130987000Y-103646000D03*
X130987000Y-102446000D03*
X130987000Y-101246000D03*
X130987000Y-100046000D03*
X130987000Y-98846000D03*
X130987000Y-97646000D03*
X130987000Y-96446000D03*
X130987000Y-95246000D03*
X130987000Y-94046000D03*
X130987000Y-92846000D03*
X130987000Y-91646000D03*
X130987000Y-90446000D03*
X130987000Y-89246000D03*
X130987000Y-88046000D03*
X130987000Y-86846000D03*
X130987000Y-85646000D03*
X130987000Y-84446000D03*
X130987000Y-83246000D03*
X130987000Y-82046000D03*
X130987000Y-80846000D03*
X130987000Y-79646000D03*
X130987000Y-78446000D03*
X130987000Y-77246000D03*
X130987000Y-76046000D03*
X130987000Y-74846000D03*
X130987000Y-73646000D03*
X130987000Y-72446000D03*
X130987000Y-71246000D03*
X130987000Y-70046000D03*
X130987000Y-68846000D03*
X130987000Y-67646000D03*
X130987000Y-66446000D03*
X130987000Y-65246000D03*
X130987000Y-64046000D03*
D19*
X132586998Y-61646000D03*
X133787000Y-61646000D03*
X134987000Y-61646000D03*
X136187000Y-61646000D03*
X137387000Y-61646000D03*
X138587000Y-61646000D03*
X139787000Y-61646000D03*
X140987000Y-61646000D03*
X142187000Y-61646000D03*
X143387000Y-61646000D03*
X144587000Y-61646000D03*
X145787000Y-61646000D03*
X146987000Y-61646000D03*
X148187000Y-61646000D03*
X149387000Y-61646000D03*
X150586998Y-61646000D03*
X151786998Y-61646000D03*
X152986998Y-61646000D03*
X154186998Y-61646000D03*
X155387000Y-61646000D03*
X156587000Y-61646000D03*
X157787000Y-61646000D03*
X158987000Y-61646000D03*
X160187000Y-61646000D03*
X161387000Y-61646000D03*
X162587000Y-61646000D03*
X163787000Y-61646000D03*
X164987000Y-61646000D03*
X166187000Y-61646000D03*
X167387000Y-61646000D03*
D18*
X168987000Y-64046000D03*
X168987000Y-65246000D03*
X168987000Y-66446000D03*
X168987000Y-67646000D03*
X168987000Y-68846000D03*
X168987000Y-70046000D03*
X168987000Y-71246000D03*
X168987000Y-72446000D03*
X168987000Y-73646000D03*
X168987000Y-74846000D03*
X168987000Y-76046000D03*
X168987000Y-77246000D03*
X168987000Y-78446000D03*
X168987000Y-79646000D03*
X168987000Y-80846000D03*
X168987000Y-82046000D03*
X168987000Y-83246000D03*
X168987000Y-84446000D03*
X168987000Y-85646000D03*
X168987000Y-86846000D03*
X168987000Y-88046000D03*
X168987000Y-89246000D03*
X168987000Y-90446000D03*
X168987000Y-91646000D03*
X168987000Y-92846000D03*
X168987000Y-94046000D03*
X168987000Y-95246000D03*
X168987000Y-96446000D03*
X168987000Y-97646000D03*
X168987000Y-98846000D03*
X168987000Y-100046000D03*
X168987000Y-101246000D03*
X168987000Y-102446000D03*
X168987000Y-103646000D03*
X168987000Y-104846000D03*
X168987000Y-106046000D03*
X168987000Y-107246000D03*
X168987000Y-108446000D03*
X168987000Y-109646000D03*
X168987000Y-110846000D03*
X168987000Y-112046000D03*
X168987000Y-113246000D03*
D19*
X167387000Y-115646000D03*
X166187000Y-115646000D03*
X164987000Y-115646000D03*
X163787000Y-115646000D03*
X162587000Y-115646000D03*
X161387000Y-115646000D03*
X160187000Y-115646000D03*
X158987000Y-115646000D03*
X157787000Y-115646000D03*
X156587000Y-115646000D03*
X155387000Y-115646000D03*
X154186998Y-115646000D03*
X152986998Y-115646000D03*
X151786998Y-115646000D03*
X150586998Y-115646000D03*
X149387000Y-115646000D03*
X148187000Y-115646000D03*
X146987000Y-115646000D03*
X145787000Y-115646000D03*
X144587000Y-115646000D03*
X143387000Y-115646000D03*
X142187000Y-115646000D03*
X140987000Y-115646000D03*
X139787000Y-115646000D03*
X138587000Y-115646000D03*
X137387000Y-115646000D03*
X136187000Y-115646000D03*
X134987000Y-115646000D03*
X133787000Y-115646000D03*
X132586998Y-115646000D03*
M02*
