M48
; DRILL file {KiCad (6.0.4)} date Tue Apr 26 12:45:27 2022
; FORMAT={-:-/ absolute / metric / decimal}
; #@! TF.CreationDate,2022-04-26T12:45:27+08:00
; #@! TF.GenerationSoftware,Kicad,Pcbnew,(6.0.4)
; #@! TF.FileFunction,MixedPlating,1,4
FMAT,2
METRIC
; #@! TA.AperFunction,Plated,PTH,ViaDrill
T1C0.254
; #@! TA.AperFunction,Plated,PTH,ComponentDrill
T2C0.600
; #@! TA.AperFunction,NonPlated,NPTH,ComponentDrill
T3C0.650
; #@! TA.AperFunction,NonPlated,NPTH,ComponentDrill
T4C0.701
; #@! TA.AperFunction,NonPlated,NPTH,ComponentDrill
T5C0.899
; #@! TA.AperFunction,NonPlated,NPTH,ComponentDrill
T6C1.199
; #@! TA.AperFunction,NonPlated,NPTH,ComponentDrill
T7C1.300
; #@! TA.AperFunction,NonPlated,NPTH,ComponentDrill
T8C1.702
%
G90
G05
T1
X124.46Y-106.096
X124.562Y-116.23
X124.714Y-60.198
X125.273Y-106.096
X125.374Y-120.777
X125.705Y-70.282
X125.705Y-72.212
X125.933Y-76.937
X125.933Y-78.943
X125.933Y-101.168
X125.933Y-103.734
X126.314Y-73.812
X126.314Y-74.549
X126.314Y-75.286
X126.695Y-112.751
X126.898Y-84.099
X126.898Y-86.817
X126.898Y-89.738
X126.898Y-92.608
X126.898Y-95.555
X126.898Y-98.781
X126.975Y-75.946
X126.975Y-76.937
X126.975Y-77.953
X126.975Y-78.943
X126.975Y-105.308
X126.975Y-124.282
X127.025Y-116.23
X127.305Y-66.345
X127.66Y-60.211
X127.66Y-110.744
X127.711Y-76.429
X127.711Y-77.445
X127.711Y-78.435
X127.711Y-79.451
X127.838Y-105.308
X128.422Y-112.751
X128.702Y-105.308
X128.829Y-90.449
X128.93Y-118.161
X128.956Y-102.032
X129.238Y-110.744
X129.515Y-124.282
X130.962Y-119.253
X131.115Y-58.649
X131.115Y-60.198
X131.166Y-61.671
X132.004Y-124.282
X132.588Y-80.848
X132.588Y-82.046
X132.588Y-83.246
X132.588Y-84.446
X132.588Y-85.646
X132.588Y-86.846
X132.588Y-88.046
X132.588Y-89.246
X132.588Y-91.646
X132.588Y-92.846
X132.588Y-94.046
X132.588Y-95.246
X132.588Y-98.846
X132.588Y-102.446
X132.588Y-103.646
X132.588Y-106.045
X132.588Y-107.246
X132.766Y-118.643
X132.766Y-119.253
X132.766Y-119.863
X132.842Y-108.433
X132.969Y-72.949
X132.969Y-111.404
X133.223Y-80.848
X133.782Y-72.441
X133.807Y-90.449
X133.858Y-80.848
X133.858Y-107.188
X133.858Y-107.899
X133.858Y-108.61
X133.909Y-74.778
X133.909Y-76.784
X133.909Y-78.638
X134.264Y-113.157
X134.518Y-112.42
X134.544Y-71.958
X134.62Y-59.461
X135.23Y-121.895
X135.357Y-64.186
X135.357Y-65.811
X135.534Y-123.901
X135.738Y-73.66
X135.738Y-108.204
X135.915Y-92.558
X135.941Y-118.186
X135.941Y-119.558
X136.197Y-68.453
X136.22Y-74.397
X136.246Y-113.081
X136.703Y-103.175
X137.338Y-76.784
X137.338Y-78.638
X137.643Y-106.223
X137.643Y-109.652
X137.643Y-112.878
X137.897Y-94.539
X137.973Y-59.461
X138.379Y-118.339
X138.557Y-86.208
X138.557Y-88.925
X139.223Y-84.348
X139.548Y-118.339
X139.7Y-76.784
X139.802Y-112.878
X139.827Y-106.223
X139.852Y-101.321
X140.284Y-70.333
X140.632Y-71.298
X141.249Y-58.191
X141.249Y-59.461
X141.427Y-101.61
X141.605Y-112.878
X141.63Y-117.729
X141.732Y-71.298
X142.342Y-109.626
X142.367Y-106.909
X142.598Y-81.534
X142.646Y-71.298
X142.711Y-88.671
X142.85Y-94.564
X142.85Y-98.12
X142.875Y-91.999
X143.18Y-73.889
X143.211Y-89.306
X144.501Y-82.245
X144.526Y-98.12
X144.551Y-66.573
X144.587Y-63.424
X144.678Y-103.175
X145.07Y-68.58
X145.136Y-100.051
X145.669Y-117.348
X145.787Y-63.424
X145.872Y-58.191
X145.898Y-84.201
X145.898Y-86.843
X146.025Y-123.647
X146.169Y-68.58
X146.431Y-102.921
X146.987Y-63.424
X147.015Y-109.601
X147.091Y-102.921
X147.197Y-119.913
X147.269Y-68.58
X147.498Y-79.502
X148.057Y-121.59
X148.184Y-59.969
X148.197Y-119.913
X148.615Y-104.775
X148.641Y-121.59
X148.768Y-123.647
X148.793Y-64.313
X148.946Y-117.348
X149.2Y-99.517
X149.2Y-101.651
X149.377Y-59.385
X149.469Y-68.58
X149.532Y-86.131
X149.86Y-92.888
X150.063Y-113.64
X150.32Y-86.131
X150.47Y-58.191
X150.47Y-59.309
X150.825Y-79.502
X150.901Y-66.573
X151.671Y-68.58
X151.994Y-63.703
X152.07Y-111.023
X152.199Y-91.11
X152.771Y-68.58
X153.289Y-95.733
X153.289Y-99.822
X153.34Y-123.8
X153.772Y-58.191
X153.772Y-59.309
X153.871Y-68.58
X154.076Y-79.502
X154.127Y-88.544
X154.229Y-91.135
X154.864Y-65.151
X154.864Y-66.472
X155.423Y-70.637
X155.626Y-83.947
X155.804Y-113.182
X155.956Y-73.188
X155.956Y-73.988
X155.956Y-74.788
X155.956Y-75.588
X155.956Y-76.388
X155.956Y-77.188
X155.956Y-77.988
X156.362Y-88.544
X156.413Y-105.105
X156.921Y-81.186
X156.921Y-82.786
X156.972Y-71.587
X156.972Y-72.387
X156.972Y-85.186
X156.972Y-85.987
X157.023Y-58.191
X157.099Y-67.285
X157.099Y-68.263
X157.099Y-69.24
X157.226Y-64.262
X157.404Y-92.405
X158.699Y-110.16
X158.725Y-108.407
X158.902Y-119.228
X158.902Y-119.837
X159.436Y-108.407
X159.639Y-95.707
X159.639Y-99.822
X160.172Y-108.407
X160.426Y-89.992
X160.528Y-69.987
X160.528Y-79.586
X160.875Y-87.657
X160.875Y-88.317
X160.985Y-71.069
X160.985Y-72.847
X160.985Y-74.574
X160.985Y-76.251
X160.985Y-77.902
X161.036Y-59.538
X161.265Y-86.233
X161.29Y-81.204
X161.29Y-83.464
X161.341Y-67.945
X161.773Y-108.407
X162.535Y-112.344
X162.941Y-123.647
X163.017Y-65.38
X163.185Y-90.754
X163.185Y-91.364
X163.85Y-117.45
X164.744Y-84.785
X164.77Y-110.676
X164.821Y-58.623
X164.821Y-59.436
X164.85Y-119.913
X164.987Y-63.297
X164.998Y-64.414
X165.278Y-75.184
X165.329Y-99.797
X165.43Y-110.676
X165.451Y-78.973
X165.781Y-80.828
X165.796Y-71.657
X165.796Y-72.318
X165.806Y-69.591
X165.85Y-119.913
X165.863Y-74.18
X165.918Y-78.507
X165.933Y-83.012
X165.964Y-76.458
X165.964Y-77.118
X166.035Y-67.407
X166.06Y-65.375
X166.06Y-85.019
X166.187Y-59.111
X166.187Y-59.746
X166.243Y-86.792
X166.248Y-80.361
X166.268Y-123.8
X166.273Y-70.058
X166.33Y-73.713
X166.4Y-82.545
X166.497Y-110.846
X166.502Y-67.874
X166.527Y-65.842
X166.527Y-84.552
X166.7Y-93.497
X166.7Y-95.758
X166.802Y-106.045
X166.85Y-117.45
X166.878Y-104.14
X166.878Y-108.941
X166.929Y-110.033
X167.03Y-110.846
X167.056Y-77.876
X167.132Y-70.866
X167.208Y-100.051
X167.259Y-88.046
X167.259Y-89.246
X167.386Y-103.646
X167.386Y-106.046
X167.386Y-108.446
X167.564Y-110.846
X167.665Y-123.825
X167.691Y-107.239
X168.25Y-121.691
X168.402Y-58.623
X168.529Y-61.849
X168.658Y-116.103
X169.164Y-61.849
X169.24Y-58.623
X169.799Y-61.849
X169.799Y-62.484
T3
X144.557Y-120.007
X150.337Y-120.007
X162.21Y-120.007
X167.99Y-120.007
T4
X126.784Y-58.661
X128.486Y-58.661
X133.769Y-58.661
X135.471Y-58.661
X160.185Y-58.661
X161.887Y-58.661
T5
X160.985Y-64.287
T6
X144.269Y-59.07
X152.27Y-59.07
T7
X160.985Y-92.486
T8
X129.489Y-115.341
X129.489Y-121.341
T2
G00X143.127Y-118.927
M15
G01X143.127Y-120.027
M16
G05
G00X143.127Y-123.357
M15
G01X143.127Y-123.957
M16
G05
G00X151.767Y-118.927
M15
G01X151.767Y-120.027
M16
G05
G00X151.767Y-123.357
M15
G01X151.767Y-123.957
M16
G05
G00X160.78Y-118.927
M15
G01X160.78Y-120.027
M16
G05
G00X160.78Y-123.357
M15
G01X160.78Y-123.957
M16
G05
G00X169.42Y-118.927
M15
G01X169.42Y-120.027
M16
G05
G00X169.42Y-123.357
M15
G01X169.42Y-123.957
M16
G05
T0
M30
