G04 #@! TF.GenerationSoftware,KiCad,Pcbnew,(6.0.4)*
G04 #@! TF.CreationDate,2022-04-26T12:45:06+08:00*
G04 #@! TF.ProjectId,A133CoreDK,41313333-436f-4726-9544-4b2e6b696361,rev?*
G04 #@! TF.SameCoordinates,Original*
G04 #@! TF.FileFunction,Legend,Top*
G04 #@! TF.FilePolarity,Positive*
%FSLAX46Y46*%
G04 Gerber Fmt 4.6, Leading zero omitted, Abs format (unit mm)*
G04 Created by KiCad (PCBNEW (6.0.4)) date 2022-04-26 12:45:06*
%MOMM*%
%LPD*%
G01*
G04 APERTURE LIST*
G04 Aperture macros list*
%AMRoundRect*
0 Rectangle with rounded corners*
0 $1 Rounding radius*
0 $2 $3 $4 $5 $6 $7 $8 $9 X,Y pos of 4 corners*
0 Add a 4 corners polygon primitive as box body*
4,1,4,$2,$3,$4,$5,$6,$7,$8,$9,$2,$3,0*
0 Add four circle primitives for the rounded corners*
1,1,$1+$1,$2,$3*
1,1,$1+$1,$4,$5*
1,1,$1+$1,$6,$7*
1,1,$1+$1,$8,$9*
0 Add four rect primitives between the rounded corners*
20,1,$1+$1,$2,$3,$4,$5,0*
20,1,$1+$1,$4,$5,$6,$7,0*
20,1,$1+$1,$6,$7,$8,$9,0*
20,1,$1+$1,$8,$9,$2,$3,0*%
G04 Aperture macros list end*
%ADD10C,0.203200*%
%ADD11C,0.635000*%
%ADD12C,0.150000*%
%ADD13C,0.381000*%
%ADD14C,0.254000*%
%ADD15C,2.050000*%
%ADD16C,0.177800*%
%ADD17C,0.457200*%
%ADD18C,0.010000*%
%ADD19C,0.120000*%
%ADD20C,0.100000*%
%ADD21C,0.360000*%
%ADD22RoundRect,0.135000X-0.135000X-0.185000X0.135000X-0.185000X0.135000X0.185000X-0.135000X0.185000X0*%
%ADD23RoundRect,0.135000X-0.185000X0.135000X-0.185000X-0.135000X0.185000X-0.135000X0.185000X0.135000X0*%
%ADD24RoundRect,0.135000X0.135000X0.185000X-0.135000X0.185000X-0.135000X-0.185000X0.135000X-0.185000X0*%
%ADD25R,1.400000X0.300000*%
%ADD26RoundRect,0.250000X-0.925000X0.412500X-0.925000X-0.412500X0.925000X-0.412500X0.925000X0.412500X0*%
%ADD27RoundRect,0.135000X0.185000X-0.135000X0.185000X0.135000X-0.185000X0.135000X-0.185000X-0.135000X0*%
%ADD28RoundRect,0.140000X0.170000X-0.140000X0.170000X0.140000X-0.170000X0.140000X-0.170000X-0.140000X0*%
%ADD29RoundRect,0.050800X-1.850400X0.500400X-1.850400X-0.500400X1.850400X-0.500400X1.850400X0.500400X0*%
%ADD30RoundRect,0.050800X-1.700550X0.750550X-1.700550X-0.750550X1.700550X-0.750550X1.700550X0.750550X0*%
%ADD31C,1.198900*%
%ADD32RoundRect,0.050800X0.350500X0.800100X-0.350500X0.800100X-0.350500X-0.800100X0.350500X-0.800100X0*%
%ADD33RoundRect,0.050800X0.599450X0.750550X-0.599450X0.750550X-0.599450X-0.750550X0.599450X-0.750550X0*%
%ADD34RoundRect,0.050800X0.599450X1.099800X-0.599450X1.099800X-0.599450X-1.099800X0.599450X-1.099800X0*%
%ADD35RoundRect,0.050800X0.800100X0.750550X-0.800100X0.750550X-0.800100X-0.750550X0.800100X-0.750550X0*%
%ADD36RoundRect,0.140000X-0.140000X-0.170000X0.140000X-0.170000X0.140000X0.170000X-0.140000X0.170000X0*%
%ADD37RoundRect,0.050800X-0.500400X0.900450X-0.500400X-0.900450X0.500400X-0.900450X0.500400X0.900450X0*%
%ADD38RoundRect,0.150000X-0.150000X0.587500X-0.150000X-0.587500X0.150000X-0.587500X0.150000X0.587500X0*%
%ADD39RoundRect,0.140000X0.140000X0.170000X-0.140000X0.170000X-0.140000X-0.170000X0.140000X-0.170000X0*%
%ADD40RoundRect,0.100000X0.712500X0.100000X-0.712500X0.100000X-0.712500X-0.100000X0.712500X-0.100000X0*%
%ADD41C,1.300500*%
%ADD42C,0.899200*%
%ADD43RoundRect,0.050800X-0.999500X0.250200X-0.999500X-0.250200X0.999500X-0.250200X0.999500X0.250200X0*%
%ADD44RoundRect,0.140000X-0.170000X0.140000X-0.170000X-0.140000X0.170000X-0.140000X0.170000X0.140000X0*%
%ADD45RoundRect,0.147500X-0.147500X-0.172500X0.147500X-0.172500X0.147500X0.172500X-0.147500X0.172500X0*%
%ADD46R,0.400000X1.100000*%
%ADD47C,1.701800*%
%ADD48RoundRect,0.050800X1.399550X0.900450X-1.399550X0.900450X-1.399550X-0.900450X1.399550X-0.900450X0*%
%ADD49RoundRect,0.050800X1.249700X0.900450X-1.249700X0.900450X-1.249700X-0.900450X1.249700X-0.900450X0*%
%ADD50C,0.701000*%
%ADD51RoundRect,0.050800X0.449600X0.599450X-0.449600X0.599450X-0.449600X-0.599450X0.449600X-0.599450X0*%
%ADD52RoundRect,0.050800X-0.449600X-0.599450X0.449600X-0.599450X0.449600X0.599450X-0.449600X0.599450X0*%
%ADD53RoundRect,0.050800X0.599450X0.650250X-0.599450X0.650250X-0.599450X-0.650250X0.599450X-0.650250X0*%
%ADD54C,0.650000*%
%ADD55R,0.600000X1.450000*%
%ADD56R,0.300000X1.450000*%
%ADD57O,1.000000X2.100000*%
%ADD58O,1.000000X1.600000*%
%ADD59R,1.100000X0.300000*%
%ADD60R,3.100000X2.300000*%
%ADD61RoundRect,0.150000X0.512500X0.150000X-0.512500X0.150000X-0.512500X-0.150000X0.512500X-0.150000X0*%
%ADD62RoundRect,0.075000X0.350000X0.075000X-0.350000X0.075000X-0.350000X-0.075000X0.350000X-0.075000X0*%
%ADD63RoundRect,0.075000X-0.075000X0.350000X-0.075000X-0.350000X0.075000X-0.350000X0.075000X0.350000X0*%
%ADD64RoundRect,0.175000X0.175000X-0.625000X0.175000X0.625000X-0.175000X0.625000X-0.175000X-0.625000X0*%
%ADD65RoundRect,0.050800X1.850400X-0.500400X1.850400X0.500400X-1.850400X0.500400X-1.850400X-0.500400X0*%
%ADD66RoundRect,0.050800X1.700550X-0.750550X1.700550X0.750550X-1.700550X0.750550X-1.700550X-0.750550X0*%
%ADD67RoundRect,0.150000X0.150000X-0.512500X0.150000X0.512500X-0.150000X0.512500X-0.150000X-0.512500X0*%
G04 APERTURE END LIST*
D10*
X149837926Y-99265619D02*
X149964926Y-98249619D01*
X150206830Y-98249619D01*
X150345926Y-98298000D01*
X150430592Y-98394761D01*
X150466878Y-98491523D01*
X150491069Y-98685047D01*
X150472926Y-98830190D01*
X150400354Y-99023714D01*
X150339878Y-99120476D01*
X150231021Y-99217238D01*
X150079830Y-99265619D01*
X149837926Y-99265619D01*
X151247021Y-99217238D02*
X151144211Y-99265619D01*
X150950688Y-99265619D01*
X150859973Y-99217238D01*
X150823688Y-99120476D01*
X150872069Y-98733428D01*
X150932545Y-98636666D01*
X151035354Y-98588285D01*
X151228878Y-98588285D01*
X151319592Y-98636666D01*
X151355878Y-98733428D01*
X151343783Y-98830190D01*
X150847878Y-98926952D01*
X151682450Y-99217238D02*
X151773164Y-99265619D01*
X151966688Y-99265619D01*
X152069497Y-99217238D01*
X152129973Y-99120476D01*
X152136021Y-99072095D01*
X152099735Y-98975333D01*
X152009021Y-98926952D01*
X151863878Y-98926952D01*
X151773164Y-98878571D01*
X151736878Y-98781809D01*
X151742926Y-98733428D01*
X151803402Y-98636666D01*
X151906211Y-98588285D01*
X152051354Y-98588285D01*
X152142069Y-98636666D01*
X152547259Y-99265619D02*
X152631926Y-98588285D01*
X152674259Y-98249619D02*
X152619830Y-98298000D01*
X152662164Y-98346380D01*
X152716592Y-98298000D01*
X152674259Y-98249619D01*
X152662164Y-98346380D01*
X153551164Y-98588285D02*
X153448354Y-99410761D01*
X153387878Y-99507523D01*
X153333450Y-99555904D01*
X153230640Y-99604285D01*
X153085497Y-99604285D01*
X152994783Y-99555904D01*
X153472545Y-99217238D02*
X153369735Y-99265619D01*
X153176211Y-99265619D01*
X153085497Y-99217238D01*
X153043164Y-99168857D01*
X153006878Y-99072095D01*
X153043164Y-98781809D01*
X153103640Y-98685047D01*
X153158069Y-98636666D01*
X153260878Y-98588285D01*
X153454402Y-98588285D01*
X153545116Y-98636666D01*
X154034973Y-98588285D02*
X153950307Y-99265619D01*
X154022878Y-98685047D02*
X154077307Y-98636666D01*
X154180116Y-98588285D01*
X154325259Y-98588285D01*
X154415973Y-98636666D01*
X154452259Y-98733428D01*
X154385735Y-99265619D01*
X155262640Y-99217238D02*
X155159830Y-99265619D01*
X154966307Y-99265619D01*
X154875592Y-99217238D01*
X154839307Y-99120476D01*
X154887688Y-98733428D01*
X154948164Y-98636666D01*
X155050973Y-98588285D01*
X155244497Y-98588285D01*
X155335211Y-98636666D01*
X155371497Y-98733428D01*
X155359402Y-98830190D01*
X154863497Y-98926952D01*
X156175830Y-99265619D02*
X156302830Y-98249619D01*
X156181878Y-99217238D02*
X156079069Y-99265619D01*
X155885545Y-99265619D01*
X155794830Y-99217238D01*
X155752497Y-99168857D01*
X155716211Y-99072095D01*
X155752497Y-98781809D01*
X155812973Y-98685047D01*
X155867402Y-98636666D01*
X155970211Y-98588285D01*
X156163735Y-98588285D01*
X156254450Y-98636666D01*
X157433735Y-99265619D02*
X157560735Y-98249619D01*
X157512354Y-98636666D02*
X157615164Y-98588285D01*
X157808688Y-98588285D01*
X157899402Y-98636666D01*
X157941735Y-98685047D01*
X157978021Y-98781809D01*
X157941735Y-99072095D01*
X157881259Y-99168857D01*
X157826830Y-99217238D01*
X157724021Y-99265619D01*
X157530497Y-99265619D01*
X157439783Y-99217238D01*
X158340878Y-98588285D02*
X158498116Y-99265619D01*
X158824688Y-98588285D02*
X158498116Y-99265619D01*
X158371116Y-99507523D01*
X158316688Y-99555904D01*
X158213878Y-99604285D01*
X160306354Y-98733428D02*
X159967688Y-98733428D01*
X159901164Y-99265619D02*
X160028164Y-98249619D01*
X160511973Y-98249619D01*
X160917164Y-99265619D02*
X160826450Y-99217238D01*
X160784116Y-99168857D01*
X160747830Y-99072095D01*
X160784116Y-98781809D01*
X160844592Y-98685047D01*
X160899021Y-98636666D01*
X161001830Y-98588285D01*
X161146973Y-98588285D01*
X161237688Y-98636666D01*
X161280021Y-98685047D01*
X161316307Y-98781809D01*
X161280021Y-99072095D01*
X161219545Y-99168857D01*
X161165116Y-99217238D01*
X161062307Y-99265619D01*
X160917164Y-99265619D01*
X161691259Y-99265619D02*
X161775926Y-98588285D01*
X161751735Y-98781809D02*
X161812211Y-98685047D01*
X161866640Y-98636666D01*
X161969450Y-98588285D01*
X162066211Y-98588285D01*
X162755640Y-99265619D02*
X162822164Y-98733428D01*
X162785878Y-98636666D01*
X162695164Y-98588285D01*
X162501640Y-98588285D01*
X162398830Y-98636666D01*
X162761688Y-99217238D02*
X162658878Y-99265619D01*
X162416973Y-99265619D01*
X162326259Y-99217238D01*
X162289973Y-99120476D01*
X162302069Y-99023714D01*
X162362545Y-98926952D01*
X162465354Y-98878571D01*
X162707259Y-98878571D01*
X162810069Y-98830190D01*
X163239450Y-99265619D02*
X163324116Y-98588285D01*
X163366450Y-98249619D02*
X163312021Y-98298000D01*
X163354354Y-98346380D01*
X163408783Y-98298000D01*
X163366450Y-98249619D01*
X163354354Y-98346380D01*
X163723259Y-99265619D02*
X163807926Y-98588285D01*
X163783735Y-98781809D02*
X163844211Y-98685047D01*
X163898640Y-98636666D01*
X164001450Y-98588285D01*
X164098211Y-98588285D01*
X164787640Y-99265619D02*
X164854164Y-98733428D01*
X164817878Y-98636666D01*
X164727164Y-98588285D01*
X164533640Y-98588285D01*
X164430830Y-98636666D01*
X164793688Y-99217238D02*
X164690878Y-99265619D01*
X164448973Y-99265619D01*
X164358259Y-99217238D01*
X164321973Y-99120476D01*
X164334069Y-99023714D01*
X164394545Y-98926952D01*
X164497354Y-98878571D01*
X164739259Y-98878571D01*
X164842069Y-98830190D01*
X165706878Y-99265619D02*
X165773402Y-98733428D01*
X165737116Y-98636666D01*
X165646402Y-98588285D01*
X165452878Y-98588285D01*
X165350069Y-98636666D01*
X165712926Y-99217238D02*
X165610116Y-99265619D01*
X165368211Y-99265619D01*
X165277497Y-99217238D01*
X165241211Y-99120476D01*
X165253307Y-99023714D01*
X165313783Y-98926952D01*
X165416592Y-98878571D01*
X165658497Y-98878571D01*
X165761307Y-98830190D01*
X166626116Y-99265619D02*
X166692640Y-98733428D01*
X166656354Y-98636666D01*
X166565640Y-98588285D01*
X166372116Y-98588285D01*
X166269307Y-98636666D01*
X166632164Y-99217238D02*
X166529354Y-99265619D01*
X166287450Y-99265619D01*
X166196735Y-99217238D01*
X166160450Y-99120476D01*
X166172545Y-99023714D01*
X166233021Y-98926952D01*
X166335830Y-98878571D01*
X166577735Y-98878571D01*
X166680545Y-98830190D01*
X167545354Y-99265619D02*
X167611878Y-98733428D01*
X167575592Y-98636666D01*
X167484878Y-98588285D01*
X167291354Y-98588285D01*
X167188545Y-98636666D01*
X167551402Y-99217238D02*
X167448592Y-99265619D01*
X167206688Y-99265619D01*
X167115973Y-99217238D01*
X167079688Y-99120476D01*
X167091783Y-99023714D01*
X167152259Y-98926952D01*
X167255069Y-98878571D01*
X167496973Y-98878571D01*
X167599783Y-98830190D01*
X168464592Y-99265619D02*
X168531116Y-98733428D01*
X168494830Y-98636666D01*
X168404116Y-98588285D01*
X168210592Y-98588285D01*
X168107783Y-98636666D01*
X168470640Y-99217238D02*
X168367830Y-99265619D01*
X168125926Y-99265619D01*
X168035211Y-99217238D01*
X167998926Y-99120476D01*
X168011021Y-99023714D01*
X168071497Y-98926952D01*
X168174307Y-98878571D01*
X168416211Y-98878571D01*
X168519021Y-98830190D01*
D11*
X169799000Y-99269550D02*
X169799000Y-98545650D01*
D12*
X139573000Y-103809800D02*
X141808200Y-103809800D01*
X141808200Y-103809800D02*
X141808200Y-102489000D01*
X141808200Y-102489000D02*
X139573000Y-102489000D01*
X139573000Y-102489000D02*
X139573000Y-103809800D01*
D13*
X137998200Y-91948000D02*
X137998200Y-92938600D01*
X138963400Y-80111600D02*
X137972800Y-80111600D01*
X160756600Y-114477800D02*
X160756600Y-117690900D01*
X139750800Y-75158600D02*
X139750800Y-71780400D01*
D14*
X165787295Y-105060750D02*
X165787295Y-106267250D01*
D13*
X164973000Y-103505000D02*
X168605200Y-103505000D01*
X137236200Y-67665600D02*
X137236200Y-65684400D01*
D12*
X151587200Y-90449400D02*
X153822400Y-90449400D01*
X153822400Y-90449400D02*
X153822400Y-89128600D01*
X153822400Y-89128600D02*
X151587200Y-89128600D01*
X151587200Y-89128600D02*
X151587200Y-90449400D01*
D15*
X127609932Y-108531977D02*
G75*
G03*
X127609932Y-108531977I-1025000J0D01*
G01*
X127591244Y-63524285D02*
G75*
G03*
X127591244Y-63524285I-1025000J0D01*
G01*
D13*
X141922500Y-104546400D02*
X147726400Y-104546400D01*
D12*
X166852601Y-105664000D02*
G75*
G03*
X166852601Y-105664000I-1065306J0D01*
G01*
D13*
X131527550Y-69088000D02*
X129432050Y-69088000D01*
X155244800Y-93015594D02*
X155244800Y-80060006D01*
X136575800Y-105918000D02*
X136575800Y-111607600D01*
X138010900Y-92938600D02*
X139001500Y-92938600D01*
D14*
X165184045Y-105664000D02*
X166390545Y-105664000D01*
D11*
X169799000Y-94849950D02*
X169799000Y-97529650D01*
D15*
X157260400Y-123113800D02*
G75*
G03*
X157260400Y-123113800I-1025000J0D01*
G01*
D12*
X137896600Y-81584800D02*
X139217400Y-81584800D01*
X139217400Y-81584800D02*
X139217400Y-83820000D01*
X139217400Y-83820000D02*
X137896600Y-83820000D01*
X137896600Y-83820000D02*
X137896600Y-81584800D01*
D13*
X141884400Y-108661200D02*
X141884400Y-120142000D01*
X137972800Y-80124300D02*
X137972800Y-81114900D01*
X144145000Y-91109800D02*
X144145000Y-88715850D01*
X151003000Y-93014800D02*
X151003000Y-90398600D01*
X168719500Y-91795600D02*
X166103300Y-91795600D01*
D16*
X145444572Y-80139419D02*
X145444572Y-80961895D01*
X145492953Y-81058657D01*
X145541334Y-81107038D01*
X145638096Y-81155419D01*
X145831620Y-81155419D01*
X145928382Y-81107038D01*
X145976763Y-81058657D01*
X146025144Y-80961895D01*
X146025144Y-80139419D01*
X146460572Y-81107038D02*
X146605715Y-81155419D01*
X146847620Y-81155419D01*
X146944382Y-81107038D01*
X146992763Y-81058657D01*
X147041144Y-80961895D01*
X147041144Y-80865133D01*
X146992763Y-80768371D01*
X146944382Y-80719990D01*
X146847620Y-80671609D01*
X146654096Y-80623228D01*
X146557334Y-80574847D01*
X146508953Y-80526466D01*
X146460572Y-80429704D01*
X146460572Y-80332942D01*
X146508953Y-80236180D01*
X146557334Y-80187800D01*
X146654096Y-80139419D01*
X146896001Y-80139419D01*
X147041144Y-80187800D01*
X147476572Y-81155419D02*
X147476572Y-80139419D01*
X147960382Y-81155419D02*
X147960382Y-80139419D01*
X148540953Y-81155419D01*
X148540953Y-80139419D01*
X149556953Y-80187800D02*
X149460191Y-80139419D01*
X149315049Y-80139419D01*
X149169906Y-80187800D01*
X149073144Y-80284561D01*
X149024763Y-80381323D01*
X148976382Y-80574847D01*
X148976382Y-80719990D01*
X149024763Y-80913514D01*
X149073144Y-81010276D01*
X149169906Y-81107038D01*
X149315049Y-81155419D01*
X149411810Y-81155419D01*
X149556953Y-81107038D01*
X149605334Y-81058657D01*
X149605334Y-80719990D01*
X149411810Y-80719990D01*
X150040763Y-80768371D02*
X150814858Y-80768371D01*
X151153525Y-80139419D02*
X151734096Y-80139419D01*
X151443810Y-81155419D02*
X151443810Y-80139419D01*
X151976001Y-80139419D02*
X152217906Y-81155419D01*
X152411430Y-80429704D01*
X152604953Y-81155419D01*
X152846858Y-80139419D01*
X153233906Y-81155419D02*
X153233906Y-80139419D01*
X154249906Y-81155419D02*
X153669334Y-81155419D01*
X153959620Y-81155419D02*
X153959620Y-80139419D01*
X153862858Y-80284561D01*
X153766096Y-80381323D01*
X153669334Y-80429704D01*
X156108400Y-87983846D02*
X156060019Y-88080608D01*
X156060019Y-88225750D01*
X156108400Y-88370893D01*
X156205161Y-88467655D01*
X156301923Y-88516036D01*
X156495447Y-88564417D01*
X156640590Y-88564417D01*
X156834114Y-88516036D01*
X156930876Y-88467655D01*
X157027638Y-88370893D01*
X157076019Y-88225750D01*
X157076019Y-88128989D01*
X157027638Y-87983846D01*
X156979257Y-87935465D01*
X156640590Y-87935465D01*
X156640590Y-88128989D01*
X157076019Y-87500036D02*
X156060019Y-87500036D01*
X156060019Y-87112989D01*
X156108400Y-87016227D01*
X156156780Y-86967846D01*
X156253542Y-86919465D01*
X156398685Y-86919465D01*
X156495447Y-86967846D01*
X156543828Y-87016227D01*
X156592209Y-87112989D01*
X156592209Y-87500036D01*
X157076019Y-86484036D02*
X156060019Y-86484036D01*
X156060019Y-85806703D02*
X156060019Y-85613179D01*
X156108400Y-85516417D01*
X156205161Y-85419655D01*
X156398685Y-85371274D01*
X156737352Y-85371274D01*
X156930876Y-85419655D01*
X157027638Y-85516417D01*
X157076019Y-85613179D01*
X157076019Y-85806703D01*
X157027638Y-85903465D01*
X156930876Y-86000227D01*
X156737352Y-86048608D01*
X156398685Y-86048608D01*
X156205161Y-86000227D01*
X156108400Y-85903465D01*
X156060019Y-85806703D01*
X156688971Y-84935846D02*
X156688971Y-84161750D01*
X157076019Y-83677941D02*
X156060019Y-83677941D01*
X156060019Y-83290893D01*
X156108400Y-83194131D01*
X156156780Y-83145750D01*
X156253542Y-83097370D01*
X156398685Y-83097370D01*
X156495447Y-83145750D01*
X156543828Y-83194131D01*
X156592209Y-83290893D01*
X156592209Y-83677941D01*
X156060019Y-82468417D02*
X156060019Y-82274893D01*
X156108400Y-82178131D01*
X156205161Y-82081370D01*
X156398685Y-82032989D01*
X156737352Y-82032989D01*
X156930876Y-82081370D01*
X157027638Y-82178131D01*
X157076019Y-82274893D01*
X157076019Y-82468417D01*
X157027638Y-82565179D01*
X156930876Y-82661941D01*
X156737352Y-82710322D01*
X156398685Y-82710322D01*
X156205161Y-82661941D01*
X156108400Y-82565179D01*
X156060019Y-82468417D01*
X157076019Y-81016989D02*
X156592209Y-81355655D01*
X157076019Y-81597560D02*
X156060019Y-81597560D01*
X156060019Y-81210512D01*
X156108400Y-81113750D01*
X156156780Y-81065370D01*
X156253542Y-81016989D01*
X156398685Y-81016989D01*
X156495447Y-81065370D01*
X156543828Y-81113750D01*
X156592209Y-81210512D01*
X156592209Y-81597560D01*
X156060019Y-80726703D02*
X156060019Y-80146131D01*
X157076019Y-80436417D02*
X156060019Y-80436417D01*
X130477380Y-70818163D02*
X130961190Y-70479496D01*
X130477380Y-70237591D02*
X131493380Y-70237591D01*
X131493380Y-70624639D01*
X131445000Y-70721401D01*
X131396619Y-70769782D01*
X131299857Y-70818163D01*
X131154714Y-70818163D01*
X131057952Y-70769782D01*
X131009571Y-70721401D01*
X130961190Y-70624639D01*
X130961190Y-70237591D01*
X131445000Y-71785782D02*
X131493380Y-71689020D01*
X131493380Y-71543877D01*
X131445000Y-71398734D01*
X131348238Y-71301972D01*
X131251476Y-71253591D01*
X131057952Y-71205210D01*
X130912809Y-71205210D01*
X130719285Y-71253591D01*
X130622523Y-71301972D01*
X130525761Y-71398734D01*
X130477380Y-71543877D01*
X130477380Y-71640639D01*
X130525761Y-71785782D01*
X130574142Y-71834163D01*
X130912809Y-71834163D01*
X130912809Y-71640639D01*
X130477380Y-72269591D02*
X131493380Y-72269591D01*
X130767666Y-72608258D01*
X131493380Y-72946925D01*
X130477380Y-72946925D01*
X130477380Y-73430734D02*
X131493380Y-73430734D01*
X130477380Y-73914544D02*
X131493380Y-73914544D01*
X130864428Y-74398353D02*
X130864428Y-75172449D01*
X130477380Y-75656258D02*
X131493380Y-75656258D01*
X131493380Y-76043306D01*
X131445000Y-76140068D01*
X131396619Y-76188449D01*
X131299857Y-76236830D01*
X131154714Y-76236830D01*
X131057952Y-76188449D01*
X131009571Y-76140068D01*
X130961190Y-76043306D01*
X130961190Y-75656258D01*
X131493380Y-76865782D02*
X131493380Y-77059306D01*
X131445000Y-77156068D01*
X131348238Y-77252830D01*
X131154714Y-77301210D01*
X130816047Y-77301210D01*
X130622523Y-77252830D01*
X130525761Y-77156068D01*
X130477380Y-77059306D01*
X130477380Y-76865782D01*
X130525761Y-76769020D01*
X130622523Y-76672258D01*
X130816047Y-76623877D01*
X131154714Y-76623877D01*
X131348238Y-76672258D01*
X131445000Y-76769020D01*
X131493380Y-76865782D01*
X130477380Y-78317210D02*
X130961190Y-77978544D01*
X130477380Y-77736639D02*
X131493380Y-77736639D01*
X131493380Y-78123687D01*
X131445000Y-78220449D01*
X131396619Y-78268830D01*
X131299857Y-78317210D01*
X131154714Y-78317210D01*
X131057952Y-78268830D01*
X131009571Y-78220449D01*
X130961190Y-78123687D01*
X130961190Y-77736639D01*
X131493380Y-78607496D02*
X131493380Y-79188068D01*
X130477380Y-78897782D02*
X131493380Y-78897782D01*
X167078539Y-90701525D02*
X166062539Y-90701525D01*
X166062539Y-90459620D01*
X166110920Y-90314477D01*
X166207681Y-90217715D01*
X166304443Y-90169334D01*
X166497967Y-90120953D01*
X166643110Y-90120953D01*
X166836634Y-90169334D01*
X166933396Y-90217715D01*
X167030158Y-90314477D01*
X167078539Y-90459620D01*
X167078539Y-90701525D01*
X167078539Y-89685525D02*
X166062539Y-89685525D01*
X167030158Y-89250096D02*
X167078539Y-89104953D01*
X167078539Y-88863049D01*
X167030158Y-88766287D01*
X166981777Y-88717906D01*
X166885015Y-88669525D01*
X166788253Y-88669525D01*
X166691491Y-88717906D01*
X166643110Y-88766287D01*
X166594729Y-88863049D01*
X166546348Y-89056572D01*
X166497967Y-89153334D01*
X166449586Y-89201715D01*
X166352824Y-89250096D01*
X166256062Y-89250096D01*
X166159300Y-89201715D01*
X166110920Y-89153334D01*
X166062539Y-89056572D01*
X166062539Y-88814668D01*
X166110920Y-88669525D01*
X167078539Y-88234096D02*
X166062539Y-88234096D01*
X166062539Y-87847049D01*
X166110920Y-87750287D01*
X166159300Y-87701906D01*
X166256062Y-87653525D01*
X166401205Y-87653525D01*
X166497967Y-87701906D01*
X166546348Y-87750287D01*
X166594729Y-87847049D01*
X166594729Y-88234096D01*
X167078539Y-86734287D02*
X167078539Y-87218096D01*
X166062539Y-87218096D01*
X166788253Y-86444001D02*
X166788253Y-85960191D01*
X167078539Y-86540763D02*
X166062539Y-86202096D01*
X167078539Y-85863430D01*
X166594729Y-85331239D02*
X167078539Y-85331239D01*
X166062539Y-85669906D02*
X166594729Y-85331239D01*
X166062539Y-84992572D01*
X166691491Y-84653906D02*
X166691491Y-83879810D01*
X167078539Y-83396001D02*
X166062539Y-83396001D01*
X166062539Y-83008953D01*
X166110920Y-82912191D01*
X166159300Y-82863810D01*
X166256062Y-82815430D01*
X166401205Y-82815430D01*
X166497967Y-82863810D01*
X166546348Y-82912191D01*
X166594729Y-83008953D01*
X166594729Y-83396001D01*
X166062539Y-82186477D02*
X166062539Y-81992953D01*
X166110920Y-81896191D01*
X166207681Y-81799430D01*
X166401205Y-81751049D01*
X166739872Y-81751049D01*
X166933396Y-81799430D01*
X167030158Y-81896191D01*
X167078539Y-81992953D01*
X167078539Y-82186477D01*
X167030158Y-82283239D01*
X166933396Y-82380001D01*
X166739872Y-82428382D01*
X166401205Y-82428382D01*
X166207681Y-82380001D01*
X166110920Y-82283239D01*
X166062539Y-82186477D01*
X167078539Y-80735049D02*
X166594729Y-81073715D01*
X167078539Y-81315620D02*
X166062539Y-81315620D01*
X166062539Y-80928572D01*
X166110920Y-80831810D01*
X166159300Y-80783430D01*
X166256062Y-80735049D01*
X166401205Y-80735049D01*
X166497967Y-80783430D01*
X166546348Y-80831810D01*
X166594729Y-80928572D01*
X166594729Y-81315620D01*
X166062539Y-80444763D02*
X166062539Y-79864191D01*
X167078539Y-80154477D02*
X166062539Y-80154477D01*
X168714299Y-90217715D02*
X168714299Y-90701525D01*
X167698299Y-90701525D01*
X167698299Y-90024191D02*
X168714299Y-89685525D01*
X167698299Y-89346858D01*
X168714299Y-89008191D02*
X167698299Y-89008191D01*
X167698299Y-88766287D01*
X167746680Y-88621144D01*
X167843441Y-88524382D01*
X167940203Y-88476001D01*
X168133727Y-88427620D01*
X168278870Y-88427620D01*
X168472394Y-88476001D01*
X168569156Y-88524382D01*
X168665918Y-88621144D01*
X168714299Y-88766287D01*
X168714299Y-89008191D01*
X168665918Y-88040572D02*
X168714299Y-87895430D01*
X168714299Y-87653525D01*
X168665918Y-87556763D01*
X168617537Y-87508382D01*
X168520775Y-87460001D01*
X168424013Y-87460001D01*
X168327251Y-87508382D01*
X168278870Y-87556763D01*
X168230489Y-87653525D01*
X168182108Y-87847049D01*
X168133727Y-87943810D01*
X168085346Y-87992191D01*
X167988584Y-88040572D01*
X167891822Y-88040572D01*
X167795060Y-87992191D01*
X167746680Y-87943810D01*
X167698299Y-87847049D01*
X167698299Y-87605144D01*
X167746680Y-87460001D01*
X168665918Y-86976191D02*
X168714299Y-86976191D01*
X168811060Y-87024572D01*
X168859441Y-87072953D01*
X168714299Y-85766668D02*
X167698299Y-85766668D01*
X168424013Y-85428001D01*
X167698299Y-85089334D01*
X168714299Y-85089334D01*
X168714299Y-84605525D02*
X167698299Y-84605525D01*
X168714299Y-84121715D02*
X167698299Y-84121715D01*
X167698299Y-83734668D01*
X167746680Y-83637906D01*
X167795060Y-83589525D01*
X167891822Y-83541144D01*
X168036965Y-83541144D01*
X168133727Y-83589525D01*
X168182108Y-83637906D01*
X168230489Y-83734668D01*
X168230489Y-84121715D01*
X168714299Y-83105715D02*
X167698299Y-83105715D01*
X168665918Y-82573525D02*
X168714299Y-82573525D01*
X168811060Y-82621906D01*
X168859441Y-82670287D01*
X168714299Y-80783430D02*
X168230489Y-81122096D01*
X168714299Y-81364001D02*
X167698299Y-81364001D01*
X167698299Y-80976953D01*
X167746680Y-80880191D01*
X167795060Y-80831810D01*
X167891822Y-80783430D01*
X168036965Y-80783430D01*
X168133727Y-80831810D01*
X168182108Y-80880191D01*
X168230489Y-80976953D01*
X168230489Y-81364001D01*
X167746680Y-79815810D02*
X167698299Y-79912572D01*
X167698299Y-80057715D01*
X167746680Y-80202858D01*
X167843441Y-80299620D01*
X167940203Y-80348001D01*
X168133727Y-80396382D01*
X168278870Y-80396382D01*
X168472394Y-80348001D01*
X168569156Y-80299620D01*
X168665918Y-80202858D01*
X168714299Y-80057715D01*
X168714299Y-79960953D01*
X168665918Y-79815810D01*
X168617537Y-79767430D01*
X168278870Y-79767430D01*
X168278870Y-79960953D01*
X168182108Y-78993334D02*
X168230489Y-78848191D01*
X168278870Y-78799810D01*
X168375632Y-78751430D01*
X168520775Y-78751430D01*
X168617537Y-78799810D01*
X168665918Y-78848191D01*
X168714299Y-78944953D01*
X168714299Y-79332001D01*
X167698299Y-79332001D01*
X167698299Y-78993334D01*
X167746680Y-78896572D01*
X167795060Y-78848191D01*
X167891822Y-78799810D01*
X167988584Y-78799810D01*
X168085346Y-78848191D01*
X168133727Y-78896572D01*
X168182108Y-78993334D01*
X168182108Y-79332001D01*
X130854208Y-61465580D02*
X131192874Y-61949390D01*
X131434779Y-61465580D02*
X131434779Y-62481580D01*
X131047731Y-62481580D01*
X130950970Y-62433200D01*
X130902589Y-62384819D01*
X130854208Y-62288057D01*
X130854208Y-62142914D01*
X130902589Y-62046152D01*
X130950970Y-61997771D01*
X131047731Y-61949390D01*
X131434779Y-61949390D01*
X130467160Y-61513961D02*
X130322017Y-61465580D01*
X130080112Y-61465580D01*
X129983350Y-61513961D01*
X129934970Y-61562342D01*
X129886589Y-61659104D01*
X129886589Y-61755866D01*
X129934970Y-61852628D01*
X129983350Y-61901009D01*
X130080112Y-61949390D01*
X130273636Y-61997771D01*
X130370398Y-62046152D01*
X130418779Y-62094533D01*
X130467160Y-62191295D01*
X130467160Y-62288057D01*
X130418779Y-62384819D01*
X130370398Y-62433200D01*
X130273636Y-62481580D01*
X130031731Y-62481580D01*
X129886589Y-62433200D01*
X129596303Y-62481580D02*
X129015731Y-62481580D01*
X129306017Y-61465580D02*
X129306017Y-62481580D01*
X140530277Y-74145019D02*
X141110849Y-74145019D01*
X140820563Y-75161019D02*
X140820563Y-74145019D01*
X141788182Y-74628828D02*
X141449515Y-74628828D01*
X141449515Y-75161019D02*
X141449515Y-74145019D01*
X141933325Y-74145019D01*
X142320372Y-74773971D02*
X143094468Y-74773971D01*
X144158849Y-75064257D02*
X144110468Y-75112638D01*
X143965325Y-75161019D01*
X143868563Y-75161019D01*
X143723420Y-75112638D01*
X143626658Y-75015876D01*
X143578277Y-74919114D01*
X143529896Y-74725590D01*
X143529896Y-74580447D01*
X143578277Y-74386923D01*
X143626658Y-74290161D01*
X143723420Y-74193400D01*
X143868563Y-74145019D01*
X143965325Y-74145019D01*
X144110468Y-74193400D01*
X144158849Y-74241780D01*
X144545896Y-74870733D02*
X145029706Y-74870733D01*
X144449134Y-75161019D02*
X144787801Y-74145019D01*
X145126468Y-75161019D01*
X146045706Y-75161019D02*
X145707039Y-74677209D01*
X145465134Y-75161019D02*
X145465134Y-74145019D01*
X145852182Y-74145019D01*
X145948944Y-74193400D01*
X145997325Y-74241780D01*
X146045706Y-74338542D01*
X146045706Y-74483685D01*
X145997325Y-74580447D01*
X145948944Y-74628828D01*
X145852182Y-74677209D01*
X145465134Y-74677209D01*
X146481134Y-75161019D02*
X146481134Y-74145019D01*
X146723039Y-74145019D01*
X146868182Y-74193400D01*
X146964944Y-74290161D01*
X147013325Y-74386923D01*
X147061706Y-74580447D01*
X147061706Y-74725590D01*
X147013325Y-74919114D01*
X146964944Y-75015876D01*
X146868182Y-75112638D01*
X146723039Y-75161019D01*
X146481134Y-75161019D01*
X152383610Y-93017219D02*
X152044944Y-92533409D01*
X151803039Y-93017219D02*
X151803039Y-92001219D01*
X152190087Y-92001219D01*
X152286849Y-92049600D01*
X152335230Y-92097980D01*
X152383610Y-92194742D01*
X152383610Y-92339885D01*
X152335230Y-92436647D01*
X152286849Y-92485028D01*
X152190087Y-92533409D01*
X151803039Y-92533409D01*
X152673896Y-92001219D02*
X153254468Y-92001219D01*
X152964182Y-93017219D02*
X152964182Y-92001219D01*
X154173706Y-92920457D02*
X154125325Y-92968838D01*
X153980182Y-93017219D01*
X153883420Y-93017219D01*
X153738277Y-92968838D01*
X153641515Y-92872076D01*
X153593134Y-92775314D01*
X153544753Y-92581790D01*
X153544753Y-92436647D01*
X153593134Y-92243123D01*
X153641515Y-92146361D01*
X153738277Y-92049600D01*
X153883420Y-92001219D01*
X153980182Y-92001219D01*
X154125325Y-92049600D01*
X154173706Y-92097980D01*
X125496561Y-97340601D02*
X125448180Y-97485744D01*
X125448180Y-97727649D01*
X125496561Y-97824410D01*
X125544942Y-97872791D01*
X125641704Y-97921172D01*
X125738466Y-97921172D01*
X125835228Y-97872791D01*
X125883609Y-97824410D01*
X125931990Y-97727649D01*
X125980371Y-97534125D01*
X126028752Y-97437363D01*
X126077133Y-97388982D01*
X126173895Y-97340601D01*
X126270657Y-97340601D01*
X126367419Y-97388982D01*
X126415800Y-97437363D01*
X126464180Y-97534125D01*
X126464180Y-97776030D01*
X126415800Y-97921172D01*
X125448180Y-98356601D02*
X126464180Y-98356601D01*
X126464180Y-98743649D01*
X126415800Y-98840410D01*
X126367419Y-98888791D01*
X126270657Y-98937172D01*
X126125514Y-98937172D01*
X126028752Y-98888791D01*
X125980371Y-98840410D01*
X125931990Y-98743649D01*
X125931990Y-98356601D01*
X125980371Y-99372601D02*
X125980371Y-99711268D01*
X125448180Y-99856410D02*
X125448180Y-99372601D01*
X126464180Y-99372601D01*
X126464180Y-99856410D01*
X125738466Y-100243458D02*
X125738466Y-100727268D01*
X125448180Y-100146696D02*
X126464180Y-100485363D01*
X125448180Y-100824030D01*
X125448180Y-101162696D02*
X126464180Y-101162696D01*
X125448180Y-101743268D02*
X126028752Y-101307839D01*
X126464180Y-101743268D02*
X125883609Y-101162696D01*
X125980371Y-102178696D02*
X125980371Y-102517363D01*
X125448180Y-102662506D02*
X125448180Y-102178696D01*
X126464180Y-102178696D01*
X126464180Y-102662506D01*
X125448180Y-103678506D02*
X125931990Y-103339839D01*
X125448180Y-103097934D02*
X126464180Y-103097934D01*
X126464180Y-103484982D01*
X126415800Y-103581744D01*
X126367419Y-103630125D01*
X126270657Y-103678506D01*
X126125514Y-103678506D01*
X126028752Y-103630125D01*
X125980371Y-103581744D01*
X125931990Y-103484982D01*
X125931990Y-103097934D01*
X138689382Y-115140619D02*
X138689382Y-114124619D01*
X139028049Y-114850333D01*
X139366715Y-114124619D01*
X139366715Y-115140619D01*
X139850525Y-115140619D02*
X139850525Y-114124619D01*
X140914906Y-115043857D02*
X140866525Y-115092238D01*
X140721382Y-115140619D01*
X140624620Y-115140619D01*
X140479477Y-115092238D01*
X140382715Y-114995476D01*
X140334334Y-114898714D01*
X140285953Y-114705190D01*
X140285953Y-114560047D01*
X140334334Y-114366523D01*
X140382715Y-114269761D01*
X140479477Y-114173000D01*
X140624620Y-114124619D01*
X140721382Y-114124619D01*
X140866525Y-114173000D01*
X140914906Y-114221380D01*
X158549219Y-121054525D02*
X159371695Y-121054525D01*
X159468457Y-121006144D01*
X159516838Y-120957763D01*
X159565219Y-120861001D01*
X159565219Y-120667477D01*
X159516838Y-120570715D01*
X159468457Y-120522334D01*
X159371695Y-120473953D01*
X158549219Y-120473953D01*
X159516838Y-120038525D02*
X159565219Y-119893382D01*
X159565219Y-119651477D01*
X159516838Y-119554715D01*
X159468457Y-119506334D01*
X159371695Y-119457953D01*
X159274933Y-119457953D01*
X159178171Y-119506334D01*
X159129790Y-119554715D01*
X159081409Y-119651477D01*
X159033028Y-119845001D01*
X158984647Y-119941763D01*
X158936266Y-119990144D01*
X158839504Y-120038525D01*
X158742742Y-120038525D01*
X158645980Y-119990144D01*
X158597600Y-119941763D01*
X158549219Y-119845001D01*
X158549219Y-119603096D01*
X158597600Y-119457953D01*
X159033028Y-118683858D02*
X159081409Y-118538715D01*
X159129790Y-118490334D01*
X159226552Y-118441953D01*
X159371695Y-118441953D01*
X159468457Y-118490334D01*
X159516838Y-118538715D01*
X159565219Y-118635477D01*
X159565219Y-119022525D01*
X158549219Y-119022525D01*
X158549219Y-118683858D01*
X158597600Y-118587096D01*
X158645980Y-118538715D01*
X158742742Y-118490334D01*
X158839504Y-118490334D01*
X158936266Y-118538715D01*
X158984647Y-118587096D01*
X159033028Y-118683858D01*
X159033028Y-119022525D01*
X159178171Y-118006525D02*
X159178171Y-117232430D01*
X158549219Y-116555096D02*
X158549219Y-116361572D01*
X158597600Y-116264810D01*
X158694361Y-116168049D01*
X158887885Y-116119668D01*
X159226552Y-116119668D01*
X159420076Y-116168049D01*
X159516838Y-116264810D01*
X159565219Y-116361572D01*
X159565219Y-116555096D01*
X159516838Y-116651858D01*
X159420076Y-116748620D01*
X159226552Y-116797001D01*
X158887885Y-116797001D01*
X158694361Y-116748620D01*
X158597600Y-116651858D01*
X158549219Y-116555096D01*
X158549219Y-115829382D02*
X158549219Y-115248810D01*
X159565219Y-115539096D02*
X158549219Y-115539096D01*
X158597600Y-114377953D02*
X158549219Y-114474715D01*
X158549219Y-114619858D01*
X158597600Y-114765001D01*
X158694361Y-114861763D01*
X158791123Y-114910144D01*
X158984647Y-114958525D01*
X159129790Y-114958525D01*
X159323314Y-114910144D01*
X159420076Y-114861763D01*
X159516838Y-114765001D01*
X159565219Y-114619858D01*
X159565219Y-114523096D01*
X159516838Y-114377953D01*
X159468457Y-114329572D01*
X159129790Y-114329572D01*
X159129790Y-114523096D01*
X143029274Y-108607739D02*
X143029274Y-109430215D01*
X143077655Y-109526977D01*
X143126036Y-109575358D01*
X143222798Y-109623739D01*
X143416322Y-109623739D01*
X143513084Y-109575358D01*
X143561465Y-109526977D01*
X143609846Y-109430215D01*
X143609846Y-108607739D01*
X144045274Y-109575358D02*
X144190417Y-109623739D01*
X144432322Y-109623739D01*
X144529084Y-109575358D01*
X144577465Y-109526977D01*
X144625846Y-109430215D01*
X144625846Y-109333453D01*
X144577465Y-109236691D01*
X144529084Y-109188310D01*
X144432322Y-109139929D01*
X144238798Y-109091548D01*
X144142036Y-109043167D01*
X144093655Y-108994786D01*
X144045274Y-108898024D01*
X144045274Y-108801262D01*
X144093655Y-108704500D01*
X144142036Y-108656120D01*
X144238798Y-108607739D01*
X144480703Y-108607739D01*
X144625846Y-108656120D01*
X145399941Y-109091548D02*
X145545084Y-109139929D01*
X145593465Y-109188310D01*
X145641846Y-109285072D01*
X145641846Y-109430215D01*
X145593465Y-109526977D01*
X145545084Y-109575358D01*
X145448322Y-109623739D01*
X145061274Y-109623739D01*
X145061274Y-108607739D01*
X145399941Y-108607739D01*
X145496703Y-108656120D01*
X145545084Y-108704500D01*
X145593465Y-108801262D01*
X145593465Y-108898024D01*
X145545084Y-108994786D01*
X145496703Y-109043167D01*
X145399941Y-109091548D01*
X145061274Y-109091548D01*
X146077274Y-109236691D02*
X146851370Y-109236691D01*
X147335179Y-108607739D02*
X147335179Y-109430215D01*
X147383560Y-109526977D01*
X147431941Y-109575358D01*
X147528703Y-109623739D01*
X147722227Y-109623739D01*
X147818989Y-109575358D01*
X147867370Y-109526977D01*
X147915750Y-109430215D01*
X147915750Y-108607739D01*
X148351179Y-109333453D02*
X148834989Y-109333453D01*
X148254417Y-109623739D02*
X148593084Y-108607739D01*
X148931750Y-109623739D01*
X149850989Y-109623739D02*
X149512322Y-109139929D01*
X149270417Y-109623739D02*
X149270417Y-108607739D01*
X149657465Y-108607739D01*
X149754227Y-108656120D01*
X149802608Y-108704500D01*
X149850989Y-108801262D01*
X149850989Y-108946405D01*
X149802608Y-109043167D01*
X149754227Y-109091548D01*
X149657465Y-109139929D01*
X149270417Y-109139929D01*
X150141274Y-108607739D02*
X150721846Y-108607739D01*
X150431560Y-109623739D02*
X150431560Y-108607739D01*
X143029274Y-111259499D02*
X143029274Y-110243499D01*
X143271179Y-110243499D01*
X143416322Y-110291880D01*
X143513084Y-110388641D01*
X143561465Y-110485403D01*
X143609846Y-110678927D01*
X143609846Y-110824070D01*
X143561465Y-111017594D01*
X143513084Y-111114356D01*
X143416322Y-111211118D01*
X143271179Y-111259499D01*
X143029274Y-111259499D01*
X144045274Y-110727308D02*
X144383941Y-110727308D01*
X144529084Y-111259499D02*
X144045274Y-111259499D01*
X144045274Y-110243499D01*
X144529084Y-110243499D01*
X145303179Y-110727308D02*
X145448322Y-110775689D01*
X145496703Y-110824070D01*
X145545084Y-110920832D01*
X145545084Y-111065975D01*
X145496703Y-111162737D01*
X145448322Y-111211118D01*
X145351560Y-111259499D01*
X144964512Y-111259499D01*
X144964512Y-110243499D01*
X145303179Y-110243499D01*
X145399941Y-110291880D01*
X145448322Y-110340260D01*
X145496703Y-110437022D01*
X145496703Y-110533784D01*
X145448322Y-110630546D01*
X145399941Y-110678927D01*
X145303179Y-110727308D01*
X144964512Y-110727308D01*
X145980512Y-110243499D02*
X145980512Y-111065975D01*
X146028893Y-111162737D01*
X146077274Y-111211118D01*
X146174036Y-111259499D01*
X146367560Y-111259499D01*
X146464322Y-111211118D01*
X146512703Y-111162737D01*
X146561084Y-111065975D01*
X146561084Y-110243499D01*
X147577084Y-110291880D02*
X147480322Y-110243499D01*
X147335179Y-110243499D01*
X147190036Y-110291880D01*
X147093274Y-110388641D01*
X147044893Y-110485403D01*
X146996512Y-110678927D01*
X146996512Y-110824070D01*
X147044893Y-111017594D01*
X147093274Y-111114356D01*
X147190036Y-111211118D01*
X147335179Y-111259499D01*
X147431941Y-111259499D01*
X147577084Y-111211118D01*
X147625465Y-111162737D01*
X147625465Y-110824070D01*
X147431941Y-110824070D01*
X135370570Y-61997771D02*
X135709236Y-61997771D01*
X135709236Y-61465580D02*
X135709236Y-62481580D01*
X135225427Y-62481580D01*
X134838379Y-61997771D02*
X134499712Y-61997771D01*
X134354570Y-61465580D02*
X134838379Y-61465580D01*
X134838379Y-62481580D01*
X134354570Y-62481580D01*
X133435331Y-61465580D02*
X133919141Y-61465580D01*
X133919141Y-62481580D01*
X168253228Y-110225658D02*
X168301609Y-110080515D01*
X168349990Y-110032134D01*
X168446752Y-109983753D01*
X168591895Y-109983753D01*
X168688657Y-110032134D01*
X168737038Y-110080515D01*
X168785419Y-110177277D01*
X168785419Y-110564325D01*
X167769419Y-110564325D01*
X167769419Y-110225658D01*
X167817800Y-110128896D01*
X167866180Y-110080515D01*
X167962942Y-110032134D01*
X168059704Y-110032134D01*
X168156466Y-110080515D01*
X168204847Y-110128896D01*
X168253228Y-110225658D01*
X168253228Y-110564325D01*
X168495133Y-109596706D02*
X168495133Y-109112896D01*
X168785419Y-109693468D02*
X167769419Y-109354801D01*
X168785419Y-109016134D01*
X167769419Y-108822610D02*
X167769419Y-108242039D01*
X168785419Y-108532325D02*
X167769419Y-108532325D01*
X167769419Y-108048515D02*
X167769419Y-107467944D01*
X168785419Y-107758230D02*
X167769419Y-107758230D01*
X168253228Y-107129277D02*
X168253228Y-106790610D01*
X168785419Y-106645468D02*
X168785419Y-107129277D01*
X167769419Y-107129277D01*
X167769419Y-106645468D01*
X168785419Y-105629468D02*
X168301609Y-105968134D01*
X168785419Y-106210039D02*
X167769419Y-106210039D01*
X167769419Y-105822991D01*
X167817800Y-105726230D01*
X167866180Y-105677849D01*
X167962942Y-105629468D01*
X168108085Y-105629468D01*
X168204847Y-105677849D01*
X168253228Y-105726230D01*
X168301609Y-105822991D01*
X168301609Y-106210039D01*
X168301609Y-105000515D02*
X168785419Y-105000515D01*
X167769419Y-105339182D02*
X168301609Y-105000515D01*
X167769419Y-104661849D01*
X143081163Y-106138133D02*
X143564972Y-106138133D01*
X142984401Y-106428419D02*
X143323068Y-105412419D01*
X143661734Y-106428419D01*
X144000401Y-106428419D02*
X144000401Y-105412419D01*
X144339068Y-106138133D01*
X144677734Y-105412419D01*
X144677734Y-106428419D01*
X145161544Y-106428419D02*
X145161544Y-105412419D01*
X145548591Y-105412419D01*
X145645353Y-105460800D01*
X145693734Y-105509180D01*
X145742115Y-105605942D01*
X145742115Y-105751085D01*
X145693734Y-105847847D01*
X145645353Y-105896228D01*
X145548591Y-105944609D01*
X145161544Y-105944609D01*
X146661353Y-106428419D02*
X146177544Y-106428419D01*
X146177544Y-105412419D01*
X147000020Y-106428419D02*
X147000020Y-105412419D01*
X147822496Y-105896228D02*
X147483830Y-105896228D01*
X147483830Y-106428419D02*
X147483830Y-105412419D01*
X147967639Y-105412419D01*
X148354687Y-106428419D02*
X148354687Y-105412419D01*
X148838496Y-105896228D02*
X149177163Y-105896228D01*
X149322306Y-106428419D02*
X148838496Y-106428419D01*
X148838496Y-105412419D01*
X149322306Y-105412419D01*
X150338306Y-106428419D02*
X149999639Y-105944609D01*
X149757734Y-106428419D02*
X149757734Y-105412419D01*
X150144782Y-105412419D01*
X150241544Y-105460800D01*
X150289925Y-105509180D01*
X150338306Y-105605942D01*
X150338306Y-105751085D01*
X150289925Y-105847847D01*
X150241544Y-105896228D01*
X150144782Y-105944609D01*
X149757734Y-105944609D01*
X141079401Y-91137619D02*
X141079401Y-90121619D01*
X141563210Y-91137619D02*
X141563210Y-90121619D01*
X141901877Y-90847333D01*
X142240544Y-90121619D01*
X142240544Y-91137619D01*
X142724353Y-90121619D02*
X142724353Y-90944095D01*
X142772734Y-91040857D01*
X142821115Y-91089238D01*
X142917877Y-91137619D01*
X143111401Y-91137619D01*
X143208163Y-91089238D01*
X143256544Y-91040857D01*
X143304925Y-90944095D01*
X143304925Y-90121619D01*
X128975696Y-106753539D02*
X128975696Y-105737539D01*
X128975696Y-106221348D02*
X129556268Y-106221348D01*
X129556268Y-106753539D02*
X129556268Y-105737539D01*
X130040077Y-106753539D02*
X130040077Y-105737539D01*
X130427125Y-105737539D01*
X130523887Y-105785920D01*
X130572268Y-105834300D01*
X130620649Y-105931062D01*
X130620649Y-106076205D01*
X130572268Y-106172967D01*
X130523887Y-106221348D01*
X130427125Y-106269729D01*
X130040077Y-106269729D01*
X131056077Y-106366491D02*
X131830172Y-106366491D01*
X132604268Y-105737539D02*
X132604268Y-106463253D01*
X132555887Y-106608396D01*
X132459125Y-106705158D01*
X132313982Y-106753539D01*
X132217220Y-106753539D01*
X133039696Y-106463253D02*
X133523506Y-106463253D01*
X132942934Y-106753539D02*
X133281601Y-105737539D01*
X133620268Y-106753539D01*
X134539506Y-106656777D02*
X134491125Y-106705158D01*
X134345982Y-106753539D01*
X134249220Y-106753539D01*
X134104077Y-106705158D01*
X134007315Y-106608396D01*
X133958934Y-106511634D01*
X133910553Y-106318110D01*
X133910553Y-106172967D01*
X133958934Y-105979443D01*
X134007315Y-105882681D01*
X134104077Y-105785920D01*
X134249220Y-105737539D01*
X134345982Y-105737539D01*
X134491125Y-105785920D01*
X134539506Y-105834300D01*
X134974934Y-106753539D02*
X134974934Y-105737539D01*
X135555506Y-106753539D02*
X135120077Y-106172967D01*
X135555506Y-105737539D02*
X134974934Y-106318110D01*
X130765791Y-107373299D02*
X131394744Y-107373299D01*
X131056077Y-107760346D01*
X131201220Y-107760346D01*
X131297982Y-107808727D01*
X131346363Y-107857108D01*
X131394744Y-107953870D01*
X131394744Y-108195775D01*
X131346363Y-108292537D01*
X131297982Y-108340918D01*
X131201220Y-108389299D01*
X130910934Y-108389299D01*
X130814172Y-108340918D01*
X130765791Y-108292537D01*
X131830172Y-108292537D02*
X131878553Y-108340918D01*
X131830172Y-108389299D01*
X131781791Y-108340918D01*
X131830172Y-108292537D01*
X131830172Y-108389299D01*
X132797791Y-107373299D02*
X132313982Y-107373299D01*
X132265601Y-107857108D01*
X132313982Y-107808727D01*
X132410744Y-107760346D01*
X132652649Y-107760346D01*
X132749410Y-107808727D01*
X132797791Y-107857108D01*
X132846172Y-107953870D01*
X132846172Y-108195775D01*
X132797791Y-108292537D01*
X132749410Y-108340918D01*
X132652649Y-108389299D01*
X132410744Y-108389299D01*
X132313982Y-108340918D01*
X132265601Y-108292537D01*
X133281601Y-108389299D02*
X133281601Y-107711965D01*
X133281601Y-107808727D02*
X133329982Y-107760346D01*
X133426744Y-107711965D01*
X133571887Y-107711965D01*
X133668649Y-107760346D01*
X133717030Y-107857108D01*
X133717030Y-108389299D01*
X133717030Y-107857108D02*
X133765410Y-107760346D01*
X133862172Y-107711965D01*
X134007315Y-107711965D01*
X134104077Y-107760346D01*
X134152458Y-107857108D01*
X134152458Y-108389299D01*
X134636268Y-108389299D02*
X134636268Y-107711965D01*
X134636268Y-107808727D02*
X134684649Y-107760346D01*
X134781410Y-107711965D01*
X134926553Y-107711965D01*
X135023315Y-107760346D01*
X135071696Y-107857108D01*
X135071696Y-108389299D01*
X135071696Y-107857108D02*
X135120077Y-107760346D01*
X135216839Y-107711965D01*
X135361982Y-107711965D01*
X135458744Y-107760346D01*
X135507125Y-107857108D01*
X135507125Y-108389299D01*
X163488370Y-61414780D02*
X163488370Y-62430780D01*
X163101322Y-62430780D01*
X163004560Y-62382400D01*
X162956179Y-62334019D01*
X162907798Y-62237257D01*
X162907798Y-62092114D01*
X162956179Y-61995352D01*
X163004560Y-61946971D01*
X163101322Y-61898590D01*
X163488370Y-61898590D01*
X162569131Y-62430780D02*
X162327227Y-61414780D01*
X162133703Y-62140495D01*
X161940179Y-61414780D01*
X161698274Y-62430780D01*
X160730655Y-61414780D02*
X161069322Y-61898590D01*
X161311227Y-61414780D02*
X161311227Y-62430780D01*
X160924179Y-62430780D01*
X160827417Y-62382400D01*
X160779036Y-62334019D01*
X160730655Y-62237257D01*
X160730655Y-62092114D01*
X160779036Y-61995352D01*
X160827417Y-61946971D01*
X160924179Y-61898590D01*
X161311227Y-61898590D01*
X160101703Y-62430780D02*
X159908179Y-62430780D01*
X159811417Y-62382400D01*
X159714655Y-62285638D01*
X159666274Y-62092114D01*
X159666274Y-61753447D01*
X159714655Y-61559923D01*
X159811417Y-61463161D01*
X159908179Y-61414780D01*
X160101703Y-61414780D01*
X160198465Y-61463161D01*
X160295227Y-61559923D01*
X160343608Y-61753447D01*
X160343608Y-62092114D01*
X160295227Y-62285638D01*
X160198465Y-62382400D01*
X160101703Y-62430780D01*
X159230846Y-61414780D02*
X159230846Y-62430780D01*
X158650274Y-61414780D01*
X158650274Y-62430780D01*
X130323106Y-66525019D02*
X129839296Y-66525019D01*
X129839296Y-65509019D01*
X130661772Y-65992828D02*
X131000439Y-65992828D01*
X131145582Y-66525019D02*
X130661772Y-66525019D01*
X130661772Y-65509019D01*
X131145582Y-65509019D01*
X131581010Y-66525019D02*
X131581010Y-65509019D01*
X131822915Y-65509019D01*
X131968058Y-65557400D01*
X132064820Y-65654161D01*
X132113201Y-65750923D01*
X132161582Y-65944447D01*
X132161582Y-66089590D01*
X132113201Y-66283114D01*
X132064820Y-66379876D01*
X131968058Y-66476638D01*
X131822915Y-66525019D01*
X131581010Y-66525019D01*
X132597010Y-66137971D02*
X133371106Y-66137971D01*
X133854915Y-66525019D02*
X133854915Y-65509019D01*
X134241963Y-65509019D01*
X134338725Y-65557400D01*
X134387106Y-65605780D01*
X134435487Y-65702542D01*
X134435487Y-65847685D01*
X134387106Y-65944447D01*
X134338725Y-65992828D01*
X134241963Y-66041209D01*
X133854915Y-66041209D01*
X135209582Y-65992828D02*
X135354725Y-66041209D01*
X135403106Y-66089590D01*
X135451487Y-66186352D01*
X135451487Y-66331495D01*
X135403106Y-66428257D01*
X135354725Y-66476638D01*
X135257963Y-66525019D01*
X134870915Y-66525019D01*
X134870915Y-65509019D01*
X135209582Y-65509019D01*
X135306344Y-65557400D01*
X135354725Y-65605780D01*
X135403106Y-65702542D01*
X135403106Y-65799304D01*
X135354725Y-65896066D01*
X135306344Y-65944447D01*
X135209582Y-65992828D01*
X134870915Y-65992828D01*
X136032058Y-65944447D02*
X135935296Y-65896066D01*
X135886915Y-65847685D01*
X135838534Y-65750923D01*
X135838534Y-65702542D01*
X135886915Y-65605780D01*
X135935296Y-65557400D01*
X136032058Y-65509019D01*
X136225582Y-65509019D01*
X136322344Y-65557400D01*
X136370725Y-65605780D01*
X136419106Y-65702542D01*
X136419106Y-65750923D01*
X136370725Y-65847685D01*
X136322344Y-65896066D01*
X136225582Y-65944447D01*
X136032058Y-65944447D01*
X135935296Y-65992828D01*
X135886915Y-66041209D01*
X135838534Y-66137971D01*
X135838534Y-66331495D01*
X135886915Y-66428257D01*
X135935296Y-66476638D01*
X136032058Y-66525019D01*
X136225582Y-66525019D01*
X136322344Y-66476638D01*
X136370725Y-66428257D01*
X136419106Y-66331495D01*
X136419106Y-66137971D01*
X136370725Y-66041209D01*
X136322344Y-65992828D01*
X136225582Y-65944447D01*
D17*
X146064453Y-96604666D02*
X147273977Y-96604666D01*
X145749977Y-97185238D02*
X146850644Y-95153238D01*
X147443310Y-97185238D01*
X149620453Y-97185238D02*
X148169025Y-97185238D01*
X148894739Y-97185238D02*
X149148739Y-95153238D01*
X148870549Y-95443523D01*
X148604453Y-95637047D01*
X148350453Y-95733809D01*
X150721120Y-95153238D02*
X152293501Y-95153238D01*
X151350072Y-95927333D01*
X151712930Y-95927333D01*
X151942739Y-96024095D01*
X152051596Y-96120857D01*
X152148358Y-96314380D01*
X152087882Y-96798190D01*
X151942739Y-96991714D01*
X151809691Y-97088476D01*
X151555691Y-97185238D01*
X150829977Y-97185238D01*
X150600168Y-97088476D01*
X150491310Y-96991714D01*
X153140168Y-95153238D02*
X154712549Y-95153238D01*
X153769120Y-95927333D01*
X154131977Y-95927333D01*
X154361787Y-96024095D01*
X154470644Y-96120857D01*
X154567406Y-96314380D01*
X154506930Y-96798190D01*
X154361787Y-96991714D01*
X154228739Y-97088476D01*
X153974739Y-97185238D01*
X153249025Y-97185238D01*
X153019215Y-97088476D01*
X152910358Y-96991714D01*
X157022739Y-96991714D02*
X156889691Y-97088476D01*
X156514739Y-97185238D01*
X156272834Y-97185238D01*
X155922072Y-97088476D01*
X155704358Y-96894952D01*
X155607596Y-96701428D01*
X155535025Y-96314380D01*
X155571310Y-96024095D01*
X155740644Y-95637047D01*
X155885787Y-95443523D01*
X156151882Y-95250000D01*
X156526834Y-95153238D01*
X156768739Y-95153238D01*
X157119501Y-95250000D01*
X157228358Y-95346761D01*
X158449977Y-97185238D02*
X158220168Y-97088476D01*
X158111310Y-96991714D01*
X158014549Y-96798190D01*
X158087120Y-96217619D01*
X158232263Y-96024095D01*
X158365310Y-95927333D01*
X158619310Y-95830571D01*
X158982168Y-95830571D01*
X159211977Y-95927333D01*
X159320834Y-96024095D01*
X159417596Y-96217619D01*
X159345025Y-96798190D01*
X159199882Y-96991714D01*
X159066834Y-97088476D01*
X158812834Y-97185238D01*
X158449977Y-97185238D01*
X160385215Y-97185238D02*
X160554549Y-95830571D01*
X160506168Y-96217619D02*
X160651310Y-96024095D01*
X160784358Y-95927333D01*
X161038358Y-95830571D01*
X161280263Y-95830571D01*
X162937310Y-97088476D02*
X162683310Y-97185238D01*
X162199501Y-97185238D01*
X161969691Y-97088476D01*
X161872930Y-96894952D01*
X161969691Y-96120857D01*
X162114834Y-95927333D01*
X162368834Y-95830571D01*
X162852644Y-95830571D01*
X163082453Y-95927333D01*
X163179215Y-96120857D01*
X163155025Y-96314380D01*
X161921310Y-96507904D01*
X164134739Y-97185238D02*
X164388739Y-95153238D01*
X164993501Y-95153238D01*
X165344263Y-95250000D01*
X165561977Y-95443523D01*
X165658739Y-95637047D01*
X165731310Y-96024095D01*
X165695025Y-96314380D01*
X165525691Y-96701428D01*
X165380549Y-96894952D01*
X165114453Y-97088476D01*
X164739501Y-97185238D01*
X164134739Y-97185238D01*
X166674739Y-97185238D02*
X166928739Y-95153238D01*
X168126168Y-97185238D02*
X167182739Y-96024095D01*
X168380168Y-95153238D02*
X166783596Y-96314380D01*
G36*
X169210022Y-73071022D02*
G01*
X165689229Y-73071022D01*
X165689229Y-72203398D01*
X169210022Y-72203398D01*
X169210022Y-73071022D01*
G37*
D18*
X169210022Y-73071022D02*
X165689229Y-73071022D01*
X165689229Y-72203398D01*
X169210022Y-72203398D01*
X169210022Y-73071022D01*
G36*
X166656729Y-69990799D02*
G01*
X166667949Y-69973008D01*
X166670446Y-69964770D01*
X166669500Y-69946790D01*
X166666627Y-69906092D01*
X166662013Y-69845019D01*
X166655842Y-69765913D01*
X166648302Y-69671114D01*
X166639579Y-69562967D01*
X166629857Y-69443812D01*
X166619324Y-69315991D01*
X166610835Y-69213835D01*
X166562804Y-68637874D01*
X166686395Y-68637874D01*
X166686927Y-68650304D01*
X166689431Y-68685310D01*
X166693704Y-68740415D01*
X166699547Y-68813143D01*
X166706757Y-68901014D01*
X166715134Y-69001551D01*
X166724477Y-69112277D01*
X166733442Y-69217405D01*
X166743598Y-69336683D01*
X166753058Y-69449280D01*
X166761604Y-69552505D01*
X166769021Y-69643673D01*
X166775092Y-69720095D01*
X166779599Y-69779083D01*
X166782327Y-69817949D01*
X166783084Y-69833044D01*
X166784265Y-69842438D01*
X166788944Y-69846166D01*
X166798924Y-69842671D01*
X166816010Y-69830399D01*
X166842004Y-69807794D01*
X166878710Y-69773300D01*
X166927933Y-69725362D01*
X166991474Y-69662424D01*
X167058895Y-69595168D01*
X167334599Y-69319677D01*
X167332667Y-69317606D01*
X167514910Y-69317606D01*
X167523216Y-69328980D01*
X167546467Y-69355763D01*
X167582335Y-69395492D01*
X167628487Y-69445707D01*
X167682594Y-69503946D01*
X167742326Y-69567747D01*
X167805352Y-69634649D01*
X167869342Y-69702190D01*
X167931964Y-69767910D01*
X167990890Y-69829346D01*
X168043788Y-69884037D01*
X168088328Y-69929522D01*
X168122180Y-69963338D01*
X168143012Y-69983026D01*
X168148694Y-69987037D01*
X168150566Y-69974091D01*
X168154454Y-69938334D01*
X168160143Y-69882004D01*
X168167419Y-69807340D01*
X168176069Y-69716580D01*
X168185878Y-69611962D01*
X168196634Y-69495726D01*
X168208121Y-69370108D01*
X168217293Y-69268818D01*
X168229026Y-69137479D01*
X168239865Y-69013752D01*
X168249630Y-68899881D01*
X168258137Y-68798111D01*
X168265205Y-68710687D01*
X168270651Y-68639853D01*
X168274292Y-68587853D01*
X168275947Y-68556932D01*
X168275758Y-68548903D01*
X168265866Y-68556054D01*
X168240676Y-68579041D01*
X168202390Y-68615639D01*
X168153211Y-68663622D01*
X168095339Y-68720766D01*
X168030978Y-68784847D01*
X167962329Y-68853638D01*
X167891595Y-68924916D01*
X167820978Y-68996455D01*
X167752680Y-69066030D01*
X167688904Y-69131417D01*
X167631850Y-69190391D01*
X167583722Y-69240727D01*
X167546722Y-69280199D01*
X167523052Y-69306583D01*
X167514910Y-69317606D01*
X167332667Y-69317606D01*
X167231791Y-69209495D01*
X167179432Y-69153577D01*
X167120665Y-69091148D01*
X167057815Y-69024643D01*
X166993205Y-68956498D01*
X166929158Y-68889148D01*
X166867997Y-68825028D01*
X166812047Y-68766572D01*
X166763630Y-68716218D01*
X166725070Y-68676398D01*
X166698691Y-68649550D01*
X166686816Y-68638108D01*
X166686395Y-68637874D01*
X166562804Y-68637874D01*
X166550799Y-68493926D01*
X165950262Y-67862358D01*
X165349725Y-67230789D01*
X165350166Y-67142515D01*
X165350608Y-67054240D01*
X165447617Y-67157866D01*
X165501909Y-67215663D01*
X165566008Y-67283568D01*
X165638184Y-67359772D01*
X165716708Y-67442469D01*
X165799851Y-67529853D01*
X165885881Y-67620115D01*
X165973070Y-67711450D01*
X166059687Y-67802049D01*
X166144003Y-67890107D01*
X166224288Y-67973815D01*
X166298813Y-68051367D01*
X166365846Y-68120957D01*
X166423659Y-68180776D01*
X166470521Y-68229018D01*
X166504704Y-68263876D01*
X166524476Y-68283543D01*
X166528810Y-68287316D01*
X166529108Y-68274192D01*
X166527469Y-68240589D01*
X166524177Y-68191080D01*
X166519518Y-68130237D01*
X166517518Y-68105932D01*
X166502623Y-67928151D01*
X166619245Y-67928151D01*
X166625266Y-67956443D01*
X166628337Y-67978818D01*
X166632652Y-68020917D01*
X166637712Y-68077378D01*
X166643019Y-68142835D01*
X166644856Y-68167062D01*
X166650273Y-68236621D01*
X166655741Y-68301218D01*
X166660712Y-68354748D01*
X166664639Y-68391110D01*
X166665525Y-68397709D01*
X166668866Y-68411256D01*
X166676099Y-68427114D01*
X166688760Y-68447061D01*
X166708389Y-68472873D01*
X166736522Y-68506329D01*
X166774698Y-68549207D01*
X166824454Y-68603283D01*
X166887329Y-68670336D01*
X166964859Y-68752143D01*
X167043949Y-68835150D01*
X167122636Y-68917294D01*
X167196088Y-68993369D01*
X167262476Y-69061525D01*
X167319973Y-69119912D01*
X167366749Y-69166681D01*
X167400976Y-69199982D01*
X167420827Y-69217967D01*
X167425060Y-69220642D01*
X167436197Y-69210941D01*
X167462229Y-69185641D01*
X167500630Y-69147282D01*
X167548872Y-69098400D01*
X167604430Y-69041534D01*
X167644608Y-69000106D01*
X167854369Y-68783200D01*
X167235863Y-68783200D01*
X167235863Y-68544289D01*
X167990319Y-68544289D01*
X167990319Y-68650742D01*
X168128635Y-68512854D01*
X168226753Y-68415040D01*
X168417843Y-68415040D01*
X168419671Y-68430470D01*
X168428923Y-68439067D01*
X168451250Y-68442813D01*
X168492305Y-68443689D01*
X168499576Y-68443695D01*
X168581309Y-68443695D01*
X168581309Y-68224372D01*
X168499576Y-68305379D01*
X168453470Y-68354628D01*
X168425894Y-68392359D01*
X168417843Y-68415040D01*
X168226753Y-68415040D01*
X168266952Y-68374966D01*
X168266952Y-68252152D01*
X168267337Y-68195650D01*
X168269100Y-68159705D01*
X168273150Y-68139730D01*
X168280399Y-68131137D01*
X168291330Y-68129339D01*
X168303488Y-68126698D01*
X168312473Y-68116112D01*
X168319374Y-68093581D01*
X168325276Y-68055109D01*
X168331265Y-67996698D01*
X168333187Y-67975304D01*
X168337348Y-67928151D01*
X166619245Y-67928151D01*
X166502623Y-67928151D01*
X166343091Y-67928151D01*
X166343091Y-67814982D01*
X166410886Y-67814982D01*
X166450538Y-67813896D01*
X166472084Y-67808654D01*
X166474720Y-67805534D01*
X166613584Y-67805534D01*
X166620892Y-67812662D01*
X166646207Y-67814862D01*
X166663292Y-67814982D01*
X166720319Y-67814982D01*
X166932979Y-67814982D01*
X168347502Y-67814982D01*
X168299658Y-67765986D01*
X168225350Y-67705524D01*
X168133384Y-67658891D01*
X168022202Y-67625449D01*
X167911729Y-67606953D01*
X167839427Y-67598322D01*
X167839427Y-67689240D01*
X167261012Y-67689240D01*
X167261012Y-67588646D01*
X167361606Y-67588646D01*
X167738833Y-67588646D01*
X167738833Y-67525775D01*
X167361606Y-67525775D01*
X167361606Y-67588646D01*
X167261012Y-67588646D01*
X167261012Y-67586093D01*
X167176135Y-67594696D01*
X167116832Y-67601956D01*
X167053649Y-67611579D01*
X167015814Y-67618452D01*
X166940368Y-67633607D01*
X166936674Y-67724295D01*
X166932979Y-67814982D01*
X166720319Y-67814982D01*
X166720319Y-67764685D01*
X166718656Y-67733176D01*
X166714503Y-67715663D01*
X166712829Y-67714388D01*
X166694213Y-67722454D01*
X166667017Y-67742020D01*
X166639752Y-67766144D01*
X166620933Y-67787882D01*
X166619257Y-67790708D01*
X166613584Y-67805534D01*
X166474720Y-67805534D01*
X166482538Y-67796281D01*
X166486758Y-67782804D01*
X166503981Y-67747827D01*
X166537062Y-67705779D01*
X166580307Y-67662556D01*
X166628026Y-67624054D01*
X166659370Y-67604001D01*
X166695077Y-67582051D01*
X166713381Y-67563611D01*
X166719812Y-67541868D01*
X166720306Y-67528918D01*
X166720306Y-67525775D01*
X166720319Y-67488052D01*
X166826152Y-67488052D01*
X166874845Y-67489229D01*
X166912795Y-67492365D01*
X166933892Y-67496871D01*
X166936177Y-67498695D01*
X166949559Y-67501495D01*
X166982126Y-67500348D01*
X167028284Y-67495593D01*
X167059824Y-67491203D01*
X167117012Y-67482578D01*
X167169314Y-67474791D01*
X167208618Y-67469047D01*
X167220145Y-67467415D01*
X167250263Y-67458088D01*
X167261012Y-67443472D01*
X167264280Y-67437520D01*
X167275970Y-67432978D01*
X167298912Y-67429670D01*
X167335935Y-67427415D01*
X167389868Y-67426034D01*
X167463540Y-67425350D01*
X167550220Y-67425180D01*
X167642729Y-67425277D01*
X167713106Y-67425730D01*
X167764364Y-67426790D01*
X167799520Y-67428703D01*
X167821589Y-67431719D01*
X167833585Y-67436085D01*
X167838524Y-67442049D01*
X167839427Y-67448984D01*
X167847121Y-67470995D01*
X167872321Y-67483521D01*
X167918209Y-67487988D01*
X167926464Y-67488052D01*
X168004173Y-67496068D01*
X168092433Y-67518136D01*
X168183285Y-67551284D01*
X168268770Y-67592539D01*
X168340926Y-67638931D01*
X168350272Y-67646282D01*
X168380733Y-67670198D01*
X168398772Y-67679776D01*
X168411369Y-67676680D01*
X168424300Y-67663904D01*
X168462493Y-67638878D01*
X168512198Y-67629271D01*
X168565724Y-67634267D01*
X168615378Y-67653051D01*
X168653467Y-67684806D01*
X168656225Y-67688497D01*
X168684726Y-67747775D01*
X168690028Y-67809134D01*
X168672718Y-67867627D01*
X168633380Y-67918304D01*
X168628570Y-67922489D01*
X168600640Y-67942367D01*
X168572302Y-67951121D01*
X168532463Y-67951753D01*
X168522511Y-67951192D01*
X168483532Y-67949762D01*
X168463454Y-67953039D01*
X168456185Y-67962928D01*
X168455440Y-67972161D01*
X168453916Y-67998944D01*
X168450135Y-68039225D01*
X168447418Y-68063324D01*
X168443477Y-68101601D01*
X168445116Y-68121196D01*
X168454621Y-68128358D01*
X168471551Y-68129339D01*
X168481592Y-68126101D01*
X168497790Y-68115620D01*
X168521345Y-68096748D01*
X168553457Y-68068335D01*
X168595328Y-68029235D01*
X168648157Y-67978297D01*
X168713145Y-67914373D01*
X168791491Y-67836314D01*
X168884397Y-67742972D01*
X168993063Y-67633198D01*
X169045431Y-67580152D01*
X169587249Y-67030967D01*
X169586630Y-67118048D01*
X169586011Y-67205131D01*
X169134286Y-67664091D01*
X168682561Y-68123052D01*
X168682232Y-68333671D01*
X168681903Y-68544289D01*
X168406810Y-68544289D01*
X168399722Y-68597730D01*
X168397038Y-68622088D01*
X168392513Y-68667959D01*
X168386391Y-68732605D01*
X168378912Y-68813291D01*
X168370319Y-68907281D01*
X168360854Y-69011837D01*
X168350758Y-69124225D01*
X168340274Y-69241707D01*
X168329644Y-69361548D01*
X168319109Y-69481011D01*
X168308913Y-69597359D01*
X168299295Y-69707857D01*
X168290500Y-69809769D01*
X168282768Y-69900358D01*
X168276342Y-69976887D01*
X168271463Y-70036621D01*
X168268375Y-70076824D01*
X168267317Y-70094759D01*
X168267318Y-70094844D01*
X168275027Y-70109235D01*
X168298181Y-70138948D01*
X168337095Y-70184331D01*
X168392084Y-70245729D01*
X168463464Y-70323488D01*
X168551549Y-70417954D01*
X168656654Y-70529472D01*
X168779095Y-70658388D01*
X168813510Y-70694487D01*
X169359337Y-71266616D01*
X169271081Y-71354636D01*
X169199685Y-71276958D01*
X169173566Y-71248886D01*
X169132766Y-71205474D01*
X169079977Y-71149566D01*
X169017891Y-71084008D01*
X168949200Y-71011641D01*
X168876596Y-70935312D01*
X168833160Y-70889724D01*
X168751616Y-70804319D01*
X168685704Y-70735910D01*
X168633744Y-70683253D01*
X168594055Y-70645105D01*
X168564957Y-70620220D01*
X168544769Y-70607356D01*
X168531810Y-70605268D01*
X168524400Y-70612713D01*
X168520858Y-70628446D01*
X168519503Y-70651223D01*
X168519321Y-70657439D01*
X168509903Y-70700261D01*
X168486697Y-70752019D01*
X168454336Y-70804528D01*
X168417452Y-70849603D01*
X168402693Y-70863528D01*
X168326967Y-70912247D01*
X168238508Y-70939506D01*
X168160300Y-70945973D01*
X168071668Y-70933776D01*
X167989812Y-70898013D01*
X167917364Y-70839922D01*
X167903997Y-70825462D01*
X167855118Y-70769933D01*
X167009526Y-70769933D01*
X167009526Y-70945973D01*
X166783190Y-70945973D01*
X166783190Y-70863731D01*
X166780350Y-70807586D01*
X166770807Y-70768616D01*
X166759209Y-70747419D01*
X166750923Y-70732252D01*
X166743827Y-70710262D01*
X166737452Y-70678187D01*
X166731328Y-70632769D01*
X166724984Y-70570748D01*
X166717950Y-70488862D01*
X166713134Y-70427946D01*
X166691039Y-70142543D01*
X166148635Y-70692005D01*
X166050563Y-70791428D01*
X165956416Y-70887015D01*
X165867915Y-70977010D01*
X165786780Y-71059657D01*
X165714731Y-71133201D01*
X165653488Y-71195884D01*
X165604773Y-71245952D01*
X165570304Y-71281648D01*
X165551821Y-71301195D01*
X165521457Y-71332144D01*
X165496129Y-71353730D01*
X165482505Y-71360923D01*
X165465105Y-71352497D01*
X165439740Y-71331445D01*
X165431142Y-71322871D01*
X165394686Y-71284820D01*
X165595398Y-71080858D01*
X165646604Y-71028899D01*
X165712631Y-70962020D01*
X165790582Y-70883150D01*
X165877562Y-70795214D01*
X165970674Y-70701141D01*
X166067021Y-70603858D01*
X166163708Y-70506293D01*
X166233066Y-70436345D01*
X166338497Y-70329750D01*
X166427071Y-70239507D01*
X166499919Y-70164392D01*
X166558177Y-70103186D01*
X166602975Y-70054666D01*
X166625179Y-70029329D01*
X166803476Y-70029329D01*
X166825799Y-70314755D01*
X166832531Y-70398419D01*
X166839043Y-70474927D01*
X166844966Y-70540281D01*
X166849932Y-70590481D01*
X166853571Y-70621529D01*
X166854742Y-70628473D01*
X166861362Y-70656765D01*
X167810836Y-70656765D01*
X167817174Y-70577806D01*
X167836310Y-70484515D01*
X167876354Y-70401991D01*
X167934782Y-70333238D01*
X168009071Y-70281263D01*
X168092452Y-70250063D01*
X168119502Y-70235428D01*
X168133044Y-70204019D01*
X168133328Y-70202634D01*
X168134953Y-70189374D01*
X168132944Y-70175795D01*
X168125342Y-70159381D01*
X168110184Y-70137611D01*
X168085512Y-70107967D01*
X168049364Y-70067932D01*
X167999780Y-70014985D01*
X167934799Y-69946609D01*
X167930601Y-69942205D01*
X167860707Y-69868811D01*
X167786400Y-69790637D01*
X167712786Y-69713064D01*
X167644971Y-69641475D01*
X167588060Y-69581251D01*
X167575368Y-69567787D01*
X167526713Y-69517020D01*
X167483491Y-69473575D01*
X167448805Y-69440441D01*
X167425756Y-69420605D01*
X167418018Y-69416246D01*
X167406478Y-69425370D01*
X167379490Y-69450400D01*
X167339179Y-69489252D01*
X167287671Y-69539843D01*
X167227091Y-69600088D01*
X167159564Y-69667904D01*
X167104374Y-69723765D01*
X166803476Y-70029329D01*
X166625179Y-70029329D01*
X166635449Y-70017611D01*
X166656729Y-69990799D01*
G37*
X166656729Y-69990799D02*
X166667949Y-69973008D01*
X166670446Y-69964770D01*
X166669500Y-69946790D01*
X166666627Y-69906092D01*
X166662013Y-69845019D01*
X166655842Y-69765913D01*
X166648302Y-69671114D01*
X166639579Y-69562967D01*
X166629857Y-69443812D01*
X166619324Y-69315991D01*
X166610835Y-69213835D01*
X166562804Y-68637874D01*
X166686395Y-68637874D01*
X166686927Y-68650304D01*
X166689431Y-68685310D01*
X166693704Y-68740415D01*
X166699547Y-68813143D01*
X166706757Y-68901014D01*
X166715134Y-69001551D01*
X166724477Y-69112277D01*
X166733442Y-69217405D01*
X166743598Y-69336683D01*
X166753058Y-69449280D01*
X166761604Y-69552505D01*
X166769021Y-69643673D01*
X166775092Y-69720095D01*
X166779599Y-69779083D01*
X166782327Y-69817949D01*
X166783084Y-69833044D01*
X166784265Y-69842438D01*
X166788944Y-69846166D01*
X166798924Y-69842671D01*
X166816010Y-69830399D01*
X166842004Y-69807794D01*
X166878710Y-69773300D01*
X166927933Y-69725362D01*
X166991474Y-69662424D01*
X167058895Y-69595168D01*
X167334599Y-69319677D01*
X167332667Y-69317606D01*
X167514910Y-69317606D01*
X167523216Y-69328980D01*
X167546467Y-69355763D01*
X167582335Y-69395492D01*
X167628487Y-69445707D01*
X167682594Y-69503946D01*
X167742326Y-69567747D01*
X167805352Y-69634649D01*
X167869342Y-69702190D01*
X167931964Y-69767910D01*
X167990890Y-69829346D01*
X168043788Y-69884037D01*
X168088328Y-69929522D01*
X168122180Y-69963338D01*
X168143012Y-69983026D01*
X168148694Y-69987037D01*
X168150566Y-69974091D01*
X168154454Y-69938334D01*
X168160143Y-69882004D01*
X168167419Y-69807340D01*
X168176069Y-69716580D01*
X168185878Y-69611962D01*
X168196634Y-69495726D01*
X168208121Y-69370108D01*
X168217293Y-69268818D01*
X168229026Y-69137479D01*
X168239865Y-69013752D01*
X168249630Y-68899881D01*
X168258137Y-68798111D01*
X168265205Y-68710687D01*
X168270651Y-68639853D01*
X168274292Y-68587853D01*
X168275947Y-68556932D01*
X168275758Y-68548903D01*
X168265866Y-68556054D01*
X168240676Y-68579041D01*
X168202390Y-68615639D01*
X168153211Y-68663622D01*
X168095339Y-68720766D01*
X168030978Y-68784847D01*
X167962329Y-68853638D01*
X167891595Y-68924916D01*
X167820978Y-68996455D01*
X167752680Y-69066030D01*
X167688904Y-69131417D01*
X167631850Y-69190391D01*
X167583722Y-69240727D01*
X167546722Y-69280199D01*
X167523052Y-69306583D01*
X167514910Y-69317606D01*
X167332667Y-69317606D01*
X167231791Y-69209495D01*
X167179432Y-69153577D01*
X167120665Y-69091148D01*
X167057815Y-69024643D01*
X166993205Y-68956498D01*
X166929158Y-68889148D01*
X166867997Y-68825028D01*
X166812047Y-68766572D01*
X166763630Y-68716218D01*
X166725070Y-68676398D01*
X166698691Y-68649550D01*
X166686816Y-68638108D01*
X166686395Y-68637874D01*
X166562804Y-68637874D01*
X166550799Y-68493926D01*
X165950262Y-67862358D01*
X165349725Y-67230789D01*
X165350166Y-67142515D01*
X165350608Y-67054240D01*
X165447617Y-67157866D01*
X165501909Y-67215663D01*
X165566008Y-67283568D01*
X165638184Y-67359772D01*
X165716708Y-67442469D01*
X165799851Y-67529853D01*
X165885881Y-67620115D01*
X165973070Y-67711450D01*
X166059687Y-67802049D01*
X166144003Y-67890107D01*
X166224288Y-67973815D01*
X166298813Y-68051367D01*
X166365846Y-68120957D01*
X166423659Y-68180776D01*
X166470521Y-68229018D01*
X166504704Y-68263876D01*
X166524476Y-68283543D01*
X166528810Y-68287316D01*
X166529108Y-68274192D01*
X166527469Y-68240589D01*
X166524177Y-68191080D01*
X166519518Y-68130237D01*
X166517518Y-68105932D01*
X166502623Y-67928151D01*
X166619245Y-67928151D01*
X166625266Y-67956443D01*
X166628337Y-67978818D01*
X166632652Y-68020917D01*
X166637712Y-68077378D01*
X166643019Y-68142835D01*
X166644856Y-68167062D01*
X166650273Y-68236621D01*
X166655741Y-68301218D01*
X166660712Y-68354748D01*
X166664639Y-68391110D01*
X166665525Y-68397709D01*
X166668866Y-68411256D01*
X166676099Y-68427114D01*
X166688760Y-68447061D01*
X166708389Y-68472873D01*
X166736522Y-68506329D01*
X166774698Y-68549207D01*
X166824454Y-68603283D01*
X166887329Y-68670336D01*
X166964859Y-68752143D01*
X167043949Y-68835150D01*
X167122636Y-68917294D01*
X167196088Y-68993369D01*
X167262476Y-69061525D01*
X167319973Y-69119912D01*
X167366749Y-69166681D01*
X167400976Y-69199982D01*
X167420827Y-69217967D01*
X167425060Y-69220642D01*
X167436197Y-69210941D01*
X167462229Y-69185641D01*
X167500630Y-69147282D01*
X167548872Y-69098400D01*
X167604430Y-69041534D01*
X167644608Y-69000106D01*
X167854369Y-68783200D01*
X167235863Y-68783200D01*
X167235863Y-68544289D01*
X167990319Y-68544289D01*
X167990319Y-68650742D01*
X168128635Y-68512854D01*
X168226753Y-68415040D01*
X168417843Y-68415040D01*
X168419671Y-68430470D01*
X168428923Y-68439067D01*
X168451250Y-68442813D01*
X168492305Y-68443689D01*
X168499576Y-68443695D01*
X168581309Y-68443695D01*
X168581309Y-68224372D01*
X168499576Y-68305379D01*
X168453470Y-68354628D01*
X168425894Y-68392359D01*
X168417843Y-68415040D01*
X168226753Y-68415040D01*
X168266952Y-68374966D01*
X168266952Y-68252152D01*
X168267337Y-68195650D01*
X168269100Y-68159705D01*
X168273150Y-68139730D01*
X168280399Y-68131137D01*
X168291330Y-68129339D01*
X168303488Y-68126698D01*
X168312473Y-68116112D01*
X168319374Y-68093581D01*
X168325276Y-68055109D01*
X168331265Y-67996698D01*
X168333187Y-67975304D01*
X168337348Y-67928151D01*
X166619245Y-67928151D01*
X166502623Y-67928151D01*
X166343091Y-67928151D01*
X166343091Y-67814982D01*
X166410886Y-67814982D01*
X166450538Y-67813896D01*
X166472084Y-67808654D01*
X166474720Y-67805534D01*
X166613584Y-67805534D01*
X166620892Y-67812662D01*
X166646207Y-67814862D01*
X166663292Y-67814982D01*
X166720319Y-67814982D01*
X166932979Y-67814982D01*
X168347502Y-67814982D01*
X168299658Y-67765986D01*
X168225350Y-67705524D01*
X168133384Y-67658891D01*
X168022202Y-67625449D01*
X167911729Y-67606953D01*
X167839427Y-67598322D01*
X167839427Y-67689240D01*
X167261012Y-67689240D01*
X167261012Y-67588646D01*
X167361606Y-67588646D01*
X167738833Y-67588646D01*
X167738833Y-67525775D01*
X167361606Y-67525775D01*
X167361606Y-67588646D01*
X167261012Y-67588646D01*
X167261012Y-67586093D01*
X167176135Y-67594696D01*
X167116832Y-67601956D01*
X167053649Y-67611579D01*
X167015814Y-67618452D01*
X166940368Y-67633607D01*
X166936674Y-67724295D01*
X166932979Y-67814982D01*
X166720319Y-67814982D01*
X166720319Y-67764685D01*
X166718656Y-67733176D01*
X166714503Y-67715663D01*
X166712829Y-67714388D01*
X166694213Y-67722454D01*
X166667017Y-67742020D01*
X166639752Y-67766144D01*
X166620933Y-67787882D01*
X166619257Y-67790708D01*
X166613584Y-67805534D01*
X166474720Y-67805534D01*
X166482538Y-67796281D01*
X166486758Y-67782804D01*
X166503981Y-67747827D01*
X166537062Y-67705779D01*
X166580307Y-67662556D01*
X166628026Y-67624054D01*
X166659370Y-67604001D01*
X166695077Y-67582051D01*
X166713381Y-67563611D01*
X166719812Y-67541868D01*
X166720306Y-67528918D01*
X166720306Y-67525775D01*
X166720319Y-67488052D01*
X166826152Y-67488052D01*
X166874845Y-67489229D01*
X166912795Y-67492365D01*
X166933892Y-67496871D01*
X166936177Y-67498695D01*
X166949559Y-67501495D01*
X166982126Y-67500348D01*
X167028284Y-67495593D01*
X167059824Y-67491203D01*
X167117012Y-67482578D01*
X167169314Y-67474791D01*
X167208618Y-67469047D01*
X167220145Y-67467415D01*
X167250263Y-67458088D01*
X167261012Y-67443472D01*
X167264280Y-67437520D01*
X167275970Y-67432978D01*
X167298912Y-67429670D01*
X167335935Y-67427415D01*
X167389868Y-67426034D01*
X167463540Y-67425350D01*
X167550220Y-67425180D01*
X167642729Y-67425277D01*
X167713106Y-67425730D01*
X167764364Y-67426790D01*
X167799520Y-67428703D01*
X167821589Y-67431719D01*
X167833585Y-67436085D01*
X167838524Y-67442049D01*
X167839427Y-67448984D01*
X167847121Y-67470995D01*
X167872321Y-67483521D01*
X167918209Y-67487988D01*
X167926464Y-67488052D01*
X168004173Y-67496068D01*
X168092433Y-67518136D01*
X168183285Y-67551284D01*
X168268770Y-67592539D01*
X168340926Y-67638931D01*
X168350272Y-67646282D01*
X168380733Y-67670198D01*
X168398772Y-67679776D01*
X168411369Y-67676680D01*
X168424300Y-67663904D01*
X168462493Y-67638878D01*
X168512198Y-67629271D01*
X168565724Y-67634267D01*
X168615378Y-67653051D01*
X168653467Y-67684806D01*
X168656225Y-67688497D01*
X168684726Y-67747775D01*
X168690028Y-67809134D01*
X168672718Y-67867627D01*
X168633380Y-67918304D01*
X168628570Y-67922489D01*
X168600640Y-67942367D01*
X168572302Y-67951121D01*
X168532463Y-67951753D01*
X168522511Y-67951192D01*
X168483532Y-67949762D01*
X168463454Y-67953039D01*
X168456185Y-67962928D01*
X168455440Y-67972161D01*
X168453916Y-67998944D01*
X168450135Y-68039225D01*
X168447418Y-68063324D01*
X168443477Y-68101601D01*
X168445116Y-68121196D01*
X168454621Y-68128358D01*
X168471551Y-68129339D01*
X168481592Y-68126101D01*
X168497790Y-68115620D01*
X168521345Y-68096748D01*
X168553457Y-68068335D01*
X168595328Y-68029235D01*
X168648157Y-67978297D01*
X168713145Y-67914373D01*
X168791491Y-67836314D01*
X168884397Y-67742972D01*
X168993063Y-67633198D01*
X169045431Y-67580152D01*
X169587249Y-67030967D01*
X169586630Y-67118048D01*
X169586011Y-67205131D01*
X169134286Y-67664091D01*
X168682561Y-68123052D01*
X168682232Y-68333671D01*
X168681903Y-68544289D01*
X168406810Y-68544289D01*
X168399722Y-68597730D01*
X168397038Y-68622088D01*
X168392513Y-68667959D01*
X168386391Y-68732605D01*
X168378912Y-68813291D01*
X168370319Y-68907281D01*
X168360854Y-69011837D01*
X168350758Y-69124225D01*
X168340274Y-69241707D01*
X168329644Y-69361548D01*
X168319109Y-69481011D01*
X168308913Y-69597359D01*
X168299295Y-69707857D01*
X168290500Y-69809769D01*
X168282768Y-69900358D01*
X168276342Y-69976887D01*
X168271463Y-70036621D01*
X168268375Y-70076824D01*
X168267317Y-70094759D01*
X168267318Y-70094844D01*
X168275027Y-70109235D01*
X168298181Y-70138948D01*
X168337095Y-70184331D01*
X168392084Y-70245729D01*
X168463464Y-70323488D01*
X168551549Y-70417954D01*
X168656654Y-70529472D01*
X168779095Y-70658388D01*
X168813510Y-70694487D01*
X169359337Y-71266616D01*
X169271081Y-71354636D01*
X169199685Y-71276958D01*
X169173566Y-71248886D01*
X169132766Y-71205474D01*
X169079977Y-71149566D01*
X169017891Y-71084008D01*
X168949200Y-71011641D01*
X168876596Y-70935312D01*
X168833160Y-70889724D01*
X168751616Y-70804319D01*
X168685704Y-70735910D01*
X168633744Y-70683253D01*
X168594055Y-70645105D01*
X168564957Y-70620220D01*
X168544769Y-70607356D01*
X168531810Y-70605268D01*
X168524400Y-70612713D01*
X168520858Y-70628446D01*
X168519503Y-70651223D01*
X168519321Y-70657439D01*
X168509903Y-70700261D01*
X168486697Y-70752019D01*
X168454336Y-70804528D01*
X168417452Y-70849603D01*
X168402693Y-70863528D01*
X168326967Y-70912247D01*
X168238508Y-70939506D01*
X168160300Y-70945973D01*
X168071668Y-70933776D01*
X167989812Y-70898013D01*
X167917364Y-70839922D01*
X167903997Y-70825462D01*
X167855118Y-70769933D01*
X167009526Y-70769933D01*
X167009526Y-70945973D01*
X166783190Y-70945973D01*
X166783190Y-70863731D01*
X166780350Y-70807586D01*
X166770807Y-70768616D01*
X166759209Y-70747419D01*
X166750923Y-70732252D01*
X166743827Y-70710262D01*
X166737452Y-70678187D01*
X166731328Y-70632769D01*
X166724984Y-70570748D01*
X166717950Y-70488862D01*
X166713134Y-70427946D01*
X166691039Y-70142543D01*
X166148635Y-70692005D01*
X166050563Y-70791428D01*
X165956416Y-70887015D01*
X165867915Y-70977010D01*
X165786780Y-71059657D01*
X165714731Y-71133201D01*
X165653488Y-71195884D01*
X165604773Y-71245952D01*
X165570304Y-71281648D01*
X165551821Y-71301195D01*
X165521457Y-71332144D01*
X165496129Y-71353730D01*
X165482505Y-71360923D01*
X165465105Y-71352497D01*
X165439740Y-71331445D01*
X165431142Y-71322871D01*
X165394686Y-71284820D01*
X165595398Y-71080858D01*
X165646604Y-71028899D01*
X165712631Y-70962020D01*
X165790582Y-70883150D01*
X165877562Y-70795214D01*
X165970674Y-70701141D01*
X166067021Y-70603858D01*
X166163708Y-70506293D01*
X166233066Y-70436345D01*
X166338497Y-70329750D01*
X166427071Y-70239507D01*
X166499919Y-70164392D01*
X166558177Y-70103186D01*
X166602975Y-70054666D01*
X166625179Y-70029329D01*
X166803476Y-70029329D01*
X166825799Y-70314755D01*
X166832531Y-70398419D01*
X166839043Y-70474927D01*
X166844966Y-70540281D01*
X166849932Y-70590481D01*
X166853571Y-70621529D01*
X166854742Y-70628473D01*
X166861362Y-70656765D01*
X167810836Y-70656765D01*
X167817174Y-70577806D01*
X167836310Y-70484515D01*
X167876354Y-70401991D01*
X167934782Y-70333238D01*
X168009071Y-70281263D01*
X168092452Y-70250063D01*
X168119502Y-70235428D01*
X168133044Y-70204019D01*
X168133328Y-70202634D01*
X168134953Y-70189374D01*
X168132944Y-70175795D01*
X168125342Y-70159381D01*
X168110184Y-70137611D01*
X168085512Y-70107967D01*
X168049364Y-70067932D01*
X167999780Y-70014985D01*
X167934799Y-69946609D01*
X167930601Y-69942205D01*
X167860707Y-69868811D01*
X167786400Y-69790637D01*
X167712786Y-69713064D01*
X167644971Y-69641475D01*
X167588060Y-69581251D01*
X167575368Y-69567787D01*
X167526713Y-69517020D01*
X167483491Y-69473575D01*
X167448805Y-69440441D01*
X167425756Y-69420605D01*
X167418018Y-69416246D01*
X167406478Y-69425370D01*
X167379490Y-69450400D01*
X167339179Y-69489252D01*
X167287671Y-69539843D01*
X167227091Y-69600088D01*
X167159564Y-69667904D01*
X167104374Y-69723765D01*
X166803476Y-70029329D01*
X166625179Y-70029329D01*
X166635449Y-70017611D01*
X166656729Y-69990799D01*
G36*
X128169489Y-94217773D02*
G01*
X128279226Y-94308878D01*
X128354026Y-94423978D01*
X128389896Y-94559355D01*
X128382845Y-94711287D01*
X128367355Y-94775051D01*
X128310631Y-94897300D01*
X128223998Y-95001834D01*
X128120126Y-95074180D01*
X128096804Y-95084119D01*
X128035716Y-95097754D01*
X127945347Y-95107298D01*
X127854010Y-95110549D01*
X127681318Y-95110549D01*
X127681318Y-94749470D01*
X127680854Y-94626638D01*
X127905435Y-94626638D01*
X127905868Y-94736537D01*
X127908622Y-94805252D01*
X127915879Y-94841405D01*
X127929824Y-94853615D01*
X127952638Y-94850504D01*
X127961465Y-94847894D01*
X128044400Y-94803344D01*
X128111240Y-94733279D01*
X128140611Y-94671446D01*
X128138838Y-94589301D01*
X128102210Y-94506062D01*
X128041566Y-94436238D01*
X127967744Y-94394337D01*
X127929165Y-94388392D01*
X127918709Y-94411627D01*
X127910700Y-94474710D01*
X127906127Y-94567706D01*
X127905435Y-94626638D01*
X127680854Y-94626638D01*
X127680755Y-94600546D01*
X127677336Y-94495632D01*
X127668469Y-94428937D01*
X127651559Y-94394666D01*
X127624011Y-94387028D01*
X127583232Y-94400229D01*
X127535517Y-94423877D01*
X127455886Y-94489843D01*
X127416213Y-94581512D01*
X127417505Y-94693555D01*
X127460686Y-94820472D01*
X127513976Y-94930158D01*
X127442009Y-95021173D01*
X127370043Y-95112188D01*
X127290931Y-95026563D01*
X127216183Y-94912250D01*
X127171116Y-94771666D01*
X127158504Y-94620449D01*
X127181121Y-94474236D01*
X127188795Y-94450647D01*
X127255904Y-94322141D01*
X127355953Y-94226551D01*
X127491929Y-94161861D01*
X127666820Y-94126057D01*
X127670568Y-94125640D01*
X127861168Y-94122434D01*
X127929165Y-94135393D01*
X128028805Y-94154385D01*
X128169489Y-94217773D01*
G37*
X128169489Y-94217773D02*
X128279226Y-94308878D01*
X128354026Y-94423978D01*
X128389896Y-94559355D01*
X128382845Y-94711287D01*
X128367355Y-94775051D01*
X128310631Y-94897300D01*
X128223998Y-95001834D01*
X128120126Y-95074180D01*
X128096804Y-95084119D01*
X128035716Y-95097754D01*
X127945347Y-95107298D01*
X127854010Y-95110549D01*
X127681318Y-95110549D01*
X127681318Y-94749470D01*
X127680854Y-94626638D01*
X127905435Y-94626638D01*
X127905868Y-94736537D01*
X127908622Y-94805252D01*
X127915879Y-94841405D01*
X127929824Y-94853615D01*
X127952638Y-94850504D01*
X127961465Y-94847894D01*
X128044400Y-94803344D01*
X128111240Y-94733279D01*
X128140611Y-94671446D01*
X128138838Y-94589301D01*
X128102210Y-94506062D01*
X128041566Y-94436238D01*
X127967744Y-94394337D01*
X127929165Y-94388392D01*
X127918709Y-94411627D01*
X127910700Y-94474710D01*
X127906127Y-94567706D01*
X127905435Y-94626638D01*
X127680854Y-94626638D01*
X127680755Y-94600546D01*
X127677336Y-94495632D01*
X127668469Y-94428937D01*
X127651559Y-94394666D01*
X127624011Y-94387028D01*
X127583232Y-94400229D01*
X127535517Y-94423877D01*
X127455886Y-94489843D01*
X127416213Y-94581512D01*
X127417505Y-94693555D01*
X127460686Y-94820472D01*
X127513976Y-94930158D01*
X127442009Y-95021173D01*
X127370043Y-95112188D01*
X127290931Y-95026563D01*
X127216183Y-94912250D01*
X127171116Y-94771666D01*
X127158504Y-94620449D01*
X127181121Y-94474236D01*
X127188795Y-94450647D01*
X127255904Y-94322141D01*
X127355953Y-94226551D01*
X127491929Y-94161861D01*
X127666820Y-94126057D01*
X127670568Y-94125640D01*
X127861168Y-94122434D01*
X127929165Y-94135393D01*
X128028805Y-94154385D01*
X128169489Y-94217773D01*
G36*
X126254929Y-92901520D02*
G01*
X126373131Y-92973635D01*
X126453760Y-93076273D01*
X126498061Y-93210332D01*
X126506593Y-93282957D01*
X126504416Y-93433307D01*
X126473469Y-93552337D01*
X126409600Y-93652021D01*
X126361887Y-93700288D01*
X126249094Y-93779408D01*
X126118250Y-93824752D01*
X125957408Y-93840330D01*
X125944406Y-93840410D01*
X125813670Y-93840549D01*
X125813670Y-93330058D01*
X126012886Y-93330058D01*
X126013651Y-93440040D01*
X126017230Y-93509457D01*
X126025551Y-93547538D01*
X126040543Y-93563515D01*
X126062297Y-93566627D01*
X126129308Y-93545278D01*
X126195536Y-93491529D01*
X126246368Y-93420822D01*
X126267162Y-93350089D01*
X126248716Y-93254016D01*
X126195389Y-93170849D01*
X126118523Y-93113186D01*
X126036167Y-93093490D01*
X126026162Y-93116584D01*
X126018312Y-93178662D01*
X126013679Y-93268914D01*
X126012886Y-93330058D01*
X125813670Y-93330058D01*
X125813670Y-93088091D01*
X125745190Y-93104130D01*
X125683169Y-93133091D01*
X125618546Y-93183778D01*
X125608229Y-93194379D01*
X125552395Y-93285494D01*
X125542925Y-93389400D01*
X125579660Y-93509000D01*
X125589553Y-93529274D01*
X125619626Y-93591456D01*
X125636760Y-93633106D01*
X125638345Y-93640373D01*
X125622958Y-93665740D01*
X125585313Y-93714120D01*
X125564741Y-93738679D01*
X125517486Y-93789570D01*
X125486283Y-93806281D01*
X125457580Y-93794683D01*
X125449732Y-93788483D01*
X125415381Y-93746493D01*
X125373635Y-93677206D01*
X125349265Y-93628882D01*
X125306327Y-93491711D01*
X125292414Y-93339847D01*
X125308900Y-93196024D01*
X125320704Y-93155745D01*
X125387511Y-93031078D01*
X125490308Y-92938671D01*
X125630095Y-92877990D01*
X125807870Y-92848498D01*
X125900827Y-92845260D01*
X126036167Y-92854714D01*
X126097909Y-92859028D01*
X126254929Y-92901520D01*
G37*
X126254929Y-92901520D02*
X126373131Y-92973635D01*
X126453760Y-93076273D01*
X126498061Y-93210332D01*
X126506593Y-93282957D01*
X126504416Y-93433307D01*
X126473469Y-93552337D01*
X126409600Y-93652021D01*
X126361887Y-93700288D01*
X126249094Y-93779408D01*
X126118250Y-93824752D01*
X125957408Y-93840330D01*
X125944406Y-93840410D01*
X125813670Y-93840549D01*
X125813670Y-93330058D01*
X126012886Y-93330058D01*
X126013651Y-93440040D01*
X126017230Y-93509457D01*
X126025551Y-93547538D01*
X126040543Y-93563515D01*
X126062297Y-93566627D01*
X126129308Y-93545278D01*
X126195536Y-93491529D01*
X126246368Y-93420822D01*
X126267162Y-93350089D01*
X126248716Y-93254016D01*
X126195389Y-93170849D01*
X126118523Y-93113186D01*
X126036167Y-93093490D01*
X126026162Y-93116584D01*
X126018312Y-93178662D01*
X126013679Y-93268914D01*
X126012886Y-93330058D01*
X125813670Y-93330058D01*
X125813670Y-93088091D01*
X125745190Y-93104130D01*
X125683169Y-93133091D01*
X125618546Y-93183778D01*
X125608229Y-93194379D01*
X125552395Y-93285494D01*
X125542925Y-93389400D01*
X125579660Y-93509000D01*
X125589553Y-93529274D01*
X125619626Y-93591456D01*
X125636760Y-93633106D01*
X125638345Y-93640373D01*
X125622958Y-93665740D01*
X125585313Y-93714120D01*
X125564741Y-93738679D01*
X125517486Y-93789570D01*
X125486283Y-93806281D01*
X125457580Y-93794683D01*
X125449732Y-93788483D01*
X125415381Y-93746493D01*
X125373635Y-93677206D01*
X125349265Y-93628882D01*
X125306327Y-93491711D01*
X125292414Y-93339847D01*
X125308900Y-93196024D01*
X125320704Y-93155745D01*
X125387511Y-93031078D01*
X125490308Y-92938671D01*
X125630095Y-92877990D01*
X125807870Y-92848498D01*
X125900827Y-92845260D01*
X126036167Y-92854714D01*
X126097909Y-92859028D01*
X126254929Y-92901520D01*
G36*
X127980919Y-93122865D02*
G01*
X128100282Y-93159255D01*
X128112520Y-93164987D01*
X128232545Y-93249865D01*
X128319933Y-93364782D01*
X128372871Y-93500659D01*
X128389546Y-93648417D01*
X128368144Y-93798976D01*
X128306852Y-93943256D01*
X128277015Y-93988699D01*
X128231164Y-94046779D01*
X128195111Y-94083238D01*
X128183368Y-94089568D01*
X128157311Y-94071693D01*
X128113095Y-94025950D01*
X128082235Y-93989328D01*
X128001680Y-93889088D01*
X128068282Y-93809935D01*
X128111279Y-93748769D01*
X128126121Y-93689129D01*
X128122496Y-93620872D01*
X128095548Y-93512482D01*
X128039613Y-93437872D01*
X127949186Y-93392530D01*
X127818765Y-93371947D01*
X127818683Y-93371942D01*
X127672910Y-93373722D01*
X127565955Y-93401387D01*
X127493136Y-93456571D01*
X127468477Y-93494192D01*
X127437769Y-93594105D01*
X127437751Y-93700822D01*
X127467545Y-93793669D01*
X127482102Y-93815647D01*
X127519286Y-93870765D01*
X127525380Y-93913859D01*
X127497704Y-93960335D01*
X127447995Y-94011716D01*
X127364084Y-94093046D01*
X127289654Y-94002749D01*
X127205651Y-93863236D01*
X127164253Y-93705912D01*
X127167250Y-93541503D01*
X127194700Y-93433531D01*
X127262580Y-93307331D01*
X127369369Y-93206401D01*
X127444749Y-93160548D01*
X127552903Y-93123410D01*
X127689882Y-93104827D01*
X127838336Y-93104684D01*
X127980919Y-93122865D01*
G37*
X127980919Y-93122865D02*
X128100282Y-93159255D01*
X128112520Y-93164987D01*
X128232545Y-93249865D01*
X128319933Y-93364782D01*
X128372871Y-93500659D01*
X128389546Y-93648417D01*
X128368144Y-93798976D01*
X128306852Y-93943256D01*
X128277015Y-93988699D01*
X128231164Y-94046779D01*
X128195111Y-94083238D01*
X128183368Y-94089568D01*
X128157311Y-94071693D01*
X128113095Y-94025950D01*
X128082235Y-93989328D01*
X128001680Y-93889088D01*
X128068282Y-93809935D01*
X128111279Y-93748769D01*
X128126121Y-93689129D01*
X128122496Y-93620872D01*
X128095548Y-93512482D01*
X128039613Y-93437872D01*
X127949186Y-93392530D01*
X127818765Y-93371947D01*
X127818683Y-93371942D01*
X127672910Y-93373722D01*
X127565955Y-93401387D01*
X127493136Y-93456571D01*
X127468477Y-93494192D01*
X127437769Y-93594105D01*
X127437751Y-93700822D01*
X127467545Y-93793669D01*
X127482102Y-93815647D01*
X127519286Y-93870765D01*
X127525380Y-93913859D01*
X127497704Y-93960335D01*
X127447995Y-94011716D01*
X127364084Y-94093046D01*
X127289654Y-94002749D01*
X127205651Y-93863236D01*
X127164253Y-93705912D01*
X127167250Y-93541503D01*
X127194700Y-93433531D01*
X127262580Y-93307331D01*
X127369369Y-93206401D01*
X127444749Y-93160548D01*
X127552903Y-93123410D01*
X127689882Y-93104827D01*
X127838336Y-93104684D01*
X127980919Y-93122865D01*
G36*
X127983600Y-83736260D02*
G01*
X128070833Y-83751283D01*
X128139670Y-83778376D01*
X128200463Y-83819600D01*
X128218514Y-83834885D01*
X128308454Y-83930454D01*
X128360989Y-84032961D01*
X128382999Y-84158321D01*
X128384798Y-84219450D01*
X128365632Y-84381247D01*
X128308037Y-84511522D01*
X128211866Y-84610419D01*
X128076971Y-84678082D01*
X127903204Y-84714655D01*
X127876074Y-84717276D01*
X127684792Y-84719330D01*
X127517127Y-84692699D01*
X127381233Y-84639001D01*
X127337519Y-84610247D01*
X127245002Y-84510091D01*
X127185081Y-84382537D01*
X127162686Y-84254020D01*
X127431867Y-84254020D01*
X127469524Y-84344942D01*
X127511721Y-84390402D01*
X127554244Y-84423162D01*
X127594933Y-84442323D01*
X127647886Y-84450733D01*
X127727203Y-84451237D01*
X127800250Y-84448645D01*
X127904599Y-84443071D01*
X127972280Y-84434234D01*
X128016426Y-84418307D01*
X128050169Y-84391462D01*
X128069454Y-84370189D01*
X128120114Y-84281206D01*
X128122640Y-84185211D01*
X128092633Y-84104719D01*
X128029969Y-84036053D01*
X127927032Y-83995144D01*
X127783256Y-83981814D01*
X127712852Y-83984247D01*
X127619132Y-83993080D01*
X127558986Y-84008664D01*
X127516194Y-84036766D01*
X127491198Y-84063086D01*
X127438862Y-84156392D01*
X127431867Y-84254020D01*
X127162686Y-84254020D01*
X127160215Y-84239837D01*
X127172861Y-84094240D01*
X127211809Y-83983562D01*
X127277445Y-83888384D01*
X127363501Y-83810594D01*
X127365515Y-83809249D01*
X127418630Y-83777657D01*
X127472040Y-83757127D01*
X127539446Y-83744695D01*
X127634547Y-83737397D01*
X127712534Y-83734182D01*
X127783256Y-83732844D01*
X127867618Y-83731246D01*
X127983600Y-83736260D01*
G37*
X127983600Y-83736260D02*
X128070833Y-83751283D01*
X128139670Y-83778376D01*
X128200463Y-83819600D01*
X128218514Y-83834885D01*
X128308454Y-83930454D01*
X128360989Y-84032961D01*
X128382999Y-84158321D01*
X128384798Y-84219450D01*
X128365632Y-84381247D01*
X128308037Y-84511522D01*
X128211866Y-84610419D01*
X128076971Y-84678082D01*
X127903204Y-84714655D01*
X127876074Y-84717276D01*
X127684792Y-84719330D01*
X127517127Y-84692699D01*
X127381233Y-84639001D01*
X127337519Y-84610247D01*
X127245002Y-84510091D01*
X127185081Y-84382537D01*
X127162686Y-84254020D01*
X127431867Y-84254020D01*
X127469524Y-84344942D01*
X127511721Y-84390402D01*
X127554244Y-84423162D01*
X127594933Y-84442323D01*
X127647886Y-84450733D01*
X127727203Y-84451237D01*
X127800250Y-84448645D01*
X127904599Y-84443071D01*
X127972280Y-84434234D01*
X128016426Y-84418307D01*
X128050169Y-84391462D01*
X128069454Y-84370189D01*
X128120114Y-84281206D01*
X128122640Y-84185211D01*
X128092633Y-84104719D01*
X128029969Y-84036053D01*
X127927032Y-83995144D01*
X127783256Y-83981814D01*
X127712852Y-83984247D01*
X127619132Y-83993080D01*
X127558986Y-84008664D01*
X127516194Y-84036766D01*
X127491198Y-84063086D01*
X127438862Y-84156392D01*
X127431867Y-84254020D01*
X127162686Y-84254020D01*
X127160215Y-84239837D01*
X127172861Y-84094240D01*
X127211809Y-83983562D01*
X127277445Y-83888384D01*
X127363501Y-83810594D01*
X127365515Y-83809249D01*
X127418630Y-83777657D01*
X127472040Y-83757127D01*
X127539446Y-83744695D01*
X127634547Y-83737397D01*
X127712534Y-83734182D01*
X127783256Y-83732844D01*
X127867618Y-83731246D01*
X127983600Y-83736260D01*
G36*
X128378572Y-85037705D02*
G01*
X128375321Y-85119935D01*
X128363774Y-85162360D01*
X128341248Y-85174661D01*
X128340580Y-85174666D01*
X128318519Y-85180374D01*
X128321024Y-85205547D01*
X128345265Y-85255598D01*
X128382349Y-85372219D01*
X128386247Y-85503429D01*
X128357640Y-85627909D01*
X128331701Y-85680412D01*
X128286500Y-85745158D01*
X128237209Y-85792347D01*
X128175315Y-85824665D01*
X128092304Y-85844797D01*
X127979662Y-85855430D01*
X127828876Y-85859247D01*
X127764051Y-85859470D01*
X127621979Y-85858818D01*
X127520443Y-85856112D01*
X127450185Y-85850224D01*
X127401944Y-85840027D01*
X127366462Y-85824394D01*
X127342257Y-85808128D01*
X127239271Y-85704295D01*
X127177326Y-85582021D01*
X127158694Y-85450114D01*
X127171648Y-85386333D01*
X127432298Y-85386333D01*
X127439046Y-85464386D01*
X127465606Y-85516189D01*
X127500701Y-85548583D01*
X127538448Y-85574084D01*
X127580500Y-85589265D01*
X127639421Y-85596019D01*
X127727772Y-85596241D01*
X127801752Y-85593968D01*
X127913200Y-85588749D01*
X127986367Y-85580979D01*
X128032778Y-85567895D01*
X128063956Y-85546732D01*
X128081977Y-85526760D01*
X128121275Y-85443314D01*
X128127621Y-85344551D01*
X128114084Y-85287841D01*
X128065967Y-85231692D01*
X127972367Y-85194499D01*
X127833946Y-85176472D01*
X127760618Y-85174666D01*
X127622777Y-85181650D01*
X127527093Y-85205182D01*
X127467559Y-85249135D01*
X127438171Y-85317382D01*
X127432298Y-85386333D01*
X127171648Y-85386333D01*
X127185651Y-85317384D01*
X127204714Y-85275333D01*
X127257185Y-85174666D01*
X126434941Y-85174666D01*
X126472933Y-85248135D01*
X126502328Y-85344941D01*
X126509858Y-85463928D01*
X126495955Y-85582745D01*
X126464724Y-85672473D01*
X126405246Y-85746899D01*
X126320134Y-85810490D01*
X126311395Y-85815271D01*
X126270234Y-85835437D01*
X126228746Y-85850165D01*
X126178487Y-85860303D01*
X126111016Y-85866699D01*
X126017891Y-85870201D01*
X125890669Y-85871658D01*
X125747499Y-85871921D01*
X125290729Y-85871921D01*
X125290729Y-85598000D01*
X126132969Y-85598000D01*
X126197437Y-85521383D01*
X126249006Y-85441793D01*
X126258382Y-85366422D01*
X126234253Y-85290633D01*
X126210626Y-85250241D01*
X126176973Y-85220179D01*
X126126113Y-85198797D01*
X126050866Y-85184450D01*
X125944054Y-85175490D01*
X125798496Y-85170270D01*
X125701612Y-85168431D01*
X125303180Y-85162215D01*
X125295653Y-85031480D01*
X125288127Y-84900745D01*
X128378572Y-84900745D01*
X128378572Y-85037705D01*
G37*
X128378572Y-85037705D02*
X128375321Y-85119935D01*
X128363774Y-85162360D01*
X128341248Y-85174661D01*
X128340580Y-85174666D01*
X128318519Y-85180374D01*
X128321024Y-85205547D01*
X128345265Y-85255598D01*
X128382349Y-85372219D01*
X128386247Y-85503429D01*
X128357640Y-85627909D01*
X128331701Y-85680412D01*
X128286500Y-85745158D01*
X128237209Y-85792347D01*
X128175315Y-85824665D01*
X128092304Y-85844797D01*
X127979662Y-85855430D01*
X127828876Y-85859247D01*
X127764051Y-85859470D01*
X127621979Y-85858818D01*
X127520443Y-85856112D01*
X127450185Y-85850224D01*
X127401944Y-85840027D01*
X127366462Y-85824394D01*
X127342257Y-85808128D01*
X127239271Y-85704295D01*
X127177326Y-85582021D01*
X127158694Y-85450114D01*
X127171648Y-85386333D01*
X127432298Y-85386333D01*
X127439046Y-85464386D01*
X127465606Y-85516189D01*
X127500701Y-85548583D01*
X127538448Y-85574084D01*
X127580500Y-85589265D01*
X127639421Y-85596019D01*
X127727772Y-85596241D01*
X127801752Y-85593968D01*
X127913200Y-85588749D01*
X127986367Y-85580979D01*
X128032778Y-85567895D01*
X128063956Y-85546732D01*
X128081977Y-85526760D01*
X128121275Y-85443314D01*
X128127621Y-85344551D01*
X128114084Y-85287841D01*
X128065967Y-85231692D01*
X127972367Y-85194499D01*
X127833946Y-85176472D01*
X127760618Y-85174666D01*
X127622777Y-85181650D01*
X127527093Y-85205182D01*
X127467559Y-85249135D01*
X127438171Y-85317382D01*
X127432298Y-85386333D01*
X127171648Y-85386333D01*
X127185651Y-85317384D01*
X127204714Y-85275333D01*
X127257185Y-85174666D01*
X126434941Y-85174666D01*
X126472933Y-85248135D01*
X126502328Y-85344941D01*
X126509858Y-85463928D01*
X126495955Y-85582745D01*
X126464724Y-85672473D01*
X126405246Y-85746899D01*
X126320134Y-85810490D01*
X126311395Y-85815271D01*
X126270234Y-85835437D01*
X126228746Y-85850165D01*
X126178487Y-85860303D01*
X126111016Y-85866699D01*
X126017891Y-85870201D01*
X125890669Y-85871658D01*
X125747499Y-85871921D01*
X125290729Y-85871921D01*
X125290729Y-85598000D01*
X126132969Y-85598000D01*
X126197437Y-85521383D01*
X126249006Y-85441793D01*
X126258382Y-85366422D01*
X126234253Y-85290633D01*
X126210626Y-85250241D01*
X126176973Y-85220179D01*
X126126113Y-85198797D01*
X126050866Y-85184450D01*
X125944054Y-85175490D01*
X125798496Y-85170270D01*
X125701612Y-85168431D01*
X125303180Y-85162215D01*
X125295653Y-85031480D01*
X125288127Y-84900745D01*
X128378572Y-84900745D01*
X128378572Y-85037705D01*
G36*
X126499432Y-89119788D02*
G01*
X126507445Y-89157297D01*
X126506643Y-89235355D01*
X126506037Y-89247574D01*
X126498474Y-89392326D01*
X126149847Y-89487130D01*
X126022703Y-89521977D01*
X125910935Y-89553117D01*
X125824247Y-89577809D01*
X125772344Y-89593312D01*
X125763882Y-89596176D01*
X125773613Y-89608046D01*
X125824028Y-89631983D01*
X125908265Y-89665239D01*
X126019459Y-89705064D01*
X126119903Y-89738730D01*
X126513261Y-89867041D01*
X126505868Y-89965528D01*
X126498474Y-90064014D01*
X126112494Y-90192776D01*
X125726514Y-90321537D01*
X125863474Y-90361911D01*
X125948117Y-90386207D01*
X126062503Y-90418167D01*
X126188237Y-90452679D01*
X126255680Y-90470928D01*
X126510925Y-90539571D01*
X126510925Y-90822773D01*
X126243229Y-90738122D01*
X126111562Y-90696435D01*
X125952742Y-90646074D01*
X125787072Y-90593481D01*
X125639357Y-90546530D01*
X125303180Y-90439589D01*
X125288156Y-90208661D01*
X125494884Y-90146050D01*
X125623304Y-90107438D01*
X125764878Y-90065300D01*
X125889915Y-90028472D01*
X125894891Y-90027018D01*
X125979614Y-89999511D01*
X126037422Y-89975242D01*
X126059282Y-89958243D01*
X126056754Y-89954750D01*
X126022864Y-89942490D01*
X125950270Y-89919195D01*
X125848099Y-89887700D01*
X125725480Y-89850842D01*
X125658033Y-89830899D01*
X125290729Y-89722895D01*
X125290729Y-89493679D01*
X125869700Y-89310439D01*
X126032109Y-89258963D01*
X126179598Y-89212070D01*
X126305240Y-89171977D01*
X126402105Y-89140897D01*
X126463266Y-89121045D01*
X126481135Y-89115011D01*
X126499432Y-89119788D01*
G37*
X126499432Y-89119788D02*
X126507445Y-89157297D01*
X126506643Y-89235355D01*
X126506037Y-89247574D01*
X126498474Y-89392326D01*
X126149847Y-89487130D01*
X126022703Y-89521977D01*
X125910935Y-89553117D01*
X125824247Y-89577809D01*
X125772344Y-89593312D01*
X125763882Y-89596176D01*
X125773613Y-89608046D01*
X125824028Y-89631983D01*
X125908265Y-89665239D01*
X126019459Y-89705064D01*
X126119903Y-89738730D01*
X126513261Y-89867041D01*
X126505868Y-89965528D01*
X126498474Y-90064014D01*
X126112494Y-90192776D01*
X125726514Y-90321537D01*
X125863474Y-90361911D01*
X125948117Y-90386207D01*
X126062503Y-90418167D01*
X126188237Y-90452679D01*
X126255680Y-90470928D01*
X126510925Y-90539571D01*
X126510925Y-90822773D01*
X126243229Y-90738122D01*
X126111562Y-90696435D01*
X125952742Y-90646074D01*
X125787072Y-90593481D01*
X125639357Y-90546530D01*
X125303180Y-90439589D01*
X125288156Y-90208661D01*
X125494884Y-90146050D01*
X125623304Y-90107438D01*
X125764878Y-90065300D01*
X125889915Y-90028472D01*
X125894891Y-90027018D01*
X125979614Y-89999511D01*
X126037422Y-89975242D01*
X126059282Y-89958243D01*
X126056754Y-89954750D01*
X126022864Y-89942490D01*
X125950270Y-89919195D01*
X125848099Y-89887700D01*
X125725480Y-89850842D01*
X125658033Y-89830899D01*
X125290729Y-89722895D01*
X125290729Y-89493679D01*
X125869700Y-89310439D01*
X126032109Y-89258963D01*
X126179598Y-89212070D01*
X126305240Y-89171977D01*
X126402105Y-89140897D01*
X126463266Y-89121045D01*
X126481135Y-89115011D01*
X126499432Y-89119788D01*
G36*
X125850345Y-90866880D02*
G01*
X125926915Y-90928196D01*
X125960019Y-90965332D01*
X125981775Y-91001687D01*
X125995039Y-91048990D01*
X126002672Y-91118973D01*
X126007530Y-91223364D01*
X126008927Y-91264770D01*
X126017420Y-91524666D01*
X126096084Y-91524285D01*
X126178772Y-91514219D01*
X126228769Y-91477829D01*
X126260711Y-91404311D01*
X126261280Y-91402339D01*
X126273839Y-91298105D01*
X126257434Y-91196108D01*
X126217543Y-91120305D01*
X126197846Y-91089890D01*
X126200571Y-91057132D01*
X126229109Y-91006721D01*
X126249250Y-90977119D01*
X126292281Y-90919218D01*
X126324538Y-90883352D01*
X126333773Y-90877597D01*
X126381564Y-90901295D01*
X126438638Y-90971313D01*
X126457895Y-91001725D01*
X126491060Y-91089155D01*
X126509850Y-91206983D01*
X126514071Y-91337866D01*
X126503531Y-91464459D01*
X126478037Y-91569420D01*
X126464531Y-91599761D01*
X126429154Y-91658573D01*
X126389310Y-91703709D01*
X126338080Y-91737106D01*
X126268546Y-91760701D01*
X126173791Y-91776433D01*
X126046895Y-91786239D01*
X125880942Y-91792057D01*
X125770092Y-91794266D01*
X125290729Y-91802396D01*
X125290729Y-91663531D01*
X125294262Y-91579287D01*
X125306334Y-91535884D01*
X125326606Y-91524666D01*
X125348526Y-91518744D01*
X125344335Y-91492266D01*
X125326759Y-91456186D01*
X125299818Y-91365862D01*
X125296123Y-91306774D01*
X125541434Y-91306774D01*
X125548580Y-91398782D01*
X125576352Y-91459941D01*
X125589553Y-91474862D01*
X125661371Y-91515287D01*
X125726514Y-91524666D01*
X125813670Y-91524666D01*
X125813670Y-91403269D01*
X125806478Y-91262153D01*
X125783855Y-91163173D01*
X125744236Y-91100633D01*
X125726572Y-91086631D01*
X125659078Y-91062633D01*
X125604418Y-91084229D01*
X125565248Y-91148259D01*
X125544226Y-91251565D01*
X125541434Y-91306774D01*
X125296123Y-91306774D01*
X125292558Y-91249777D01*
X125304433Y-91127680D01*
X125334895Y-91019321D01*
X125339123Y-91009602D01*
X125408695Y-90910568D01*
X125505411Y-90845281D01*
X125618462Y-90815240D01*
X125659078Y-90817535D01*
X125737043Y-90821941D01*
X125850345Y-90866880D01*
G37*
X125850345Y-90866880D02*
X125926915Y-90928196D01*
X125960019Y-90965332D01*
X125981775Y-91001687D01*
X125995039Y-91048990D01*
X126002672Y-91118973D01*
X126007530Y-91223364D01*
X126008927Y-91264770D01*
X126017420Y-91524666D01*
X126096084Y-91524285D01*
X126178772Y-91514219D01*
X126228769Y-91477829D01*
X126260711Y-91404311D01*
X126261280Y-91402339D01*
X126273839Y-91298105D01*
X126257434Y-91196108D01*
X126217543Y-91120305D01*
X126197846Y-91089890D01*
X126200571Y-91057132D01*
X126229109Y-91006721D01*
X126249250Y-90977119D01*
X126292281Y-90919218D01*
X126324538Y-90883352D01*
X126333773Y-90877597D01*
X126381564Y-90901295D01*
X126438638Y-90971313D01*
X126457895Y-91001725D01*
X126491060Y-91089155D01*
X126509850Y-91206983D01*
X126514071Y-91337866D01*
X126503531Y-91464459D01*
X126478037Y-91569420D01*
X126464531Y-91599761D01*
X126429154Y-91658573D01*
X126389310Y-91703709D01*
X126338080Y-91737106D01*
X126268546Y-91760701D01*
X126173791Y-91776433D01*
X126046895Y-91786239D01*
X125880942Y-91792057D01*
X125770092Y-91794266D01*
X125290729Y-91802396D01*
X125290729Y-91663531D01*
X125294262Y-91579287D01*
X125306334Y-91535884D01*
X125326606Y-91524666D01*
X125348526Y-91518744D01*
X125344335Y-91492266D01*
X125326759Y-91456186D01*
X125299818Y-91365862D01*
X125296123Y-91306774D01*
X125541434Y-91306774D01*
X125548580Y-91398782D01*
X125576352Y-91459941D01*
X125589553Y-91474862D01*
X125661371Y-91515287D01*
X125726514Y-91524666D01*
X125813670Y-91524666D01*
X125813670Y-91403269D01*
X125806478Y-91262153D01*
X125783855Y-91163173D01*
X125744236Y-91100633D01*
X125726572Y-91086631D01*
X125659078Y-91062633D01*
X125604418Y-91084229D01*
X125565248Y-91148259D01*
X125544226Y-91251565D01*
X125541434Y-91306774D01*
X125296123Y-91306774D01*
X125292558Y-91249777D01*
X125304433Y-91127680D01*
X125334895Y-91019321D01*
X125339123Y-91009602D01*
X125408695Y-90910568D01*
X125505411Y-90845281D01*
X125618462Y-90815240D01*
X125659078Y-90817535D01*
X125737043Y-90821941D01*
X125850345Y-90866880D01*
G36*
X128378572Y-87328686D02*
G01*
X128375321Y-87410916D01*
X128363774Y-87453340D01*
X128341248Y-87465641D01*
X128340580Y-87465647D01*
X128318519Y-87471354D01*
X128321023Y-87496527D01*
X128345263Y-87546578D01*
X128380929Y-87660094D01*
X128384895Y-87789945D01*
X128358001Y-87914760D01*
X128328398Y-87976736D01*
X128285639Y-88036759D01*
X128236425Y-88082486D01*
X128173656Y-88115793D01*
X128090229Y-88138555D01*
X127979041Y-88152647D01*
X127832991Y-88159942D01*
X127644977Y-88162318D01*
X127625288Y-88162355D01*
X127183278Y-88162902D01*
X127183278Y-87888980D01*
X127590765Y-87888980D01*
X127741729Y-87888785D01*
X127851144Y-87887436D01*
X127927267Y-87883788D01*
X127978352Y-87876696D01*
X128012655Y-87865013D01*
X128038432Y-87847594D01*
X128063902Y-87823329D01*
X128118629Y-87738435D01*
X128128784Y-87645761D01*
X128094183Y-87557473D01*
X128068430Y-87526770D01*
X128044218Y-87504229D01*
X128018288Y-87488046D01*
X127982492Y-87477168D01*
X127928681Y-87470542D01*
X127848707Y-87467115D01*
X127734421Y-87465834D01*
X127595293Y-87465647D01*
X127183278Y-87465647D01*
X127183278Y-87191725D01*
X128378572Y-87191725D01*
X128378572Y-87328686D01*
G37*
X128378572Y-87328686D02*
X128375321Y-87410916D01*
X128363774Y-87453340D01*
X128341248Y-87465641D01*
X128340580Y-87465647D01*
X128318519Y-87471354D01*
X128321023Y-87496527D01*
X128345263Y-87546578D01*
X128380929Y-87660094D01*
X128384895Y-87789945D01*
X128358001Y-87914760D01*
X128328398Y-87976736D01*
X128285639Y-88036759D01*
X128236425Y-88082486D01*
X128173656Y-88115793D01*
X128090229Y-88138555D01*
X127979041Y-88152647D01*
X127832991Y-88159942D01*
X127644977Y-88162318D01*
X127625288Y-88162355D01*
X127183278Y-88162902D01*
X127183278Y-87888980D01*
X127590765Y-87888980D01*
X127741729Y-87888785D01*
X127851144Y-87887436D01*
X127927267Y-87883788D01*
X127978352Y-87876696D01*
X128012655Y-87865013D01*
X128038432Y-87847594D01*
X128063902Y-87823329D01*
X128118629Y-87738435D01*
X128128784Y-87645761D01*
X128094183Y-87557473D01*
X128068430Y-87526770D01*
X128044218Y-87504229D01*
X128018288Y-87488046D01*
X127982492Y-87477168D01*
X127928681Y-87470542D01*
X127848707Y-87467115D01*
X127734421Y-87465834D01*
X127595293Y-87465647D01*
X127183278Y-87465647D01*
X127183278Y-87191725D01*
X128378572Y-87191725D01*
X128378572Y-87328686D01*
G36*
X128077777Y-89973180D02*
G01*
X128212386Y-90039802D01*
X128309160Y-90138799D01*
X128368106Y-90270175D01*
X128374941Y-90298385D01*
X128390987Y-90467926D01*
X128363836Y-90617547D01*
X128295241Y-90743502D01*
X128186955Y-90842047D01*
X128098885Y-90888478D01*
X128021099Y-90908412D01*
X127910207Y-90921328D01*
X127782462Y-90926863D01*
X127654116Y-90924654D01*
X127541421Y-90914337D01*
X127481231Y-90902286D01*
X127398889Y-90861634D01*
X127311430Y-90791230D01*
X127234949Y-90706382D01*
X127185545Y-90622397D01*
X127184761Y-90620349D01*
X127163173Y-90516134D01*
X127162638Y-90392627D01*
X127163873Y-90385251D01*
X127434935Y-90385251D01*
X127439089Y-90474494D01*
X127459278Y-90551650D01*
X127470385Y-90571883D01*
X127535077Y-90625265D01*
X127634081Y-90660500D01*
X127754568Y-90675498D01*
X127883706Y-90668172D01*
X127961425Y-90651799D01*
X128051429Y-90604790D01*
X128107691Y-90530582D01*
X128127143Y-90441209D01*
X128106719Y-90348707D01*
X128056763Y-90277653D01*
X128015545Y-90240312D01*
X127974919Y-90218518D01*
X127919936Y-90208130D01*
X127835651Y-90205006D01*
X127794055Y-90204862D01*
X127649555Y-90213854D01*
X127539440Y-90239736D01*
X127469084Y-90280868D01*
X127448965Y-90310172D01*
X127434935Y-90385251D01*
X127163873Y-90385251D01*
X127182292Y-90275261D01*
X127198045Y-90229942D01*
X127264234Y-90113220D01*
X127350954Y-90029624D01*
X127465762Y-89974701D01*
X127616218Y-89943995D01*
X127695027Y-89937047D01*
X127794055Y-89937933D01*
X127905326Y-89938930D01*
X128077777Y-89973180D01*
G37*
X128077777Y-89973180D02*
X128212386Y-90039802D01*
X128309160Y-90138799D01*
X128368106Y-90270175D01*
X128374941Y-90298385D01*
X128390987Y-90467926D01*
X128363836Y-90617547D01*
X128295241Y-90743502D01*
X128186955Y-90842047D01*
X128098885Y-90888478D01*
X128021099Y-90908412D01*
X127910207Y-90921328D01*
X127782462Y-90926863D01*
X127654116Y-90924654D01*
X127541421Y-90914337D01*
X127481231Y-90902286D01*
X127398889Y-90861634D01*
X127311430Y-90791230D01*
X127234949Y-90706382D01*
X127185545Y-90622397D01*
X127184761Y-90620349D01*
X127163173Y-90516134D01*
X127162638Y-90392627D01*
X127163873Y-90385251D01*
X127434935Y-90385251D01*
X127439089Y-90474494D01*
X127459278Y-90551650D01*
X127470385Y-90571883D01*
X127535077Y-90625265D01*
X127634081Y-90660500D01*
X127754568Y-90675498D01*
X127883706Y-90668172D01*
X127961425Y-90651799D01*
X128051429Y-90604790D01*
X128107691Y-90530582D01*
X128127143Y-90441209D01*
X128106719Y-90348707D01*
X128056763Y-90277653D01*
X128015545Y-90240312D01*
X127974919Y-90218518D01*
X127919936Y-90208130D01*
X127835651Y-90205006D01*
X127794055Y-90204862D01*
X127649555Y-90213854D01*
X127539440Y-90239736D01*
X127469084Y-90280868D01*
X127448965Y-90310172D01*
X127434935Y-90385251D01*
X127163873Y-90385251D01*
X127182292Y-90275261D01*
X127198045Y-90229942D01*
X127264234Y-90113220D01*
X127350954Y-90029624D01*
X127465762Y-89974701D01*
X127616218Y-89943995D01*
X127695027Y-89937047D01*
X127794055Y-89937933D01*
X127905326Y-89938930D01*
X128077777Y-89973180D01*
G36*
X128177739Y-86108590D02*
G01*
X128255739Y-86172421D01*
X128340318Y-86290433D01*
X128385514Y-86429158D01*
X128389600Y-86576710D01*
X128350846Y-86721204D01*
X128339163Y-86746019D01*
X128276249Y-86831906D01*
X128184431Y-86913121D01*
X128083332Y-86973764D01*
X128036851Y-86991012D01*
X127953824Y-87006749D01*
X127853487Y-87016133D01*
X127812053Y-87017272D01*
X127681318Y-87017411D01*
X127681318Y-86505243D01*
X127905435Y-86505243D01*
X127906787Y-86618683D01*
X127911695Y-86690622D01*
X127921440Y-86729313D01*
X127937301Y-86743005D01*
X127942395Y-86743490D01*
X127982874Y-86727863D01*
X128039579Y-86688753D01*
X128059434Y-86671939D01*
X128115589Y-86609519D01*
X128137668Y-86544453D01*
X128139514Y-86509397D01*
X128116434Y-86414558D01*
X128054441Y-86335027D01*
X127964398Y-86284577D01*
X127961465Y-86283683D01*
X127935589Y-86277827D01*
X127919232Y-86284694D01*
X127910212Y-86312917D01*
X127906346Y-86371127D01*
X127905451Y-86467958D01*
X127905435Y-86505243D01*
X127681318Y-86505243D01*
X127681318Y-86264953D01*
X127612837Y-86280993D01*
X127531845Y-86320363D01*
X127461849Y-86389194D01*
X127416759Y-86471081D01*
X127407396Y-86523263D01*
X127418759Y-86594029D01*
X127447257Y-86678460D01*
X127460369Y-86707142D01*
X127513342Y-86813209D01*
X127444299Y-86903728D01*
X127397603Y-86955961D01*
X127359060Y-86983753D01*
X127347748Y-86985160D01*
X127320332Y-86960332D01*
X127278668Y-86905917D01*
X127246163Y-86856528D01*
X127187732Y-86723252D01*
X127161285Y-86573839D01*
X127168161Y-86425751D01*
X127204104Y-86307705D01*
X127281099Y-86186018D01*
X127382472Y-86099540D01*
X127513630Y-86045441D01*
X127679976Y-86020891D01*
X127756092Y-86018714D01*
X127930515Y-86027427D01*
X127935589Y-86028497D01*
X128067857Y-86056399D01*
X128177739Y-86108590D01*
G37*
X128177739Y-86108590D02*
X128255739Y-86172421D01*
X128340318Y-86290433D01*
X128385514Y-86429158D01*
X128389600Y-86576710D01*
X128350846Y-86721204D01*
X128339163Y-86746019D01*
X128276249Y-86831906D01*
X128184431Y-86913121D01*
X128083332Y-86973764D01*
X128036851Y-86991012D01*
X127953824Y-87006749D01*
X127853487Y-87016133D01*
X127812053Y-87017272D01*
X127681318Y-87017411D01*
X127681318Y-86505243D01*
X127905435Y-86505243D01*
X127906787Y-86618683D01*
X127911695Y-86690622D01*
X127921440Y-86729313D01*
X127937301Y-86743005D01*
X127942395Y-86743490D01*
X127982874Y-86727863D01*
X128039579Y-86688753D01*
X128059434Y-86671939D01*
X128115589Y-86609519D01*
X128137668Y-86544453D01*
X128139514Y-86509397D01*
X128116434Y-86414558D01*
X128054441Y-86335027D01*
X127964398Y-86284577D01*
X127961465Y-86283683D01*
X127935589Y-86277827D01*
X127919232Y-86284694D01*
X127910212Y-86312917D01*
X127906346Y-86371127D01*
X127905451Y-86467958D01*
X127905435Y-86505243D01*
X127681318Y-86505243D01*
X127681318Y-86264953D01*
X127612837Y-86280993D01*
X127531845Y-86320363D01*
X127461849Y-86389194D01*
X127416759Y-86471081D01*
X127407396Y-86523263D01*
X127418759Y-86594029D01*
X127447257Y-86678460D01*
X127460369Y-86707142D01*
X127513342Y-86813209D01*
X127444299Y-86903728D01*
X127397603Y-86955961D01*
X127359060Y-86983753D01*
X127347748Y-86985160D01*
X127320332Y-86960332D01*
X127278668Y-86905917D01*
X127246163Y-86856528D01*
X127187732Y-86723252D01*
X127161285Y-86573839D01*
X127168161Y-86425751D01*
X127204104Y-86307705D01*
X127281099Y-86186018D01*
X127382472Y-86099540D01*
X127513630Y-86045441D01*
X127679976Y-86020891D01*
X127756092Y-86018714D01*
X127930515Y-86027427D01*
X127935589Y-86028497D01*
X128067857Y-86056399D01*
X128177739Y-86108590D01*
G36*
X126510925Y-92159666D02*
G01*
X126508863Y-92238638D01*
X126499687Y-92279779D01*
X126478910Y-92294992D01*
X126459314Y-92296627D01*
X126407703Y-92296627D01*
X126459314Y-92362240D01*
X126494525Y-92437475D01*
X126511935Y-92538544D01*
X126511317Y-92646446D01*
X126492445Y-92742177D01*
X126464501Y-92796677D01*
X126418077Y-92854008D01*
X126315089Y-92772441D01*
X126252721Y-92722150D01*
X126222293Y-92688001D01*
X126217645Y-92654063D01*
X126232614Y-92604406D01*
X126241083Y-92581096D01*
X126253578Y-92486063D01*
X126226794Y-92399032D01*
X126166285Y-92335138D01*
X126146992Y-92324759D01*
X126095886Y-92313456D01*
X126001700Y-92304732D01*
X125871111Y-92298997D01*
X125710795Y-92296660D01*
X125687989Y-92296627D01*
X125290729Y-92296627D01*
X125290729Y-92022705D01*
X126510925Y-92022705D01*
X126510925Y-92159666D01*
G37*
X126510925Y-92159666D02*
X126508863Y-92238638D01*
X126499687Y-92279779D01*
X126478910Y-92294992D01*
X126459314Y-92296627D01*
X126407703Y-92296627D01*
X126459314Y-92362240D01*
X126494525Y-92437475D01*
X126511935Y-92538544D01*
X126511317Y-92646446D01*
X126492445Y-92742177D01*
X126464501Y-92796677D01*
X126418077Y-92854008D01*
X126315089Y-92772441D01*
X126252721Y-92722150D01*
X126222293Y-92688001D01*
X126217645Y-92654063D01*
X126232614Y-92604406D01*
X126241083Y-92581096D01*
X126253578Y-92486063D01*
X126226794Y-92399032D01*
X126166285Y-92335138D01*
X126146992Y-92324759D01*
X126095886Y-92313456D01*
X126001700Y-92304732D01*
X125871111Y-92298997D01*
X125710795Y-92296660D01*
X125687989Y-92296627D01*
X125290729Y-92296627D01*
X125290729Y-92022705D01*
X126510925Y-92022705D01*
X126510925Y-92159666D01*
G36*
X125994282Y-88042194D02*
G01*
X126155845Y-88054373D01*
X126277147Y-88079685D01*
X126366821Y-88121793D01*
X126433501Y-88184359D01*
X126472643Y-88245100D01*
X126500160Y-88329964D01*
X126509597Y-88435515D01*
X126501910Y-88543598D01*
X126478054Y-88636058D01*
X126449515Y-88684910D01*
X126403599Y-88735647D01*
X126984063Y-88735647D01*
X126984063Y-89009568D01*
X125290729Y-89009568D01*
X125290729Y-88872607D01*
X125293060Y-88793111D01*
X125302712Y-88751708D01*
X125323675Y-88736801D01*
X125337849Y-88735647D01*
X125366273Y-88733133D01*
X125371725Y-88717280D01*
X125354202Y-88675621D01*
X125337849Y-88643224D01*
X125299097Y-88518849D01*
X125298999Y-88512914D01*
X125550636Y-88512914D01*
X125570369Y-88602804D01*
X125629232Y-88679617D01*
X125668821Y-88708708D01*
X125716062Y-88725717D01*
X125785019Y-88733684D01*
X125888593Y-88735647D01*
X125991161Y-88732134D01*
X126081279Y-88722857D01*
X126141587Y-88709706D01*
X126146992Y-88707514D01*
X126211260Y-88654478D01*
X126246544Y-88577067D01*
X126252241Y-88490454D01*
X126227747Y-88409807D01*
X126172458Y-88350297D01*
X126161457Y-88344124D01*
X126094373Y-88324801D01*
X125997916Y-88314274D01*
X125888148Y-88312289D01*
X125781130Y-88318590D01*
X125692922Y-88332925D01*
X125643110Y-88352331D01*
X125575038Y-88425746D01*
X125550636Y-88512914D01*
X125298999Y-88512914D01*
X125296854Y-88383646D01*
X125325756Y-88273726D01*
X125395581Y-88171366D01*
X125498645Y-88093340D01*
X125620211Y-88050614D01*
X125627008Y-88049526D01*
X125701168Y-88043178D01*
X125807630Y-88040021D01*
X125888148Y-88040275D01*
X125928975Y-88040404D01*
X125994282Y-88042194D01*
G37*
X125994282Y-88042194D02*
X126155845Y-88054373D01*
X126277147Y-88079685D01*
X126366821Y-88121793D01*
X126433501Y-88184359D01*
X126472643Y-88245100D01*
X126500160Y-88329964D01*
X126509597Y-88435515D01*
X126501910Y-88543598D01*
X126478054Y-88636058D01*
X126449515Y-88684910D01*
X126403599Y-88735647D01*
X126984063Y-88735647D01*
X126984063Y-89009568D01*
X125290729Y-89009568D01*
X125290729Y-88872607D01*
X125293060Y-88793111D01*
X125302712Y-88751708D01*
X125323675Y-88736801D01*
X125337849Y-88735647D01*
X125366273Y-88733133D01*
X125371725Y-88717280D01*
X125354202Y-88675621D01*
X125337849Y-88643224D01*
X125299097Y-88518849D01*
X125298999Y-88512914D01*
X125550636Y-88512914D01*
X125570369Y-88602804D01*
X125629232Y-88679617D01*
X125668821Y-88708708D01*
X125716062Y-88725717D01*
X125785019Y-88733684D01*
X125888593Y-88735647D01*
X125991161Y-88732134D01*
X126081279Y-88722857D01*
X126141587Y-88709706D01*
X126146992Y-88707514D01*
X126211260Y-88654478D01*
X126246544Y-88577067D01*
X126252241Y-88490454D01*
X126227747Y-88409807D01*
X126172458Y-88350297D01*
X126161457Y-88344124D01*
X126094373Y-88324801D01*
X125997916Y-88314274D01*
X125888148Y-88312289D01*
X125781130Y-88318590D01*
X125692922Y-88332925D01*
X125643110Y-88352331D01*
X125575038Y-88425746D01*
X125550636Y-88512914D01*
X125298999Y-88512914D01*
X125296854Y-88383646D01*
X125325756Y-88273726D01*
X125395581Y-88171366D01*
X125498645Y-88093340D01*
X125620211Y-88050614D01*
X125627008Y-88049526D01*
X125701168Y-88043178D01*
X125807630Y-88040021D01*
X125888148Y-88040275D01*
X125928975Y-88040404D01*
X125994282Y-88042194D01*
G36*
X128378572Y-91375254D02*
G01*
X127990955Y-91375254D01*
X127808321Y-91377608D01*
X127669600Y-91386207D01*
X127569053Y-91403360D01*
X127500946Y-91431374D01*
X127459541Y-91472557D01*
X127439103Y-91529217D01*
X127433882Y-91599372D01*
X127439732Y-91672848D01*
X127461107Y-91728657D01*
X127503742Y-91769109D01*
X127573375Y-91796509D01*
X127675740Y-91813167D01*
X127816576Y-91821389D01*
X127990955Y-91823490D01*
X128378572Y-91823490D01*
X128378572Y-92097411D01*
X127183278Y-92097411D01*
X127183278Y-91960451D01*
X127186624Y-91877884D01*
X127198374Y-91835368D01*
X127220680Y-91823490D01*
X127240546Y-91816336D01*
X127236343Y-91787865D01*
X127208229Y-91730476D01*
X127164858Y-91598945D01*
X127167930Y-91459438D01*
X127215026Y-91325765D01*
X127252229Y-91262108D01*
X127292509Y-91213553D01*
X127342909Y-91178081D01*
X127410471Y-91153674D01*
X127502235Y-91138313D01*
X127625245Y-91129982D01*
X127786541Y-91126662D01*
X127911272Y-91126235D01*
X128378572Y-91126235D01*
X128378572Y-91375254D01*
G37*
X128378572Y-91375254D02*
X127990955Y-91375254D01*
X127808321Y-91377608D01*
X127669600Y-91386207D01*
X127569053Y-91403360D01*
X127500946Y-91431374D01*
X127459541Y-91472557D01*
X127439103Y-91529217D01*
X127433882Y-91599372D01*
X127439732Y-91672848D01*
X127461107Y-91728657D01*
X127503742Y-91769109D01*
X127573375Y-91796509D01*
X127675740Y-91813167D01*
X127816576Y-91821389D01*
X127990955Y-91823490D01*
X128378572Y-91823490D01*
X128378572Y-92097411D01*
X127183278Y-92097411D01*
X127183278Y-91960451D01*
X127186624Y-91877884D01*
X127198374Y-91835368D01*
X127220680Y-91823490D01*
X127240546Y-91816336D01*
X127236343Y-91787865D01*
X127208229Y-91730476D01*
X127164858Y-91598945D01*
X127167930Y-91459438D01*
X127215026Y-91325765D01*
X127252229Y-91262108D01*
X127292509Y-91213553D01*
X127342909Y-91178081D01*
X127410471Y-91153674D01*
X127502235Y-91138313D01*
X127625245Y-91129982D01*
X127786541Y-91126662D01*
X127911272Y-91126235D01*
X128378572Y-91126235D01*
X128378572Y-91375254D01*
G36*
X128378572Y-92458490D02*
G01*
X128375321Y-92540719D01*
X128363774Y-92583144D01*
X128341248Y-92595445D01*
X128340580Y-92595451D01*
X128316985Y-92601260D01*
X128320062Y-92627531D01*
X128337085Y-92663931D01*
X128368761Y-92739111D01*
X128387819Y-92800158D01*
X128392704Y-92878708D01*
X128379728Y-92971637D01*
X128353559Y-93057290D01*
X128320493Y-93112437D01*
X128294345Y-93130401D01*
X128263348Y-93125457D01*
X128214653Y-93093372D01*
X128180165Y-93066243D01*
X128117817Y-93010317D01*
X128091585Y-92968299D01*
X128093297Y-92932480D01*
X128120337Y-92826224D01*
X128119109Y-92748189D01*
X128088465Y-92684820D01*
X128070530Y-92663546D01*
X128007421Y-92595451D01*
X127183278Y-92595451D01*
X127183278Y-92321529D01*
X128378572Y-92321529D01*
X128378572Y-92458490D01*
G37*
X128378572Y-92458490D02*
X128375321Y-92540719D01*
X128363774Y-92583144D01*
X128341248Y-92595445D01*
X128340580Y-92595451D01*
X128316985Y-92601260D01*
X128320062Y-92627531D01*
X128337085Y-92663931D01*
X128368761Y-92739111D01*
X128387819Y-92800158D01*
X128392704Y-92878708D01*
X128379728Y-92971637D01*
X128353559Y-93057290D01*
X128320493Y-93112437D01*
X128294345Y-93130401D01*
X128263348Y-93125457D01*
X128214653Y-93093372D01*
X128180165Y-93066243D01*
X128117817Y-93010317D01*
X128091585Y-92968299D01*
X128093297Y-92932480D01*
X128120337Y-92826224D01*
X128119109Y-92748189D01*
X128088465Y-92684820D01*
X128070530Y-92663546D01*
X128007421Y-92595451D01*
X127183278Y-92595451D01*
X127183278Y-92321529D01*
X128378572Y-92321529D01*
X128378572Y-92458490D01*
G36*
X126510925Y-87366039D02*
G01*
X126508279Y-87440764D01*
X126497109Y-87478030D01*
X126472567Y-87490043D01*
X126461488Y-87490549D01*
X126430628Y-87492704D01*
X126425783Y-87507551D01*
X126446940Y-87547657D01*
X126461394Y-87571480D01*
X126492350Y-87646638D01*
X126507656Y-87736406D01*
X126508833Y-87830529D01*
X126497401Y-87918754D01*
X126474880Y-87990826D01*
X126442791Y-88036492D01*
X126402655Y-88045498D01*
X126391785Y-88040953D01*
X126346666Y-88007821D01*
X126291174Y-87956445D01*
X126282204Y-87947152D01*
X126240955Y-87898182D01*
X126227628Y-87855931D01*
X126236929Y-87796841D01*
X126243110Y-87773169D01*
X126257954Y-87699504D01*
X126251279Y-87647710D01*
X126227735Y-87603969D01*
X126196139Y-87563902D01*
X126156402Y-87534392D01*
X126100948Y-87513884D01*
X126022197Y-87500824D01*
X125912571Y-87493656D01*
X125764494Y-87490824D01*
X125675089Y-87490549D01*
X125290729Y-87490549D01*
X125290729Y-87241529D01*
X126510925Y-87241529D01*
X126510925Y-87366039D01*
G37*
X126510925Y-87366039D02*
X126508279Y-87440764D01*
X126497109Y-87478030D01*
X126472567Y-87490043D01*
X126461488Y-87490549D01*
X126430628Y-87492704D01*
X126425783Y-87507551D01*
X126446940Y-87547657D01*
X126461394Y-87571480D01*
X126492350Y-87646638D01*
X126507656Y-87736406D01*
X126508833Y-87830529D01*
X126497401Y-87918754D01*
X126474880Y-87990826D01*
X126442791Y-88036492D01*
X126402655Y-88045498D01*
X126391785Y-88040953D01*
X126346666Y-88007821D01*
X126291174Y-87956445D01*
X126282204Y-87947152D01*
X126240955Y-87898182D01*
X126227628Y-87855931D01*
X126236929Y-87796841D01*
X126243110Y-87773169D01*
X126257954Y-87699504D01*
X126251279Y-87647710D01*
X126227735Y-87603969D01*
X126196139Y-87563902D01*
X126156402Y-87534392D01*
X126100948Y-87513884D01*
X126022197Y-87500824D01*
X125912571Y-87493656D01*
X125764494Y-87490824D01*
X125675089Y-87490549D01*
X125290729Y-87490549D01*
X125290729Y-87241529D01*
X126510925Y-87241529D01*
X126510925Y-87366039D01*
G36*
X125872918Y-86079534D02*
G01*
X125956488Y-86166200D01*
X125964090Y-86178179D01*
X125988843Y-86229655D01*
X126003832Y-86293368D01*
X126011118Y-86382435D01*
X126012793Y-86488245D01*
X126012886Y-86718588D01*
X126109445Y-86718588D01*
X126184364Y-86708817D01*
X126234556Y-86683884D01*
X126237228Y-86680965D01*
X126259185Y-86625481D01*
X126267695Y-86541727D01*
X126263513Y-86449167D01*
X126247391Y-86367270D01*
X126223210Y-86318673D01*
X126203841Y-86292341D01*
X126200143Y-86264535D01*
X126216012Y-86226161D01*
X126255345Y-86168125D01*
X126322036Y-86081331D01*
X126328284Y-86073365D01*
X126351400Y-86077447D01*
X126389848Y-86111501D01*
X126432573Y-86163260D01*
X126468521Y-86220455D01*
X126477009Y-86238425D01*
X126493948Y-86303972D01*
X126506030Y-86400020D01*
X126510877Y-86507329D01*
X126510887Y-86512347D01*
X126501278Y-86666720D01*
X126470020Y-86783870D01*
X126413363Y-86873051D01*
X126339155Y-86935984D01*
X126307484Y-86955548D01*
X126274309Y-86969992D01*
X126231871Y-86980089D01*
X126172412Y-86986615D01*
X126088171Y-86990342D01*
X125971390Y-86992046D01*
X125814310Y-86992500D01*
X125772635Y-86992509D01*
X125290729Y-86992509D01*
X125290729Y-86872980D01*
X125296069Y-86796739D01*
X125309596Y-86740366D01*
X125317938Y-86726242D01*
X125332336Y-86687630D01*
X125317938Y-86648192D01*
X125299963Y-86583262D01*
X125292728Y-86488945D01*
X125292835Y-86485390D01*
X125540071Y-86485390D01*
X125545469Y-86578042D01*
X125567090Y-86652256D01*
X125580961Y-86673049D01*
X125645057Y-86709381D01*
X125717922Y-86718588D01*
X125813670Y-86718588D01*
X125813670Y-86580827D01*
X125803595Y-86449953D01*
X125775052Y-86350741D01*
X125730561Y-86289023D01*
X125679392Y-86270353D01*
X125614842Y-86291405D01*
X125578514Y-86325697D01*
X125551038Y-86394532D01*
X125540071Y-86485390D01*
X125292835Y-86485390D01*
X125295867Y-86384407D01*
X125309014Y-86288811D01*
X125325882Y-86233000D01*
X125395214Y-86124998D01*
X125491428Y-86057503D01*
X125619356Y-86027159D01*
X125622641Y-86026877D01*
X125679392Y-86029540D01*
X125762410Y-86033436D01*
X125872918Y-86079534D01*
G37*
X125872918Y-86079534D02*
X125956488Y-86166200D01*
X125964090Y-86178179D01*
X125988843Y-86229655D01*
X126003832Y-86293368D01*
X126011118Y-86382435D01*
X126012793Y-86488245D01*
X126012886Y-86718588D01*
X126109445Y-86718588D01*
X126184364Y-86708817D01*
X126234556Y-86683884D01*
X126237228Y-86680965D01*
X126259185Y-86625481D01*
X126267695Y-86541727D01*
X126263513Y-86449167D01*
X126247391Y-86367270D01*
X126223210Y-86318673D01*
X126203841Y-86292341D01*
X126200143Y-86264535D01*
X126216012Y-86226161D01*
X126255345Y-86168125D01*
X126322036Y-86081331D01*
X126328284Y-86073365D01*
X126351400Y-86077447D01*
X126389848Y-86111501D01*
X126432573Y-86163260D01*
X126468521Y-86220455D01*
X126477009Y-86238425D01*
X126493948Y-86303972D01*
X126506030Y-86400020D01*
X126510877Y-86507329D01*
X126510887Y-86512347D01*
X126501278Y-86666720D01*
X126470020Y-86783870D01*
X126413363Y-86873051D01*
X126339155Y-86935984D01*
X126307484Y-86955548D01*
X126274309Y-86969992D01*
X126231871Y-86980089D01*
X126172412Y-86986615D01*
X126088171Y-86990342D01*
X125971390Y-86992046D01*
X125814310Y-86992500D01*
X125772635Y-86992509D01*
X125290729Y-86992509D01*
X125290729Y-86872980D01*
X125296069Y-86796739D01*
X125309596Y-86740366D01*
X125317938Y-86726242D01*
X125332336Y-86687630D01*
X125317938Y-86648192D01*
X125299963Y-86583262D01*
X125292728Y-86488945D01*
X125292835Y-86485390D01*
X125540071Y-86485390D01*
X125545469Y-86578042D01*
X125567090Y-86652256D01*
X125580961Y-86673049D01*
X125645057Y-86709381D01*
X125717922Y-86718588D01*
X125813670Y-86718588D01*
X125813670Y-86580827D01*
X125803595Y-86449953D01*
X125775052Y-86350741D01*
X125730561Y-86289023D01*
X125679392Y-86270353D01*
X125614842Y-86291405D01*
X125578514Y-86325697D01*
X125551038Y-86394532D01*
X125540071Y-86485390D01*
X125292835Y-86485390D01*
X125295867Y-86384407D01*
X125309014Y-86288811D01*
X125325882Y-86233000D01*
X125395214Y-86124998D01*
X125491428Y-86057503D01*
X125619356Y-86027159D01*
X125622641Y-86026877D01*
X125679392Y-86029540D01*
X125762410Y-86033436D01*
X125872918Y-86079534D01*
G36*
X127470692Y-88863098D02*
G01*
X127561861Y-88953196D01*
X127494072Y-89055632D01*
X127443158Y-89158374D01*
X127416527Y-89268087D01*
X127413717Y-89373551D01*
X127434265Y-89463546D01*
X127477707Y-89526854D01*
X127514362Y-89547296D01*
X127573147Y-89544229D01*
X127618101Y-89493434D01*
X127649143Y-89395048D01*
X127663490Y-89287256D01*
X127690863Y-89121365D01*
X127742507Y-88998124D01*
X127819934Y-88915886D01*
X127924656Y-88873001D01*
X128048813Y-88867060D01*
X128178498Y-88896406D01*
X128276523Y-88963309D01*
X128343334Y-89068371D01*
X128379380Y-89212190D01*
X128386446Y-89318738D01*
X128382855Y-89435759D01*
X128364971Y-89530059D01*
X128327567Y-89627890D01*
X128322798Y-89638343D01*
X128283788Y-89712531D01*
X128247536Y-89763910D01*
X128224313Y-89780517D01*
X128186439Y-89764702D01*
X128130556Y-89726288D01*
X128109695Y-89709237D01*
X128027582Y-89638969D01*
X128081032Y-89548379D01*
X128116639Y-89462164D01*
X128135671Y-89362549D01*
X128136874Y-89267019D01*
X128118990Y-89193061D01*
X128107827Y-89175312D01*
X128056647Y-89141512D01*
X127997691Y-89137404D01*
X127951633Y-89162696D01*
X127942701Y-89177656D01*
X127931608Y-89222486D01*
X127918570Y-89301286D01*
X127906112Y-89398426D01*
X127904158Y-89416346D01*
X127877170Y-89572365D01*
X127831327Y-89685523D01*
X127762397Y-89760569D01*
X127666146Y-89802253D01*
X127548583Y-89815238D01*
X127414946Y-89797299D01*
X127310005Y-89739050D01*
X127233570Y-89640255D01*
X127185452Y-89500682D01*
X127166468Y-89345745D01*
X127166696Y-89219398D01*
X127183938Y-89116913D01*
X127207743Y-89046921D01*
X127249222Y-88958483D01*
X127297358Y-88876754D01*
X127318545Y-88847705D01*
X127379524Y-88773000D01*
X127470692Y-88863098D01*
G37*
X127470692Y-88863098D02*
X127561861Y-88953196D01*
X127494072Y-89055632D01*
X127443158Y-89158374D01*
X127416527Y-89268087D01*
X127413717Y-89373551D01*
X127434265Y-89463546D01*
X127477707Y-89526854D01*
X127514362Y-89547296D01*
X127573147Y-89544229D01*
X127618101Y-89493434D01*
X127649143Y-89395048D01*
X127663490Y-89287256D01*
X127690863Y-89121365D01*
X127742507Y-88998124D01*
X127819934Y-88915886D01*
X127924656Y-88873001D01*
X128048813Y-88867060D01*
X128178498Y-88896406D01*
X128276523Y-88963309D01*
X128343334Y-89068371D01*
X128379380Y-89212190D01*
X128386446Y-89318738D01*
X128382855Y-89435759D01*
X128364971Y-89530059D01*
X128327567Y-89627890D01*
X128322798Y-89638343D01*
X128283788Y-89712531D01*
X128247536Y-89763910D01*
X128224313Y-89780517D01*
X128186439Y-89764702D01*
X128130556Y-89726288D01*
X128109695Y-89709237D01*
X128027582Y-89638969D01*
X128081032Y-89548379D01*
X128116639Y-89462164D01*
X128135671Y-89362549D01*
X128136874Y-89267019D01*
X128118990Y-89193061D01*
X128107827Y-89175312D01*
X128056647Y-89141512D01*
X127997691Y-89137404D01*
X127951633Y-89162696D01*
X127942701Y-89177656D01*
X127931608Y-89222486D01*
X127918570Y-89301286D01*
X127906112Y-89398426D01*
X127904158Y-89416346D01*
X127877170Y-89572365D01*
X127831327Y-89685523D01*
X127762397Y-89760569D01*
X127666146Y-89802253D01*
X127548583Y-89815238D01*
X127414946Y-89797299D01*
X127310005Y-89739050D01*
X127233570Y-89640255D01*
X127185452Y-89500682D01*
X127166468Y-89345745D01*
X127166696Y-89219398D01*
X127183938Y-89116913D01*
X127207743Y-89046921D01*
X127249222Y-88958483D01*
X127297358Y-88876754D01*
X127318545Y-88847705D01*
X127379524Y-88773000D01*
X127470692Y-88863098D01*
G36*
X133009979Y-84974334D02*
G01*
X133149127Y-84977820D01*
X133268883Y-84983376D01*
X133360614Y-84991008D01*
X133415689Y-85000722D01*
X133426962Y-85006578D01*
X133438332Y-85039180D01*
X133456831Y-85113418D01*
X133480853Y-85221896D01*
X133508793Y-85357217D01*
X133539047Y-85511985D01*
X133554904Y-85596308D01*
X133584811Y-85756296D01*
X133611905Y-85898967D01*
X133634824Y-86017348D01*
X133652212Y-86104465D01*
X133662708Y-86153345D01*
X133665035Y-86161390D01*
X133691269Y-86174987D01*
X133754460Y-86203729D01*
X133845578Y-86243785D01*
X133955598Y-86291324D01*
X134075490Y-86342515D01*
X134196228Y-86393526D01*
X134308784Y-86440526D01*
X134404129Y-86479684D01*
X134473238Y-86507169D01*
X134507081Y-86519149D01*
X134508560Y-86519372D01*
X134535258Y-86505791D01*
X134596695Y-86467715D01*
X134686766Y-86409147D01*
X134799365Y-86334088D01*
X134928385Y-86246540D01*
X135002494Y-86195647D01*
X135138378Y-86102909D01*
X135261746Y-86020541D01*
X135366358Y-85952561D01*
X135445972Y-85902988D01*
X135494348Y-85875842D01*
X135505193Y-85871921D01*
X135530435Y-85888775D01*
X135584331Y-85935368D01*
X135660842Y-86005749D01*
X135753932Y-86093965D01*
X135857560Y-86194065D01*
X135965691Y-86300098D01*
X136072285Y-86406111D01*
X136171305Y-86506152D01*
X136256713Y-86594270D01*
X136322470Y-86664513D01*
X136362539Y-86710928D01*
X136372102Y-86726456D01*
X136358655Y-86751739D01*
X136320880Y-86812211D01*
X136262620Y-86901992D01*
X136187721Y-87015203D01*
X136100030Y-87145964D01*
X136033222Y-87244600D01*
X135694343Y-87742957D01*
X135865590Y-88158371D01*
X136036837Y-88573784D01*
X136634028Y-88686366D01*
X137231220Y-88798949D01*
X137231220Y-90041952D01*
X136634028Y-90154535D01*
X136036837Y-90267117D01*
X135865590Y-90682531D01*
X135694343Y-91097944D01*
X136033222Y-91596302D01*
X136127578Y-91735868D01*
X136211825Y-91862028D01*
X136282117Y-91968895D01*
X136334608Y-92050582D01*
X136365451Y-92101201D01*
X136372102Y-92114986D01*
X136354997Y-92139820D01*
X136307711Y-92192888D01*
X136236283Y-92268240D01*
X136146755Y-92359929D01*
X136045166Y-92462007D01*
X135937557Y-92568526D01*
X135829968Y-92673536D01*
X135728440Y-92771091D01*
X135639014Y-92855242D01*
X135567729Y-92920040D01*
X135520627Y-92959538D01*
X135504863Y-92968980D01*
X135475802Y-92955391D01*
X135412134Y-92917293D01*
X135320088Y-92858694D01*
X135205891Y-92783597D01*
X135075771Y-92696009D01*
X135001554Y-92645254D01*
X134866033Y-92552745D01*
X134743739Y-92470540D01*
X134640760Y-92402630D01*
X134563182Y-92353000D01*
X134517094Y-92325640D01*
X134507408Y-92321529D01*
X134479881Y-92330849D01*
X134415727Y-92356254D01*
X134323965Y-92393911D01*
X134213616Y-92439986D01*
X134093700Y-92490646D01*
X133973236Y-92542059D01*
X133861246Y-92590389D01*
X133766748Y-92631806D01*
X133698763Y-92662474D01*
X133666312Y-92678562D01*
X133665035Y-92679511D01*
X133658838Y-92704772D01*
X133645015Y-92772046D01*
X133624923Y-92874360D01*
X133599921Y-93004741D01*
X133571369Y-93156216D01*
X133554904Y-93244594D01*
X133524086Y-93406452D01*
X133494761Y-93552649D01*
X133468534Y-93675787D01*
X133447009Y-93768469D01*
X133431790Y-93823301D01*
X133426962Y-93834323D01*
X133394281Y-93845119D01*
X133320470Y-93853829D01*
X133214163Y-93860460D01*
X133083988Y-93865018D01*
X132938579Y-93867509D01*
X132786565Y-93867938D01*
X132636578Y-93866311D01*
X132497249Y-93862635D01*
X132377210Y-93856915D01*
X132285090Y-93849158D01*
X132229523Y-93839368D01*
X132217955Y-93833496D01*
X132204090Y-93798399D01*
X132184267Y-93724028D01*
X132160816Y-93620223D01*
X132136064Y-93496819D01*
X132128057Y-93453741D01*
X132090014Y-93246047D01*
X132059376Y-93081984D01*
X132034926Y-92956130D01*
X132015446Y-92863065D01*
X131999719Y-92797367D01*
X131986527Y-92753617D01*
X131974651Y-92726392D01*
X131962875Y-92710272D01*
X131960547Y-92708017D01*
X131923055Y-92685503D01*
X131850090Y-92651158D01*
X131750588Y-92608411D01*
X131633482Y-92560692D01*
X131507707Y-92511430D01*
X131382198Y-92464055D01*
X131265890Y-92421995D01*
X131167716Y-92388680D01*
X131096612Y-92367541D01*
X131061513Y-92362005D01*
X131060283Y-92362466D01*
X131031594Y-92381223D01*
X130968470Y-92423776D01*
X130877482Y-92485653D01*
X130765200Y-92562382D01*
X130638195Y-92649491D01*
X130602102Y-92674299D01*
X130471252Y-92762753D01*
X130351864Y-92840588D01*
X130250793Y-92903566D01*
X130174896Y-92947445D01*
X130131028Y-92967985D01*
X130125638Y-92968980D01*
X130097311Y-92951722D01*
X130041194Y-92904036D01*
X129963318Y-92832050D01*
X129869715Y-92741897D01*
X129766414Y-92639705D01*
X129659449Y-92531606D01*
X129554849Y-92423728D01*
X129458646Y-92322204D01*
X129376871Y-92233162D01*
X129315555Y-92162733D01*
X129280729Y-92117047D01*
X129275043Y-92104409D01*
X129288435Y-92074991D01*
X129324556Y-92014761D01*
X129377319Y-91933530D01*
X129419788Y-91871030D01*
X129497715Y-91757785D01*
X129589471Y-91623674D01*
X129681080Y-91489155D01*
X129730109Y-91416833D01*
X129895685Y-91172038D01*
X129784580Y-90966551D01*
X129735907Y-90872936D01*
X129698074Y-90793330D01*
X129676497Y-90739467D01*
X129673494Y-90725757D01*
X129695662Y-90709270D01*
X129758306Y-90676745D01*
X129855646Y-90630609D01*
X129981906Y-90573290D01*
X130131305Y-90507216D01*
X130298067Y-90434815D01*
X130476413Y-90358516D01*
X130660564Y-90280746D01*
X130844743Y-90203934D01*
X131023170Y-90130506D01*
X131190068Y-90062892D01*
X131339658Y-90003520D01*
X131466162Y-89954816D01*
X131563801Y-89919210D01*
X131626798Y-89899130D01*
X131648434Y-89895900D01*
X131676031Y-89921496D01*
X131720830Y-89977539D01*
X131773521Y-90052311D01*
X131777690Y-90058587D01*
X131932386Y-90251845D01*
X132112864Y-90407674D01*
X132313353Y-90524724D01*
X132528081Y-90601645D01*
X132751278Y-90637086D01*
X132977174Y-90629697D01*
X133199996Y-90578127D01*
X133413976Y-90481026D01*
X133460791Y-90452458D01*
X133649837Y-90303868D01*
X133801643Y-90128327D01*
X133915421Y-89931910D01*
X133990380Y-89720693D01*
X134025733Y-89500753D01*
X134020688Y-89278163D01*
X133974456Y-89059001D01*
X133886249Y-88849342D01*
X133755276Y-88655261D01*
X133702118Y-88595226D01*
X133535716Y-88442435D01*
X133360543Y-88331097D01*
X133164189Y-88254723D01*
X132969738Y-88212187D01*
X132751113Y-88201686D01*
X132531403Y-88236701D01*
X132318035Y-88313673D01*
X132118433Y-88429047D01*
X131940026Y-88579266D01*
X131790238Y-88760773D01*
X131774449Y-88784627D01*
X131722743Y-88860201D01*
X131677943Y-88917651D01*
X131649338Y-88945117D01*
X131648434Y-88945517D01*
X131617491Y-88939620D01*
X131547264Y-88916245D01*
X131443530Y-88877821D01*
X131312065Y-88826777D01*
X131158648Y-88765542D01*
X130989054Y-88696544D01*
X130809062Y-88622214D01*
X130624447Y-88544978D01*
X130440987Y-88467268D01*
X130264459Y-88391511D01*
X130100641Y-88320137D01*
X129955308Y-88255574D01*
X129834238Y-88200252D01*
X129743208Y-88156600D01*
X129687995Y-88127046D01*
X129673494Y-88115144D01*
X129684786Y-88078777D01*
X129715070Y-88010730D01*
X129758935Y-87922737D01*
X129784580Y-87874351D01*
X129895685Y-87668863D01*
X129730109Y-87424068D01*
X129645285Y-87299106D01*
X129551939Y-87162295D01*
X129464047Y-87034089D01*
X129419788Y-86969871D01*
X129359137Y-86879551D01*
X129311074Y-86803071D01*
X129281685Y-86750407D01*
X129275473Y-86733302D01*
X129292232Y-86708405D01*
X129339019Y-86653305D01*
X129410975Y-86573343D01*
X129503243Y-86473861D01*
X129610965Y-86360200D01*
X129680129Y-86288315D01*
X129803698Y-86162551D01*
X129914221Y-86053863D01*
X130006970Y-85966645D01*
X130077218Y-85905289D01*
X130120235Y-85874191D01*
X130128965Y-85871208D01*
X130162171Y-85885053D01*
X130229313Y-85923312D01*
X130323592Y-85981742D01*
X130438210Y-86056097D01*
X130566372Y-86142135D01*
X130602102Y-86166603D01*
X130731966Y-86255755D01*
X130848886Y-86335738D01*
X130946293Y-86402080D01*
X131017616Y-86450311D01*
X131056285Y-86475957D01*
X131060283Y-86478435D01*
X131091100Y-86474729D01*
X131158856Y-86455061D01*
X131254616Y-86422860D01*
X131369446Y-86381555D01*
X131494411Y-86334575D01*
X131620576Y-86285349D01*
X131739007Y-86237308D01*
X131840770Y-86193881D01*
X131916929Y-86158496D01*
X131958551Y-86134584D01*
X131960547Y-86132884D01*
X131972442Y-86118262D01*
X131984205Y-86093565D01*
X131997054Y-86053372D01*
X132012206Y-85992263D01*
X132030879Y-85904817D01*
X132054290Y-85785612D01*
X132083658Y-85629227D01*
X132120200Y-85430243D01*
X132128057Y-85387160D01*
X132152728Y-85259471D01*
X132176862Y-85148153D01*
X132198131Y-85063045D01*
X132214207Y-85013983D01*
X132217955Y-85007405D01*
X132251182Y-84996564D01*
X132325434Y-84987753D01*
X132432079Y-84980976D01*
X132562488Y-84976240D01*
X132708028Y-84973550D01*
X132860069Y-84972913D01*
X133009979Y-84974334D01*
G37*
X133009979Y-84974334D02*
X133149127Y-84977820D01*
X133268883Y-84983376D01*
X133360614Y-84991008D01*
X133415689Y-85000722D01*
X133426962Y-85006578D01*
X133438332Y-85039180D01*
X133456831Y-85113418D01*
X133480853Y-85221896D01*
X133508793Y-85357217D01*
X133539047Y-85511985D01*
X133554904Y-85596308D01*
X133584811Y-85756296D01*
X133611905Y-85898967D01*
X133634824Y-86017348D01*
X133652212Y-86104465D01*
X133662708Y-86153345D01*
X133665035Y-86161390D01*
X133691269Y-86174987D01*
X133754460Y-86203729D01*
X133845578Y-86243785D01*
X133955598Y-86291324D01*
X134075490Y-86342515D01*
X134196228Y-86393526D01*
X134308784Y-86440526D01*
X134404129Y-86479684D01*
X134473238Y-86507169D01*
X134507081Y-86519149D01*
X134508560Y-86519372D01*
X134535258Y-86505791D01*
X134596695Y-86467715D01*
X134686766Y-86409147D01*
X134799365Y-86334088D01*
X134928385Y-86246540D01*
X135002494Y-86195647D01*
X135138378Y-86102909D01*
X135261746Y-86020541D01*
X135366358Y-85952561D01*
X135445972Y-85902988D01*
X135494348Y-85875842D01*
X135505193Y-85871921D01*
X135530435Y-85888775D01*
X135584331Y-85935368D01*
X135660842Y-86005749D01*
X135753932Y-86093965D01*
X135857560Y-86194065D01*
X135965691Y-86300098D01*
X136072285Y-86406111D01*
X136171305Y-86506152D01*
X136256713Y-86594270D01*
X136322470Y-86664513D01*
X136362539Y-86710928D01*
X136372102Y-86726456D01*
X136358655Y-86751739D01*
X136320880Y-86812211D01*
X136262620Y-86901992D01*
X136187721Y-87015203D01*
X136100030Y-87145964D01*
X136033222Y-87244600D01*
X135694343Y-87742957D01*
X135865590Y-88158371D01*
X136036837Y-88573784D01*
X136634028Y-88686366D01*
X137231220Y-88798949D01*
X137231220Y-90041952D01*
X136634028Y-90154535D01*
X136036837Y-90267117D01*
X135865590Y-90682531D01*
X135694343Y-91097944D01*
X136033222Y-91596302D01*
X136127578Y-91735868D01*
X136211825Y-91862028D01*
X136282117Y-91968895D01*
X136334608Y-92050582D01*
X136365451Y-92101201D01*
X136372102Y-92114986D01*
X136354997Y-92139820D01*
X136307711Y-92192888D01*
X136236283Y-92268240D01*
X136146755Y-92359929D01*
X136045166Y-92462007D01*
X135937557Y-92568526D01*
X135829968Y-92673536D01*
X135728440Y-92771091D01*
X135639014Y-92855242D01*
X135567729Y-92920040D01*
X135520627Y-92959538D01*
X135504863Y-92968980D01*
X135475802Y-92955391D01*
X135412134Y-92917293D01*
X135320088Y-92858694D01*
X135205891Y-92783597D01*
X135075771Y-92696009D01*
X135001554Y-92645254D01*
X134866033Y-92552745D01*
X134743739Y-92470540D01*
X134640760Y-92402630D01*
X134563182Y-92353000D01*
X134517094Y-92325640D01*
X134507408Y-92321529D01*
X134479881Y-92330849D01*
X134415727Y-92356254D01*
X134323965Y-92393911D01*
X134213616Y-92439986D01*
X134093700Y-92490646D01*
X133973236Y-92542059D01*
X133861246Y-92590389D01*
X133766748Y-92631806D01*
X133698763Y-92662474D01*
X133666312Y-92678562D01*
X133665035Y-92679511D01*
X133658838Y-92704772D01*
X133645015Y-92772046D01*
X133624923Y-92874360D01*
X133599921Y-93004741D01*
X133571369Y-93156216D01*
X133554904Y-93244594D01*
X133524086Y-93406452D01*
X133494761Y-93552649D01*
X133468534Y-93675787D01*
X133447009Y-93768469D01*
X133431790Y-93823301D01*
X133426962Y-93834323D01*
X133394281Y-93845119D01*
X133320470Y-93853829D01*
X133214163Y-93860460D01*
X133083988Y-93865018D01*
X132938579Y-93867509D01*
X132786565Y-93867938D01*
X132636578Y-93866311D01*
X132497249Y-93862635D01*
X132377210Y-93856915D01*
X132285090Y-93849158D01*
X132229523Y-93839368D01*
X132217955Y-93833496D01*
X132204090Y-93798399D01*
X132184267Y-93724028D01*
X132160816Y-93620223D01*
X132136064Y-93496819D01*
X132128057Y-93453741D01*
X132090014Y-93246047D01*
X132059376Y-93081984D01*
X132034926Y-92956130D01*
X132015446Y-92863065D01*
X131999719Y-92797367D01*
X131986527Y-92753617D01*
X131974651Y-92726392D01*
X131962875Y-92710272D01*
X131960547Y-92708017D01*
X131923055Y-92685503D01*
X131850090Y-92651158D01*
X131750588Y-92608411D01*
X131633482Y-92560692D01*
X131507707Y-92511430D01*
X131382198Y-92464055D01*
X131265890Y-92421995D01*
X131167716Y-92388680D01*
X131096612Y-92367541D01*
X131061513Y-92362005D01*
X131060283Y-92362466D01*
X131031594Y-92381223D01*
X130968470Y-92423776D01*
X130877482Y-92485653D01*
X130765200Y-92562382D01*
X130638195Y-92649491D01*
X130602102Y-92674299D01*
X130471252Y-92762753D01*
X130351864Y-92840588D01*
X130250793Y-92903566D01*
X130174896Y-92947445D01*
X130131028Y-92967985D01*
X130125638Y-92968980D01*
X130097311Y-92951722D01*
X130041194Y-92904036D01*
X129963318Y-92832050D01*
X129869715Y-92741897D01*
X129766414Y-92639705D01*
X129659449Y-92531606D01*
X129554849Y-92423728D01*
X129458646Y-92322204D01*
X129376871Y-92233162D01*
X129315555Y-92162733D01*
X129280729Y-92117047D01*
X129275043Y-92104409D01*
X129288435Y-92074991D01*
X129324556Y-92014761D01*
X129377319Y-91933530D01*
X129419788Y-91871030D01*
X129497715Y-91757785D01*
X129589471Y-91623674D01*
X129681080Y-91489155D01*
X129730109Y-91416833D01*
X129895685Y-91172038D01*
X129784580Y-90966551D01*
X129735907Y-90872936D01*
X129698074Y-90793330D01*
X129676497Y-90739467D01*
X129673494Y-90725757D01*
X129695662Y-90709270D01*
X129758306Y-90676745D01*
X129855646Y-90630609D01*
X129981906Y-90573290D01*
X130131305Y-90507216D01*
X130298067Y-90434815D01*
X130476413Y-90358516D01*
X130660564Y-90280746D01*
X130844743Y-90203934D01*
X131023170Y-90130506D01*
X131190068Y-90062892D01*
X131339658Y-90003520D01*
X131466162Y-89954816D01*
X131563801Y-89919210D01*
X131626798Y-89899130D01*
X131648434Y-89895900D01*
X131676031Y-89921496D01*
X131720830Y-89977539D01*
X131773521Y-90052311D01*
X131777690Y-90058587D01*
X131932386Y-90251845D01*
X132112864Y-90407674D01*
X132313353Y-90524724D01*
X132528081Y-90601645D01*
X132751278Y-90637086D01*
X132977174Y-90629697D01*
X133199996Y-90578127D01*
X133413976Y-90481026D01*
X133460791Y-90452458D01*
X133649837Y-90303868D01*
X133801643Y-90128327D01*
X133915421Y-89931910D01*
X133990380Y-89720693D01*
X134025733Y-89500753D01*
X134020688Y-89278163D01*
X133974456Y-89059001D01*
X133886249Y-88849342D01*
X133755276Y-88655261D01*
X133702118Y-88595226D01*
X133535716Y-88442435D01*
X133360543Y-88331097D01*
X133164189Y-88254723D01*
X132969738Y-88212187D01*
X132751113Y-88201686D01*
X132531403Y-88236701D01*
X132318035Y-88313673D01*
X132118433Y-88429047D01*
X131940026Y-88579266D01*
X131790238Y-88760773D01*
X131774449Y-88784627D01*
X131722743Y-88860201D01*
X131677943Y-88917651D01*
X131649338Y-88945117D01*
X131648434Y-88945517D01*
X131617491Y-88939620D01*
X131547264Y-88916245D01*
X131443530Y-88877821D01*
X131312065Y-88826777D01*
X131158648Y-88765542D01*
X130989054Y-88696544D01*
X130809062Y-88622214D01*
X130624447Y-88544978D01*
X130440987Y-88467268D01*
X130264459Y-88391511D01*
X130100641Y-88320137D01*
X129955308Y-88255574D01*
X129834238Y-88200252D01*
X129743208Y-88156600D01*
X129687995Y-88127046D01*
X129673494Y-88115144D01*
X129684786Y-88078777D01*
X129715070Y-88010730D01*
X129758935Y-87922737D01*
X129784580Y-87874351D01*
X129895685Y-87668863D01*
X129730109Y-87424068D01*
X129645285Y-87299106D01*
X129551939Y-87162295D01*
X129464047Y-87034089D01*
X129419788Y-86969871D01*
X129359137Y-86879551D01*
X129311074Y-86803071D01*
X129281685Y-86750407D01*
X129275473Y-86733302D01*
X129292232Y-86708405D01*
X129339019Y-86653305D01*
X129410975Y-86573343D01*
X129503243Y-86473861D01*
X129610965Y-86360200D01*
X129680129Y-86288315D01*
X129803698Y-86162551D01*
X129914221Y-86053863D01*
X130006970Y-85966645D01*
X130077218Y-85905289D01*
X130120235Y-85874191D01*
X130128965Y-85871208D01*
X130162171Y-85885053D01*
X130229313Y-85923312D01*
X130323592Y-85981742D01*
X130438210Y-86056097D01*
X130566372Y-86142135D01*
X130602102Y-86166603D01*
X130731966Y-86255755D01*
X130848886Y-86335738D01*
X130946293Y-86402080D01*
X131017616Y-86450311D01*
X131056285Y-86475957D01*
X131060283Y-86478435D01*
X131091100Y-86474729D01*
X131158856Y-86455061D01*
X131254616Y-86422860D01*
X131369446Y-86381555D01*
X131494411Y-86334575D01*
X131620576Y-86285349D01*
X131739007Y-86237308D01*
X131840770Y-86193881D01*
X131916929Y-86158496D01*
X131958551Y-86134584D01*
X131960547Y-86132884D01*
X131972442Y-86118262D01*
X131984205Y-86093565D01*
X131997054Y-86053372D01*
X132012206Y-85992263D01*
X132030879Y-85904817D01*
X132054290Y-85785612D01*
X132083658Y-85629227D01*
X132120200Y-85430243D01*
X132128057Y-85387160D01*
X132152728Y-85259471D01*
X132176862Y-85148153D01*
X132198131Y-85063045D01*
X132214207Y-85013983D01*
X132217955Y-85007405D01*
X132251182Y-84996564D01*
X132325434Y-84987753D01*
X132432079Y-84980976D01*
X132562488Y-84976240D01*
X132708028Y-84973550D01*
X132860069Y-84972913D01*
X133009979Y-84974334D01*
D19*
X153135359Y-125348000D02*
X153442641Y-125348000D01*
X153135359Y-124588000D02*
X153442641Y-124588000D01*
X134621000Y-114222559D02*
X134621000Y-114529841D01*
X135381000Y-114222559D02*
X135381000Y-114529841D01*
X125223241Y-123902200D02*
X124915959Y-123902200D01*
X125223241Y-124662200D02*
X124915959Y-124662200D01*
D12*
X148820000Y-115320100D02*
X148820000Y-115020100D01*
X152170000Y-111970100D02*
X152170000Y-112270100D01*
X152170000Y-115320100D02*
X152170000Y-115020100D01*
X148820000Y-112195100D02*
X147595000Y-112195100D01*
X148820000Y-115320100D02*
X152170000Y-115320100D01*
X148820000Y-111970100D02*
X148820000Y-112195100D01*
X148820000Y-111970100D02*
X152170000Y-111970100D01*
D19*
X169658000Y-63345000D02*
X169658000Y-59135000D01*
X169658000Y-59135000D02*
X166638000Y-59135000D01*
X166638000Y-59135000D02*
X166638000Y-63345000D01*
X131979641Y-111024400D02*
X131672359Y-111024400D01*
X131979641Y-111784400D02*
X131672359Y-111784400D01*
X136018000Y-123115041D02*
X136018000Y-122807759D01*
X136778000Y-123115041D02*
X136778000Y-122807759D01*
X153310000Y-119995836D02*
X153310000Y-119780164D01*
X154030000Y-119995836D02*
X154030000Y-119780164D01*
X146430000Y-99211159D02*
X146430000Y-99518441D01*
X145670000Y-99211159D02*
X145670000Y-99518441D01*
D14*
X134033300Y-100365600D02*
X134033300Y-100904000D01*
X135633500Y-104635300D02*
X131338300Y-104635300D01*
X131338300Y-96634300D02*
X135633500Y-96634300D01*
X134033300Y-102367100D02*
X134033300Y-103934300D01*
X134033300Y-100713500D02*
X134033300Y-100904000D01*
X128031200Y-103004600D02*
X128031200Y-98265000D01*
X135633500Y-96634300D02*
X135633500Y-97335300D01*
X135633500Y-97335300D02*
X134033300Y-97335300D01*
X135633500Y-103934300D02*
X135633500Y-104635300D01*
X134033300Y-97335300D02*
X134033300Y-98902500D01*
X134033300Y-103934300D02*
X135633500Y-103934300D01*
X139700000Y-55069700D02*
X139700000Y-58059300D01*
X141831100Y-67970400D02*
X141820900Y-67970400D01*
X154940000Y-55069700D02*
X154940000Y-58011100D01*
X142618500Y-70071000D02*
X144470100Y-70071000D01*
X139700000Y-67970400D02*
X142191800Y-67970400D01*
X142618500Y-70071000D02*
X142224800Y-70071000D01*
X142224800Y-70071000D02*
X142224800Y-67970400D01*
X154940000Y-68021200D02*
X154940000Y-60860900D01*
X139700000Y-60800000D02*
X139700000Y-67970400D01*
X154940000Y-55069700D02*
X139700000Y-55069700D01*
X144287200Y-69321700D02*
G75*
G03*
X144287200Y-69321700I-53300J0D01*
G01*
D19*
X152599564Y-83672000D02*
X152815236Y-83672000D01*
X152599564Y-82952000D02*
X152815236Y-82952000D01*
X141096000Y-116635559D02*
X141096000Y-116942841D01*
X140336000Y-116635559D02*
X140336000Y-116942841D01*
X146889200Y-72670641D02*
X146889200Y-72363359D01*
X147649200Y-72670641D02*
X147649200Y-72363359D01*
X136830800Y-116635559D02*
X136830800Y-116942841D01*
X137590800Y-116635559D02*
X137590800Y-116942841D01*
X133376400Y-114222559D02*
X133376400Y-114529841D01*
X134136400Y-114222559D02*
X134136400Y-114529841D01*
D14*
X147754400Y-90373200D02*
X148770400Y-90373200D01*
X148770400Y-91897200D02*
X147754400Y-91897200D01*
D19*
X151147400Y-85928200D02*
X151147400Y-85278200D01*
X154267400Y-85928200D02*
X154267400Y-84253200D01*
X151147400Y-85928200D02*
X151147400Y-86578200D01*
X154267400Y-85928200D02*
X154267400Y-86578200D01*
X147112400Y-101555436D02*
X147112400Y-101339764D01*
X147832400Y-101555436D02*
X147832400Y-101339764D01*
X142112000Y-72363359D02*
X142112000Y-72670641D01*
X141352000Y-72363359D02*
X141352000Y-72670641D01*
X139071236Y-117809600D02*
X138855564Y-117809600D01*
X139071236Y-117089600D02*
X138855564Y-117089600D01*
X145449600Y-72670641D02*
X145449600Y-72363359D01*
X144689600Y-72670641D02*
X144689600Y-72363359D01*
X124915959Y-117474000D02*
X125223241Y-117474000D01*
X124915959Y-116714000D02*
X125223241Y-116714000D01*
X140690600Y-102244800D02*
X139190600Y-102244800D01*
X140690600Y-99024800D02*
X139190600Y-99024800D01*
X140690600Y-99024800D02*
X142190600Y-99024800D01*
X140690600Y-102244800D02*
X143615600Y-102244800D01*
X153490700Y-72670641D02*
X153490700Y-72363359D01*
X154250700Y-72670641D02*
X154250700Y-72363359D01*
X140536959Y-97740200D02*
X140844241Y-97740200D01*
X140536959Y-98500200D02*
X140844241Y-98500200D01*
X152861041Y-89409000D02*
X152553759Y-89409000D01*
X152861041Y-90169000D02*
X152553759Y-90169000D01*
X142970364Y-81885200D02*
X143186036Y-81885200D01*
X142970364Y-82605200D02*
X143186036Y-82605200D01*
D14*
X158485800Y-90467100D02*
X158485800Y-90586500D01*
X163984900Y-90985300D02*
X163484600Y-90987800D01*
X164033200Y-64924900D02*
X164033200Y-63400900D01*
X163484600Y-90467100D02*
X163484600Y-90487500D01*
X163484600Y-66286300D02*
X163484600Y-66306700D01*
X157985500Y-93286500D02*
X157985500Y-90985300D01*
X158485800Y-90987800D02*
X158485800Y-90586500D01*
X164033200Y-63400900D02*
X157937200Y-63400900D01*
X164033200Y-64924900D02*
X164033200Y-65786000D01*
X161485600Y-93286500D02*
X157985500Y-93286500D01*
X163484600Y-90987800D02*
X163484600Y-90487500D01*
X157937200Y-63400900D02*
X157937200Y-65786000D01*
X163984900Y-90985300D02*
X163984900Y-91986100D01*
X163984900Y-91986100D02*
X161485600Y-93286500D01*
X163484600Y-65786000D02*
X163484600Y-66286300D01*
X164033200Y-65786000D02*
X163484600Y-65786000D01*
X157937200Y-65786000D02*
X158485800Y-65786000D01*
X158485800Y-65786000D02*
X158485800Y-66306700D01*
X157985500Y-90985300D02*
X158485800Y-90987800D01*
D19*
X154030000Y-117748164D02*
X154030000Y-117963836D01*
X153310000Y-117748164D02*
X153310000Y-117963836D01*
X156717000Y-64616359D02*
X156717000Y-64923641D01*
X155957000Y-64616359D02*
X155957000Y-64923641D01*
D20*
X132411600Y-67564000D02*
G75*
G03*
X132411600Y-67564000I-50000J0D01*
G01*
D12*
X150522400Y-88518400D02*
X150297400Y-88518400D01*
X147397400Y-88518400D02*
X147397400Y-89593400D01*
X150522400Y-88518400D02*
X150522400Y-85268400D01*
X150522400Y-85268400D02*
X150297400Y-85268400D01*
X147272400Y-88518400D02*
X147397400Y-88518400D01*
X147272400Y-85268400D02*
X147497400Y-85268400D01*
X147272400Y-88518400D02*
X147272400Y-85268400D01*
D19*
X149088800Y-72670641D02*
X149088800Y-72363359D01*
X149848800Y-72670641D02*
X149848800Y-72363359D01*
X124915959Y-111784400D02*
X125223241Y-111784400D01*
X124915959Y-111024400D02*
X125223241Y-111024400D01*
X147092400Y-99211159D02*
X147092400Y-99518441D01*
X147852400Y-99211159D02*
X147852400Y-99518441D01*
X133376400Y-119508241D02*
X133376400Y-119200959D01*
X134136400Y-119508241D02*
X134136400Y-119200959D01*
X134218000Y-109721764D02*
X134218000Y-109937436D01*
X133498000Y-109721764D02*
X133498000Y-109937436D01*
X167994359Y-112521000D02*
X168301641Y-112521000D01*
X167994359Y-111761000D02*
X168301641Y-111761000D01*
D20*
X158141800Y-124968000D02*
G75*
G03*
X158141800Y-124968000I-50000J0D01*
G01*
D19*
X142555600Y-72409164D02*
X142555600Y-72624836D01*
X143275600Y-72409164D02*
X143275600Y-72624836D01*
X138739200Y-119640236D02*
X138739200Y-119424564D01*
X138019200Y-119640236D02*
X138019200Y-119424564D01*
D14*
X132689600Y-124340600D02*
X132689600Y-122971600D01*
X126291300Y-121259600D02*
X126291300Y-120223300D01*
X126949200Y-126372600D02*
X126949200Y-124340600D01*
X132029200Y-126372600D02*
X126949200Y-126372600D01*
X132689600Y-115709700D02*
X132689600Y-112341700D01*
X132689600Y-120711000D02*
X132689600Y-117972800D01*
X126291300Y-117960100D02*
X126291300Y-115722400D01*
X126291300Y-113459300D02*
X126291300Y-112341700D01*
X132029200Y-126372600D02*
X132029200Y-124340600D01*
X126291300Y-124340600D02*
X126291300Y-123522700D01*
X132689600Y-124340600D02*
X126291300Y-124340600D01*
X132689600Y-112341700D02*
X126291300Y-112341700D01*
D19*
X151291000Y-72670641D02*
X151291000Y-72363359D01*
X152051000Y-72670641D02*
X152051000Y-72363359D01*
X139071236Y-115819600D02*
X138855564Y-115819600D01*
X139071236Y-116539600D02*
X138855564Y-116539600D01*
X139907600Y-119640236D02*
X139907600Y-119424564D01*
X139187600Y-119640236D02*
X139187600Y-119424564D01*
X127285636Y-111044400D02*
X127069964Y-111044400D01*
X127285636Y-111764400D02*
X127069964Y-111764400D01*
X140823836Y-89285400D02*
X140608164Y-89285400D01*
X140823836Y-88565400D02*
X140608164Y-88565400D01*
X148395636Y-92527800D02*
X148179964Y-92527800D01*
X148395636Y-93247800D02*
X148179964Y-93247800D01*
D14*
X133619200Y-56560700D02*
X133619200Y-57762100D01*
X133619200Y-56560700D02*
X135620800Y-56560700D01*
X132318800Y-57762100D02*
X136921200Y-57762100D01*
X133731000Y-60060800D02*
X135509000Y-60060800D01*
X136921200Y-57762100D02*
X136921200Y-57899300D01*
X135620800Y-56560700D02*
X135620800Y-57762100D01*
X132318800Y-57899300D02*
X132318800Y-57762100D01*
D19*
X160400000Y-120707000D02*
X160400000Y-122707000D01*
X160400000Y-126507000D02*
X169800000Y-126507000D01*
X169800000Y-124607000D02*
X169800000Y-126507000D01*
X160400000Y-124607000D02*
X160400000Y-126507000D01*
X169800000Y-120707000D02*
X169800000Y-122707000D01*
D14*
X126634200Y-56560700D02*
X128635800Y-56560700D01*
X125333800Y-57899300D02*
X125333800Y-57762100D01*
X129936200Y-57762100D02*
X129936200Y-57899300D01*
X128635800Y-56560700D02*
X128635800Y-57762100D01*
X126634200Y-56560700D02*
X126634200Y-57762100D01*
X125333800Y-57762100D02*
X129936200Y-57762100D01*
X126746000Y-60060800D02*
X128524000Y-60060800D01*
D19*
X141883400Y-122807759D02*
X141883400Y-123115041D01*
X141123400Y-122807759D02*
X141123400Y-123115041D01*
X140536959Y-102794800D02*
X140844241Y-102794800D01*
X140536959Y-103554800D02*
X140844241Y-103554800D01*
X129609964Y-111044400D02*
X129825636Y-111044400D01*
X129609964Y-111764400D02*
X129825636Y-111764400D01*
X138512436Y-102814800D02*
X138296764Y-102814800D01*
X138512436Y-103534800D02*
X138296764Y-103534800D01*
X152147000Y-124607000D02*
X152147000Y-126507000D01*
X142747000Y-120707000D02*
X142747000Y-122707000D01*
X152147000Y-120707000D02*
X152147000Y-122707000D01*
X142747000Y-124607000D02*
X142747000Y-126507000D01*
X142747000Y-126507000D02*
X152147000Y-126507000D01*
X141204836Y-120925000D02*
X140989164Y-120925000D01*
X141204836Y-121645000D02*
X140989164Y-121645000D01*
X167994359Y-115569000D02*
X168301641Y-115569000D01*
X167994359Y-114809000D02*
X168301641Y-114809000D01*
X150572800Y-82548759D02*
X150572800Y-82856041D01*
X149812800Y-82548759D02*
X149812800Y-82856041D01*
X139071236Y-121645000D02*
X138855564Y-121645000D01*
X139071236Y-120925000D02*
X138855564Y-120925000D01*
X154650000Y-118872000D02*
X154650000Y-119522000D01*
X154650000Y-118872000D02*
X154650000Y-118222000D01*
X157770000Y-118872000D02*
X157770000Y-117197000D01*
X157770000Y-118872000D02*
X157770000Y-119522000D01*
X140976236Y-82605200D02*
X140760564Y-82605200D01*
X140976236Y-81885200D02*
X140760564Y-81885200D01*
X127897192Y-69951400D02*
X128297192Y-70151400D01*
X128297192Y-69751400D02*
X127897192Y-69951400D01*
X125707192Y-82416400D02*
X125707192Y-82526400D01*
X125707192Y-82526400D02*
X125107192Y-82526400D01*
X125707192Y-66986400D02*
X125707192Y-66876400D01*
X125707192Y-66876400D02*
X125107192Y-66876400D01*
X128297192Y-70151400D02*
X128297192Y-69751400D01*
X135840441Y-67184000D02*
X135533159Y-67184000D01*
X135840441Y-67944000D02*
X135533159Y-67944000D01*
X157382800Y-59543836D02*
X157382800Y-59328164D01*
X156662800Y-59543836D02*
X156662800Y-59328164D01*
X168301641Y-114045000D02*
X167994359Y-114045000D01*
X168301641Y-113285000D02*
X167994359Y-113285000D01*
X144318400Y-101547636D02*
X144318400Y-101331964D01*
X145038400Y-101547636D02*
X145038400Y-101331964D01*
X141012200Y-72363359D02*
X141012200Y-72670641D01*
X140252200Y-72363359D02*
X140252200Y-72670641D01*
X142822959Y-103554800D02*
X143130241Y-103554800D01*
X142822959Y-102794800D02*
X143130241Y-102794800D01*
X144729200Y-112085100D02*
X143929200Y-112085100D01*
X144729200Y-115205100D02*
X146529200Y-115205100D01*
X144729200Y-115205100D02*
X143929200Y-115205100D01*
X144729200Y-112085100D02*
X145529200Y-112085100D01*
X124915959Y-113003600D02*
X125223241Y-113003600D01*
X124915959Y-112243600D02*
X125223241Y-112243600D01*
X129896841Y-109525800D02*
X129589559Y-109525800D01*
X129896841Y-110285800D02*
X129589559Y-110285800D01*
X134600836Y-111044400D02*
X134385164Y-111044400D01*
X134600836Y-111764400D02*
X134385164Y-111764400D01*
X146549400Y-72670641D02*
X146549400Y-72363359D01*
X145789400Y-72670641D02*
X145789400Y-72363359D01*
X161944164Y-114025000D02*
X162159836Y-114025000D01*
X161944164Y-113305000D02*
X162159836Y-113305000D01*
X131678000Y-109937436D02*
X131678000Y-109721764D01*
X130958000Y-109937436D02*
X130958000Y-109721764D01*
X147989000Y-72670641D02*
X147989000Y-72363359D01*
X148749000Y-72670641D02*
X148749000Y-72363359D01*
X140336000Y-119378759D02*
X140336000Y-119686041D01*
X141096000Y-119378759D02*
X141096000Y-119686041D01*
X145690000Y-101555436D02*
X145690000Y-101339764D01*
X146410000Y-101555436D02*
X146410000Y-101339764D01*
X134392641Y-124281200D02*
X134085359Y-124281200D01*
X134392641Y-123521200D02*
X134085359Y-123521200D01*
D12*
X144110600Y-83448000D02*
X144110600Y-83973000D01*
X144110600Y-87748000D02*
X143585600Y-87748000D01*
X139810600Y-87748000D02*
X140335600Y-87748000D01*
X144110600Y-83448000D02*
X143585600Y-83448000D01*
X139810600Y-87748000D02*
X139810600Y-87223000D01*
X139810600Y-83448000D02*
X140335600Y-83448000D01*
X139810600Y-83448000D02*
X139810600Y-83973000D01*
D19*
X136625600Y-114529841D02*
X136625600Y-114222559D01*
X135865600Y-114529841D02*
X135865600Y-114222559D01*
X136830800Y-119686041D02*
X136830800Y-119378759D01*
X137590800Y-119686041D02*
X137590800Y-119378759D01*
X138937000Y-82856041D02*
X138937000Y-82548759D01*
X138177000Y-82856041D02*
X138177000Y-82548759D01*
X154326000Y-113772836D02*
X154326000Y-113557164D01*
X155046000Y-113772836D02*
X155046000Y-113557164D01*
X155957000Y-91743559D02*
X155957000Y-92050841D01*
X156717000Y-91743559D02*
X156717000Y-92050841D01*
X147292800Y-82835636D02*
X147292800Y-82619964D01*
X148012800Y-82835636D02*
X148012800Y-82619964D01*
X153150800Y-72670641D02*
X153150800Y-72363359D01*
X152390800Y-72670641D02*
X152390800Y-72363359D01*
X136963400Y-125077600D02*
X140963400Y-125077600D01*
X140963400Y-125077600D02*
X140963400Y-123877600D01*
X140963400Y-123877600D02*
X136963400Y-123877600D01*
X136963400Y-123877600D02*
X136963400Y-125077600D01*
D21*
X140743400Y-123007600D02*
G75*
G03*
X140743400Y-123007600I-180000J0D01*
G01*
D14*
X160035200Y-56560700D02*
X160035200Y-57762100D01*
X162036800Y-56560700D02*
X162036800Y-57762100D01*
X158734800Y-57762100D02*
X163337200Y-57762100D01*
X160035200Y-56560700D02*
X162036800Y-56560700D01*
X158734800Y-57899300D02*
X158734800Y-57762100D01*
X163337200Y-57762100D02*
X163337200Y-57899300D01*
X160147000Y-60060800D02*
X161925000Y-60060800D01*
D19*
X138917000Y-84728164D02*
X138917000Y-84943836D01*
X138197000Y-84728164D02*
X138197000Y-84943836D01*
X134768000Y-109721764D02*
X134768000Y-109937436D01*
X135488000Y-109721764D02*
X135488000Y-109937436D01*
D14*
X157152300Y-107134700D02*
X157152300Y-106944200D01*
X157152300Y-105481100D02*
X157152300Y-103913900D01*
X159847300Y-111213900D02*
X155552100Y-111213900D01*
X155552100Y-103212900D02*
X159847300Y-103212900D01*
X157152300Y-103913900D02*
X155552100Y-103913900D01*
X157152300Y-110512900D02*
X157152300Y-108945700D01*
X157152300Y-107482600D02*
X157152300Y-106944200D01*
X163154400Y-104843600D02*
X163154400Y-109583200D01*
X155552100Y-103913900D02*
X155552100Y-103212900D01*
X155552100Y-110512900D02*
X157152300Y-110512900D01*
X155552100Y-111213900D02*
X155552100Y-110512900D01*
D19*
X152599564Y-88904400D02*
X152815236Y-88904400D01*
X152599564Y-88184400D02*
X152815236Y-88184400D01*
X149302800Y-82548759D02*
X149302800Y-82856041D01*
X148542800Y-82548759D02*
X148542800Y-82856041D01*
X136937636Y-121645000D02*
X136721964Y-121645000D01*
X136937636Y-120925000D02*
X136721964Y-120925000D01*
X166660000Y-113645100D02*
X166660000Y-112845100D01*
X166660000Y-113645100D02*
X166660000Y-114445100D01*
X163540000Y-113645100D02*
X163540000Y-115445100D01*
X163540000Y-113645100D02*
X163540000Y-112845100D01*
X132968000Y-109675959D02*
X132968000Y-109983241D01*
X132208000Y-109675959D02*
X132208000Y-109983241D01*
%LPC*%
D22*
X152779000Y-124968000D03*
X153799000Y-124968000D03*
D23*
X135001000Y-113866200D03*
X135001000Y-114886200D03*
D24*
X125579600Y-124282200D03*
X124559600Y-124282200D03*
D25*
X148295000Y-112645100D03*
X148295000Y-113145100D03*
X148295000Y-113645100D03*
X148295000Y-114145100D03*
X148295000Y-114645100D03*
X152695000Y-114645100D03*
X152695000Y-114145100D03*
X152695000Y-113645100D03*
X152695000Y-113145100D03*
X152695000Y-112645100D03*
D26*
X168148000Y-60057500D03*
X168148000Y-63132500D03*
D24*
X132336000Y-111404400D03*
X131316000Y-111404400D03*
D27*
X136398000Y-123471400D03*
X136398000Y-122451400D03*
D28*
X153670000Y-120368000D03*
X153670000Y-119408000D03*
D23*
X146050000Y-98854800D03*
X146050000Y-99874800D03*
D29*
X135056900Y-99634000D03*
X135056900Y-101635600D03*
D30*
X129407900Y-103985100D03*
X129407900Y-97284500D03*
D31*
X144269500Y-59070200D03*
X152270500Y-59070200D03*
D32*
X145069600Y-70071000D03*
X146169400Y-70071000D03*
X147269200Y-70071000D03*
X148369000Y-70071000D03*
X149468800Y-70071000D03*
X150568700Y-70071000D03*
X151671000Y-70071000D03*
X152770800Y-70071000D03*
D33*
X155069500Y-69070200D03*
D34*
X155069500Y-59469000D03*
X139570500Y-59469000D03*
D35*
X140469600Y-69070200D03*
D32*
X153870700Y-70071000D03*
D36*
X152227400Y-83312000D03*
X153187400Y-83312000D03*
D23*
X140716000Y-116279200D03*
X140716000Y-117299200D03*
D27*
X147269200Y-73027000D03*
X147269200Y-72007000D03*
D23*
X137210800Y-116279200D03*
X137210800Y-117299200D03*
X133756400Y-113866200D03*
X133756400Y-114886200D03*
D37*
X149512100Y-91135200D03*
X147012700Y-91135200D03*
D38*
X153657400Y-84990700D03*
X151757400Y-84990700D03*
X152707400Y-86865700D03*
D28*
X147472400Y-101927600D03*
X147472400Y-100967600D03*
D23*
X141732000Y-72007000D03*
X141732000Y-73027000D03*
D39*
X139443400Y-117449600D03*
X138483400Y-117449600D03*
D27*
X145069600Y-73027000D03*
X145069600Y-72007000D03*
D22*
X124559600Y-117094000D03*
X125579600Y-117094000D03*
D40*
X142803100Y-101609800D03*
X142803100Y-100959800D03*
X142803100Y-100309800D03*
X142803100Y-99659800D03*
X138578100Y-99659800D03*
X138578100Y-100309800D03*
X138578100Y-100959800D03*
X138578100Y-101609800D03*
D27*
X153870700Y-73027000D03*
X153870700Y-72007000D03*
D22*
X140180600Y-98120200D03*
X141200600Y-98120200D03*
D24*
X153217400Y-89789000D03*
X152197400Y-89789000D03*
D36*
X142598200Y-82245200D03*
X143558200Y-82245200D03*
D41*
X160985200Y-92486400D03*
D42*
X160985200Y-64287400D03*
D43*
X163184800Y-66786700D03*
X163184800Y-67586800D03*
X163184800Y-68386900D03*
X163184800Y-69187000D03*
X163184800Y-69987100D03*
X163184800Y-70787200D03*
X163184800Y-71587300D03*
X163184800Y-72387400D03*
X163184800Y-73187500D03*
X163184800Y-73987600D03*
X163184800Y-74787700D03*
X163184800Y-75587800D03*
X163184800Y-76387900D03*
X163184800Y-77188000D03*
X163184800Y-77988100D03*
X163184800Y-78788200D03*
X163184800Y-79585800D03*
X163184800Y-80385900D03*
X163184800Y-81186000D03*
X163184800Y-81986100D03*
X163184800Y-82786200D03*
X163184800Y-83586300D03*
X163184800Y-84386400D03*
X163184800Y-85186500D03*
X163184800Y-85986600D03*
X163184800Y-86786700D03*
X163184800Y-87586800D03*
X163184800Y-88386900D03*
X163184800Y-89187000D03*
X163184800Y-89987100D03*
X158785600Y-66786700D03*
X158785600Y-67586800D03*
X158785600Y-68386900D03*
X158785600Y-69187000D03*
X158785600Y-69987100D03*
X158785600Y-70787200D03*
X158785600Y-71587300D03*
X158785600Y-72387400D03*
X158785600Y-73187500D03*
X158785600Y-73987600D03*
X158785600Y-74787700D03*
X158785600Y-75587800D03*
X158785600Y-76387900D03*
X158785600Y-77188000D03*
X158785600Y-77988100D03*
X158785600Y-78788200D03*
X158785600Y-79585800D03*
X158785600Y-80385900D03*
X158785600Y-81186000D03*
X158785600Y-81986100D03*
X158785600Y-82786200D03*
X158785600Y-83586300D03*
X158785600Y-84386400D03*
X158785600Y-85186500D03*
X158785600Y-85986600D03*
X158785600Y-86786700D03*
X158785600Y-87586800D03*
X158785600Y-88386900D03*
X158785600Y-89187000D03*
X158785600Y-89987100D03*
D44*
X153670000Y-117376000D03*
X153670000Y-118336000D03*
D23*
X156337000Y-64260000D03*
X156337000Y-65280000D03*
D45*
X132966600Y-67564000D03*
X133936600Y-67564000D03*
D46*
X147922400Y-89043400D03*
X148572400Y-89043400D03*
X149222400Y-89043400D03*
X149872400Y-89043400D03*
X149872400Y-84743400D03*
X149222400Y-84743400D03*
X148572400Y-84743400D03*
X147922400Y-84743400D03*
D27*
X149468800Y-73027000D03*
X149468800Y-72007000D03*
D22*
X124559600Y-111404400D03*
X125579600Y-111404400D03*
D23*
X147472400Y-98854800D03*
X147472400Y-99874800D03*
D27*
X133756400Y-119864600D03*
X133756400Y-118844600D03*
D44*
X133858000Y-109349600D03*
X133858000Y-110309600D03*
D22*
X167638000Y-112141000D03*
X168658000Y-112141000D03*
D45*
X158696800Y-124968000D03*
X159666800Y-124968000D03*
D44*
X142915600Y-72037000D03*
X142915600Y-72997000D03*
D28*
X138379200Y-120012400D03*
X138379200Y-119052400D03*
D47*
X129489200Y-115341400D03*
X129489200Y-121340900D03*
D48*
X125890000Y-122389900D03*
D49*
X133190000Y-116840000D03*
D48*
X125890000Y-119090400D03*
X125890000Y-114592100D03*
D49*
X133190000Y-121841300D03*
D27*
X151671000Y-73027000D03*
X151671000Y-72007000D03*
D39*
X139443400Y-116179600D03*
X138483400Y-116179600D03*
D28*
X139547600Y-120012400D03*
X139547600Y-119052400D03*
D39*
X127657800Y-111404400D03*
X126697800Y-111404400D03*
X141196000Y-88925400D03*
X140236000Y-88925400D03*
X148767800Y-92887800D03*
X147807800Y-92887800D03*
D50*
X135470900Y-58661300D03*
D51*
X136921200Y-58661300D03*
D52*
X132321300Y-58661300D03*
D50*
X133769100Y-58661300D03*
D53*
X132946100Y-60210700D03*
X136296400Y-60210700D03*
D54*
X167990000Y-120007000D03*
X162210000Y-120007000D03*
D55*
X161850000Y-118562000D03*
X162650000Y-118562000D03*
D56*
X163850000Y-118562000D03*
X164850000Y-118562000D03*
X165350000Y-118562000D03*
X166350000Y-118562000D03*
D55*
X167550000Y-118562000D03*
X168350000Y-118562000D03*
X168350000Y-118562000D03*
X167550000Y-118562000D03*
D56*
X166850000Y-118562000D03*
X165850000Y-118562000D03*
X164350000Y-118562000D03*
X163350000Y-118562000D03*
D55*
X162650000Y-118562000D03*
X161850000Y-118562000D03*
D57*
X169420000Y-119477000D03*
D58*
X160780000Y-123657000D03*
X169420000Y-123657000D03*
D57*
X160780000Y-119477000D03*
D52*
X125336300Y-58661300D03*
D50*
X126784100Y-58661300D03*
X128485900Y-58661300D03*
D51*
X129936200Y-58661300D03*
D53*
X125961100Y-60210700D03*
X129311400Y-60210700D03*
D23*
X141503400Y-122451400D03*
X141503400Y-123471400D03*
D22*
X140180600Y-103174800D03*
X141200600Y-103174800D03*
D36*
X129237800Y-111404400D03*
X130197800Y-111404400D03*
D39*
X138884600Y-103174800D03*
X137924600Y-103174800D03*
D54*
X144557000Y-120007000D03*
X150337000Y-120007000D03*
D55*
X144197000Y-118562000D03*
X144997000Y-118562000D03*
D56*
X146197000Y-118562000D03*
X147197000Y-118562000D03*
X147697000Y-118562000D03*
X148697000Y-118562000D03*
D55*
X149897000Y-118562000D03*
X150697000Y-118562000D03*
X150697000Y-118562000D03*
X149897000Y-118562000D03*
D56*
X149197000Y-118562000D03*
X148197000Y-118562000D03*
X146697000Y-118562000D03*
X145697000Y-118562000D03*
D55*
X144997000Y-118562000D03*
X144197000Y-118562000D03*
D58*
X143127000Y-123657000D03*
D57*
X143127000Y-119477000D03*
X151767000Y-119477000D03*
D58*
X151767000Y-123657000D03*
D39*
X141577000Y-121285000D03*
X140617000Y-121285000D03*
D22*
X167638000Y-115189000D03*
X168658000Y-115189000D03*
D23*
X150192800Y-82192400D03*
X150192800Y-83212400D03*
D39*
X139443400Y-121285000D03*
X138483400Y-121285000D03*
D38*
X157160000Y-117934500D03*
X155260000Y-117934500D03*
X156210000Y-119809500D03*
D39*
X141348400Y-82245200D03*
X140388400Y-82245200D03*
D59*
X129097192Y-69951400D03*
X129097192Y-70451400D03*
X129097192Y-70951400D03*
X129097192Y-71451400D03*
X129097192Y-71951400D03*
X129097192Y-72451400D03*
X129097192Y-72951400D03*
X129097192Y-73451400D03*
X129097192Y-73951400D03*
X129097192Y-74451400D03*
X129097192Y-74951400D03*
X129097192Y-75451400D03*
X129097192Y-75951400D03*
X129097192Y-76451400D03*
X129097192Y-76951400D03*
X129097192Y-77451400D03*
X129097192Y-77951400D03*
X129097192Y-78451400D03*
X129097192Y-78951400D03*
X129097192Y-79451400D03*
D60*
X127397192Y-68281400D03*
X127397192Y-81121400D03*
D24*
X136196800Y-67564000D03*
X135176800Y-67564000D03*
D28*
X157022800Y-59916000D03*
X157022800Y-58956000D03*
D24*
X168658000Y-113665000D03*
X167638000Y-113665000D03*
D28*
X144678400Y-101919800D03*
X144678400Y-100959800D03*
D23*
X140632200Y-72007000D03*
X140632200Y-73027000D03*
D22*
X142466600Y-103174800D03*
X143486600Y-103174800D03*
D61*
X145866700Y-114595100D03*
X145866700Y-113645100D03*
X145866700Y-112695100D03*
X143591700Y-112695100D03*
X143591700Y-113645100D03*
X143591700Y-114595100D03*
D22*
X124559600Y-112623600D03*
X125579600Y-112623600D03*
D24*
X130253200Y-109905800D03*
X129233200Y-109905800D03*
D39*
X134973000Y-111404400D03*
X134013000Y-111404400D03*
D27*
X146169400Y-73027000D03*
X146169400Y-72007000D03*
D36*
X161572000Y-113665000D03*
X162532000Y-113665000D03*
D28*
X131318000Y-110309600D03*
X131318000Y-109349600D03*
D27*
X148369000Y-73027000D03*
X148369000Y-72007000D03*
D23*
X140716000Y-119022400D03*
X140716000Y-120042400D03*
D28*
X146050000Y-101927600D03*
X146050000Y-100967600D03*
D24*
X134749000Y-123901200D03*
X133729000Y-123901200D03*
D62*
X143910600Y-86848000D03*
X143910600Y-86348000D03*
X143910600Y-85848000D03*
X143910600Y-85348000D03*
X143910600Y-84848000D03*
X143910600Y-84348000D03*
D63*
X143210600Y-83648000D03*
X142710600Y-83648000D03*
X142210600Y-83648000D03*
X141710600Y-83648000D03*
X141210600Y-83648000D03*
X140710600Y-83648000D03*
D62*
X140010600Y-84348000D03*
X140010600Y-84848000D03*
X140010600Y-85348000D03*
X140010600Y-85848000D03*
X140010600Y-86348000D03*
X140010600Y-86848000D03*
D63*
X140710600Y-87548000D03*
X141210600Y-87548000D03*
X141710600Y-87548000D03*
X142210600Y-87548000D03*
X142710600Y-87548000D03*
X143210600Y-87548000D03*
D27*
X136245600Y-114886200D03*
X136245600Y-113866200D03*
X137210800Y-120042400D03*
X137210800Y-119022400D03*
X138557000Y-83212400D03*
X138557000Y-82192400D03*
D28*
X154686000Y-114145000D03*
X154686000Y-113185000D03*
D23*
X156337000Y-91387200D03*
X156337000Y-92407200D03*
D28*
X147652800Y-83207800D03*
X147652800Y-82247800D03*
D27*
X152770800Y-73027000D03*
X152770800Y-72007000D03*
D64*
X138263400Y-123007600D03*
X139663400Y-123007600D03*
D50*
X161886900Y-58661300D03*
D52*
X158737300Y-58661300D03*
D50*
X160185100Y-58661300D03*
D51*
X163337200Y-58661300D03*
D53*
X159362100Y-60210700D03*
X162712400Y-60210700D03*
D44*
X138557000Y-84356000D03*
X138557000Y-85316000D03*
X135128000Y-109349600D03*
X135128000Y-110309600D03*
D65*
X156128700Y-108214200D03*
X156128700Y-106212600D03*
D66*
X161777700Y-103863100D03*
X161777700Y-110563700D03*
D36*
X152227400Y-88544400D03*
X153187400Y-88544400D03*
D23*
X148922800Y-82192400D03*
X148922800Y-83212400D03*
D39*
X137309800Y-121285000D03*
X136349800Y-121285000D03*
D67*
X164150000Y-114782600D03*
X165100000Y-114782600D03*
X166050000Y-114782600D03*
X166050000Y-112507600D03*
X165100000Y-112507600D03*
X164150000Y-112507600D03*
D23*
X132588000Y-109319600D03*
X132588000Y-110339600D03*
M02*
