G04 #@! TF.GenerationSoftware,KiCad,Pcbnew,(6.0.4)*
G04 #@! TF.CreationDate,2022-04-26T12:45:06+08:00*
G04 #@! TF.ProjectId,A133CoreDK,41313333-436f-4726-9544-4b2e6b696361,rev?*
G04 #@! TF.SameCoordinates,Original*
G04 #@! TF.FileFunction,Paste,Top*
G04 #@! TF.FilePolarity,Positive*
%FSLAX46Y46*%
G04 Gerber Fmt 4.6, Leading zero omitted, Abs format (unit mm)*
G04 Created by KiCad (PCBNEW (6.0.4)) date 2022-04-26 12:45:06*
%MOMM*%
%LPD*%
G01*
G04 APERTURE LIST*
G04 Aperture macros list*
%AMRoundRect*
0 Rectangle with rounded corners*
0 $1 Rounding radius*
0 $2 $3 $4 $5 $6 $7 $8 $9 X,Y pos of 4 corners*
0 Add a 4 corners polygon primitive as box body*
4,1,4,$2,$3,$4,$5,$6,$7,$8,$9,$2,$3,0*
0 Add four circle primitives for the rounded corners*
1,1,$1+$1,$2,$3*
1,1,$1+$1,$4,$5*
1,1,$1+$1,$6,$7*
1,1,$1+$1,$8,$9*
0 Add four rect primitives between the rounded corners*
20,1,$1+$1,$2,$3,$4,$5,0*
20,1,$1+$1,$4,$5,$6,$7,0*
20,1,$1+$1,$6,$7,$8,$9,0*
20,1,$1+$1,$8,$9,$2,$3,0*%
G04 Aperture macros list end*
%ADD10RoundRect,0.135000X-0.135000X-0.185000X0.135000X-0.185000X0.135000X0.185000X-0.135000X0.185000X0*%
%ADD11RoundRect,0.135000X-0.185000X0.135000X-0.185000X-0.135000X0.185000X-0.135000X0.185000X0.135000X0*%
%ADD12RoundRect,0.135000X0.135000X0.185000X-0.135000X0.185000X-0.135000X-0.185000X0.135000X-0.185000X0*%
%ADD13R,1.400000X0.300000*%
%ADD14RoundRect,0.250000X-0.925000X0.412500X-0.925000X-0.412500X0.925000X-0.412500X0.925000X0.412500X0*%
%ADD15RoundRect,0.135000X0.185000X-0.135000X0.185000X0.135000X-0.185000X0.135000X-0.185000X-0.135000X0*%
%ADD16RoundRect,0.140000X0.170000X-0.140000X0.170000X0.140000X-0.170000X0.140000X-0.170000X-0.140000X0*%
%ADD17RoundRect,0.050800X-1.850400X0.500400X-1.850400X-0.500400X1.850400X-0.500400X1.850400X0.500400X0*%
%ADD18RoundRect,0.050800X-1.700550X0.750550X-1.700550X-0.750550X1.700550X-0.750550X1.700550X0.750550X0*%
%ADD19RoundRect,0.050800X0.350500X0.800100X-0.350500X0.800100X-0.350500X-0.800100X0.350500X-0.800100X0*%
%ADD20RoundRect,0.050800X0.599450X0.750550X-0.599450X0.750550X-0.599450X-0.750550X0.599450X-0.750550X0*%
%ADD21RoundRect,0.050800X0.599450X1.099800X-0.599450X1.099800X-0.599450X-1.099800X0.599450X-1.099800X0*%
%ADD22RoundRect,0.050800X0.800100X0.750550X-0.800100X0.750550X-0.800100X-0.750550X0.800100X-0.750550X0*%
%ADD23RoundRect,0.140000X-0.140000X-0.170000X0.140000X-0.170000X0.140000X0.170000X-0.140000X0.170000X0*%
%ADD24RoundRect,0.050800X-0.500400X0.900450X-0.500400X-0.900450X0.500400X-0.900450X0.500400X0.900450X0*%
%ADD25RoundRect,0.150000X-0.150000X0.587500X-0.150000X-0.587500X0.150000X-0.587500X0.150000X0.587500X0*%
%ADD26RoundRect,0.140000X0.140000X0.170000X-0.140000X0.170000X-0.140000X-0.170000X0.140000X-0.170000X0*%
%ADD27RoundRect,0.100000X0.712500X0.100000X-0.712500X0.100000X-0.712500X-0.100000X0.712500X-0.100000X0*%
%ADD28RoundRect,0.050800X-0.999500X0.250200X-0.999500X-0.250200X0.999500X-0.250200X0.999500X0.250200X0*%
%ADD29RoundRect,0.140000X-0.170000X0.140000X-0.170000X-0.140000X0.170000X-0.140000X0.170000X0.140000X0*%
%ADD30RoundRect,0.147500X-0.147500X-0.172500X0.147500X-0.172500X0.147500X0.172500X-0.147500X0.172500X0*%
%ADD31R,0.400000X1.100000*%
%ADD32RoundRect,0.050800X1.399550X0.900450X-1.399550X0.900450X-1.399550X-0.900450X1.399550X-0.900450X0*%
%ADD33RoundRect,0.050800X1.249700X0.900450X-1.249700X0.900450X-1.249700X-0.900450X1.249700X-0.900450X0*%
%ADD34RoundRect,0.050800X0.449600X0.599450X-0.449600X0.599450X-0.449600X-0.599450X0.449600X-0.599450X0*%
%ADD35RoundRect,0.050800X-0.449600X-0.599450X0.449600X-0.599450X0.449600X0.599450X-0.449600X0.599450X0*%
%ADD36RoundRect,0.050800X0.599450X0.650250X-0.599450X0.650250X-0.599450X-0.650250X0.599450X-0.650250X0*%
%ADD37R,0.600000X1.450000*%
%ADD38R,0.300000X1.450000*%
%ADD39R,1.100000X0.300000*%
%ADD40R,3.100000X2.300000*%
%ADD41RoundRect,0.150000X0.512500X0.150000X-0.512500X0.150000X-0.512500X-0.150000X0.512500X-0.150000X0*%
%ADD42RoundRect,0.075000X0.350000X0.075000X-0.350000X0.075000X-0.350000X-0.075000X0.350000X-0.075000X0*%
%ADD43RoundRect,0.075000X-0.075000X0.350000X-0.075000X-0.350000X0.075000X-0.350000X0.075000X0.350000X0*%
%ADD44RoundRect,0.175000X0.175000X-0.625000X0.175000X0.625000X-0.175000X0.625000X-0.175000X-0.625000X0*%
%ADD45RoundRect,0.050800X1.850400X-0.500400X1.850400X0.500400X-1.850400X0.500400X-1.850400X-0.500400X0*%
%ADD46RoundRect,0.050800X1.700550X-0.750550X1.700550X0.750550X-1.700550X0.750550X-1.700550X-0.750550X0*%
%ADD47RoundRect,0.150000X0.150000X-0.512500X0.150000X0.512500X-0.150000X0.512500X-0.150000X-0.512500X0*%
G04 APERTURE END LIST*
D10*
X152779000Y-124968000D03*
X153799000Y-124968000D03*
D11*
X135001000Y-113866200D03*
X135001000Y-114886200D03*
D12*
X125579600Y-124282200D03*
X124559600Y-124282200D03*
D13*
X148295000Y-112645100D03*
X148295000Y-113145100D03*
X148295000Y-113645100D03*
X148295000Y-114145100D03*
X148295000Y-114645100D03*
X152695000Y-114645100D03*
X152695000Y-114145100D03*
X152695000Y-113645100D03*
X152695000Y-113145100D03*
X152695000Y-112645100D03*
D14*
X168148000Y-60057500D03*
X168148000Y-63132500D03*
D12*
X132336000Y-111404400D03*
X131316000Y-111404400D03*
D15*
X136398000Y-123471400D03*
X136398000Y-122451400D03*
D16*
X153670000Y-120368000D03*
X153670000Y-119408000D03*
D11*
X146050000Y-98854800D03*
X146050000Y-99874800D03*
D17*
X135056900Y-99634000D03*
X135056900Y-101635600D03*
D18*
X129407900Y-103985100D03*
X129407900Y-97284500D03*
D19*
X145069600Y-70071000D03*
X146169400Y-70071000D03*
X147269200Y-70071000D03*
X148369000Y-70071000D03*
X149468800Y-70071000D03*
X150568700Y-70071000D03*
X151671000Y-70071000D03*
X152770800Y-70071000D03*
D20*
X155069500Y-69070200D03*
D21*
X155069500Y-59469000D03*
X139570500Y-59469000D03*
D22*
X140469600Y-69070200D03*
D19*
X153870700Y-70071000D03*
D23*
X152227400Y-83312000D03*
X153187400Y-83312000D03*
D11*
X140716000Y-116279200D03*
X140716000Y-117299200D03*
D15*
X147269200Y-73027000D03*
X147269200Y-72007000D03*
D11*
X137210800Y-116279200D03*
X137210800Y-117299200D03*
X133756400Y-113866200D03*
X133756400Y-114886200D03*
D24*
X149512100Y-91135200D03*
X147012700Y-91135200D03*
D25*
X153657400Y-84990700D03*
X151757400Y-84990700D03*
X152707400Y-86865700D03*
D16*
X147472400Y-101927600D03*
X147472400Y-100967600D03*
D11*
X141732000Y-72007000D03*
X141732000Y-73027000D03*
D26*
X139443400Y-117449600D03*
X138483400Y-117449600D03*
D15*
X145069600Y-73027000D03*
X145069600Y-72007000D03*
D10*
X124559600Y-117094000D03*
X125579600Y-117094000D03*
D27*
X142803100Y-101609800D03*
X142803100Y-100959800D03*
X142803100Y-100309800D03*
X142803100Y-99659800D03*
X138578100Y-99659800D03*
X138578100Y-100309800D03*
X138578100Y-100959800D03*
X138578100Y-101609800D03*
D15*
X153870700Y-73027000D03*
X153870700Y-72007000D03*
D10*
X140180600Y-98120200D03*
X141200600Y-98120200D03*
D12*
X153217400Y-89789000D03*
X152197400Y-89789000D03*
D23*
X142598200Y-82245200D03*
X143558200Y-82245200D03*
D28*
X163184800Y-66786700D03*
X163184800Y-67586800D03*
X163184800Y-68386900D03*
X163184800Y-69187000D03*
X163184800Y-69987100D03*
X163184800Y-70787200D03*
X163184800Y-71587300D03*
X163184800Y-72387400D03*
X163184800Y-73187500D03*
X163184800Y-73987600D03*
X163184800Y-74787700D03*
X163184800Y-75587800D03*
X163184800Y-76387900D03*
X163184800Y-77188000D03*
X163184800Y-77988100D03*
X163184800Y-78788200D03*
X163184800Y-79585800D03*
X163184800Y-80385900D03*
X163184800Y-81186000D03*
X163184800Y-81986100D03*
X163184800Y-82786200D03*
X163184800Y-83586300D03*
X163184800Y-84386400D03*
X163184800Y-85186500D03*
X163184800Y-85986600D03*
X163184800Y-86786700D03*
X163184800Y-87586800D03*
X163184800Y-88386900D03*
X163184800Y-89187000D03*
X163184800Y-89987100D03*
X158785600Y-66786700D03*
X158785600Y-67586800D03*
X158785600Y-68386900D03*
X158785600Y-69187000D03*
X158785600Y-69987100D03*
X158785600Y-70787200D03*
X158785600Y-71587300D03*
X158785600Y-72387400D03*
X158785600Y-73187500D03*
X158785600Y-73987600D03*
X158785600Y-74787700D03*
X158785600Y-75587800D03*
X158785600Y-76387900D03*
X158785600Y-77188000D03*
X158785600Y-77988100D03*
X158785600Y-78788200D03*
X158785600Y-79585800D03*
X158785600Y-80385900D03*
X158785600Y-81186000D03*
X158785600Y-81986100D03*
X158785600Y-82786200D03*
X158785600Y-83586300D03*
X158785600Y-84386400D03*
X158785600Y-85186500D03*
X158785600Y-85986600D03*
X158785600Y-86786700D03*
X158785600Y-87586800D03*
X158785600Y-88386900D03*
X158785600Y-89187000D03*
X158785600Y-89987100D03*
D29*
X153670000Y-117376000D03*
X153670000Y-118336000D03*
D11*
X156337000Y-64260000D03*
X156337000Y-65280000D03*
D30*
X132966600Y-67564000D03*
X133936600Y-67564000D03*
D31*
X147922400Y-89043400D03*
X148572400Y-89043400D03*
X149222400Y-89043400D03*
X149872400Y-89043400D03*
X149872400Y-84743400D03*
X149222400Y-84743400D03*
X148572400Y-84743400D03*
X147922400Y-84743400D03*
D15*
X149468800Y-73027000D03*
X149468800Y-72007000D03*
D10*
X124559600Y-111404400D03*
X125579600Y-111404400D03*
D11*
X147472400Y-98854800D03*
X147472400Y-99874800D03*
D15*
X133756400Y-119864600D03*
X133756400Y-118844600D03*
D29*
X133858000Y-109349600D03*
X133858000Y-110309600D03*
D10*
X167638000Y-112141000D03*
X168658000Y-112141000D03*
D30*
X158696800Y-124968000D03*
X159666800Y-124968000D03*
D29*
X142915600Y-72037000D03*
X142915600Y-72997000D03*
D16*
X138379200Y-120012400D03*
X138379200Y-119052400D03*
D32*
X125890000Y-122389900D03*
D33*
X133190000Y-116840000D03*
D32*
X125890000Y-119090400D03*
X125890000Y-114592100D03*
D33*
X133190000Y-121841300D03*
D15*
X151671000Y-73027000D03*
X151671000Y-72007000D03*
D26*
X139443400Y-116179600D03*
X138483400Y-116179600D03*
D16*
X139547600Y-120012400D03*
X139547600Y-119052400D03*
D26*
X127657800Y-111404400D03*
X126697800Y-111404400D03*
X141196000Y-88925400D03*
X140236000Y-88925400D03*
X148767800Y-92887800D03*
X147807800Y-92887800D03*
D34*
X136921200Y-58661300D03*
D35*
X132321300Y-58661300D03*
D36*
X132946100Y-60210700D03*
X136296400Y-60210700D03*
D37*
X161850000Y-118562000D03*
X162650000Y-118562000D03*
D38*
X163850000Y-118562000D03*
X164850000Y-118562000D03*
X165350000Y-118562000D03*
X166350000Y-118562000D03*
D37*
X167550000Y-118562000D03*
X168350000Y-118562000D03*
X168350000Y-118562000D03*
X167550000Y-118562000D03*
D38*
X166850000Y-118562000D03*
X165850000Y-118562000D03*
X164350000Y-118562000D03*
X163350000Y-118562000D03*
D37*
X162650000Y-118562000D03*
X161850000Y-118562000D03*
D35*
X125336300Y-58661300D03*
D34*
X129936200Y-58661300D03*
D36*
X125961100Y-60210700D03*
X129311400Y-60210700D03*
D11*
X141503400Y-122451400D03*
X141503400Y-123471400D03*
D10*
X140180600Y-103174800D03*
X141200600Y-103174800D03*
D23*
X129237800Y-111404400D03*
X130197800Y-111404400D03*
D26*
X138884600Y-103174800D03*
X137924600Y-103174800D03*
D37*
X144197000Y-118562000D03*
X144997000Y-118562000D03*
D38*
X146197000Y-118562000D03*
X147197000Y-118562000D03*
X147697000Y-118562000D03*
X148697000Y-118562000D03*
D37*
X149897000Y-118562000D03*
X150697000Y-118562000D03*
X150697000Y-118562000D03*
X149897000Y-118562000D03*
D38*
X149197000Y-118562000D03*
X148197000Y-118562000D03*
X146697000Y-118562000D03*
X145697000Y-118562000D03*
D37*
X144997000Y-118562000D03*
X144197000Y-118562000D03*
D26*
X141577000Y-121285000D03*
X140617000Y-121285000D03*
D10*
X167638000Y-115189000D03*
X168658000Y-115189000D03*
D11*
X150192800Y-82192400D03*
X150192800Y-83212400D03*
D26*
X139443400Y-121285000D03*
X138483400Y-121285000D03*
D25*
X157160000Y-117934500D03*
X155260000Y-117934500D03*
X156210000Y-119809500D03*
D26*
X141348400Y-82245200D03*
X140388400Y-82245200D03*
D39*
X129097192Y-69951400D03*
X129097192Y-70451400D03*
X129097192Y-70951400D03*
X129097192Y-71451400D03*
X129097192Y-71951400D03*
X129097192Y-72451400D03*
X129097192Y-72951400D03*
X129097192Y-73451400D03*
X129097192Y-73951400D03*
X129097192Y-74451400D03*
X129097192Y-74951400D03*
X129097192Y-75451400D03*
X129097192Y-75951400D03*
X129097192Y-76451400D03*
X129097192Y-76951400D03*
X129097192Y-77451400D03*
X129097192Y-77951400D03*
X129097192Y-78451400D03*
X129097192Y-78951400D03*
X129097192Y-79451400D03*
D40*
X127397192Y-68281400D03*
X127397192Y-81121400D03*
D12*
X136196800Y-67564000D03*
X135176800Y-67564000D03*
D16*
X157022800Y-59916000D03*
X157022800Y-58956000D03*
D12*
X168658000Y-113665000D03*
X167638000Y-113665000D03*
D16*
X144678400Y-101919800D03*
X144678400Y-100959800D03*
D11*
X140632200Y-72007000D03*
X140632200Y-73027000D03*
D10*
X142466600Y-103174800D03*
X143486600Y-103174800D03*
D41*
X145866700Y-114595100D03*
X145866700Y-113645100D03*
X145866700Y-112695100D03*
X143591700Y-112695100D03*
X143591700Y-113645100D03*
X143591700Y-114595100D03*
D10*
X124559600Y-112623600D03*
X125579600Y-112623600D03*
D12*
X130253200Y-109905800D03*
X129233200Y-109905800D03*
D26*
X134973000Y-111404400D03*
X134013000Y-111404400D03*
D15*
X146169400Y-73027000D03*
X146169400Y-72007000D03*
D23*
X161572000Y-113665000D03*
X162532000Y-113665000D03*
D16*
X131318000Y-110309600D03*
X131318000Y-109349600D03*
D15*
X148369000Y-73027000D03*
X148369000Y-72007000D03*
D11*
X140716000Y-119022400D03*
X140716000Y-120042400D03*
D16*
X146050000Y-101927600D03*
X146050000Y-100967600D03*
D12*
X134749000Y-123901200D03*
X133729000Y-123901200D03*
D42*
X143910600Y-86848000D03*
X143910600Y-86348000D03*
X143910600Y-85848000D03*
X143910600Y-85348000D03*
X143910600Y-84848000D03*
X143910600Y-84348000D03*
D43*
X143210600Y-83648000D03*
X142710600Y-83648000D03*
X142210600Y-83648000D03*
X141710600Y-83648000D03*
X141210600Y-83648000D03*
X140710600Y-83648000D03*
D42*
X140010600Y-84348000D03*
X140010600Y-84848000D03*
X140010600Y-85348000D03*
X140010600Y-85848000D03*
X140010600Y-86348000D03*
X140010600Y-86848000D03*
D43*
X140710600Y-87548000D03*
X141210600Y-87548000D03*
X141710600Y-87548000D03*
X142210600Y-87548000D03*
X142710600Y-87548000D03*
X143210600Y-87548000D03*
D15*
X136245600Y-114886200D03*
X136245600Y-113866200D03*
X137210800Y-120042400D03*
X137210800Y-119022400D03*
X138557000Y-83212400D03*
X138557000Y-82192400D03*
D16*
X154686000Y-114145000D03*
X154686000Y-113185000D03*
D11*
X156337000Y-91387200D03*
X156337000Y-92407200D03*
D16*
X147652800Y-83207800D03*
X147652800Y-82247800D03*
D15*
X152770800Y-73027000D03*
X152770800Y-72007000D03*
D44*
X138263400Y-123007600D03*
X139663400Y-123007600D03*
D35*
X158737300Y-58661300D03*
D34*
X163337200Y-58661300D03*
D36*
X159362100Y-60210700D03*
X162712400Y-60210700D03*
D29*
X138557000Y-84356000D03*
X138557000Y-85316000D03*
X135128000Y-109349600D03*
X135128000Y-110309600D03*
D45*
X156128700Y-108214200D03*
X156128700Y-106212600D03*
D46*
X161777700Y-103863100D03*
X161777700Y-110563700D03*
D23*
X152227400Y-88544400D03*
X153187400Y-88544400D03*
D11*
X148922800Y-82192400D03*
X148922800Y-83212400D03*
D26*
X137309800Y-121285000D03*
X136349800Y-121285000D03*
D47*
X164150000Y-114782600D03*
X165100000Y-114782600D03*
X166050000Y-114782600D03*
X166050000Y-112507600D03*
X165100000Y-112507600D03*
X164150000Y-112507600D03*
D11*
X132588000Y-109319600D03*
X132588000Y-110339600D03*
M02*
