G04 #@! TF.GenerationSoftware,KiCad,Pcbnew,(6.0.4)*
G04 #@! TF.CreationDate,2022-05-11T13:02:33+08:00*
G04 #@! TF.ProjectId,A133CoreDK-LCDdeck,41313333-436f-4726-9544-4b2d4c434464,rev?*
G04 #@! TF.SameCoordinates,Original*
G04 #@! TF.FileFunction,Legend,Bot*
G04 #@! TF.FilePolarity,Positive*
%FSLAX46Y46*%
G04 Gerber Fmt 4.6, Leading zero omitted, Abs format (unit mm)*
G04 Created by KiCad (PCBNEW (6.0.4)) date 2022-05-11 13:02:33*
%MOMM*%
%LPD*%
G01*
G04 APERTURE LIST*
G04 Aperture macros list*
%AMRoundRect*
0 Rectangle with rounded corners*
0 $1 Rounding radius*
0 $2 $3 $4 $5 $6 $7 $8 $9 X,Y pos of 4 corners*
0 Add a 4 corners polygon primitive as box body*
4,1,4,$2,$3,$4,$5,$6,$7,$8,$9,$2,$3,0*
0 Add four circle primitives for the rounded corners*
1,1,$1+$1,$2,$3*
1,1,$1+$1,$4,$5*
1,1,$1+$1,$6,$7*
1,1,$1+$1,$8,$9*
0 Add four rect primitives between the rounded corners*
20,1,$1+$1,$2,$3,$4,$5,0*
20,1,$1+$1,$4,$5,$6,$7,0*
20,1,$1+$1,$6,$7,$8,$9,0*
20,1,$1+$1,$8,$9,$2,$3,0*%
G04 Aperture macros list end*
%ADD10C,0.177800*%
%ADD11C,0.254000*%
%ADD12C,0.120000*%
%ADD13C,0.800000*%
%ADD14C,1.200000*%
%ADD15C,1.300500*%
%ADD16C,0.701000*%
%ADD17RoundRect,0.050800X0.599450X-0.449600X0.599450X0.449600X-0.599450X0.449600X-0.599450X-0.449600X0*%
%ADD18RoundRect,0.050800X-0.599450X0.449600X-0.599450X-0.449600X0.599450X-0.449600X0.599450X0.449600X0*%
%ADD19RoundRect,0.050800X0.650250X-0.599450X0.650250X0.599450X-0.650250X0.599450X-0.650250X-0.599450X0*%
%ADD20RoundRect,0.135000X-0.185000X0.135000X-0.185000X-0.135000X0.185000X-0.135000X0.185000X0.135000X0*%
%ADD21RoundRect,0.135000X0.185000X-0.135000X0.185000X0.135000X-0.185000X0.135000X-0.185000X-0.135000X0*%
%ADD22RoundRect,0.140000X-0.170000X0.140000X-0.170000X-0.140000X0.170000X-0.140000X0.170000X0.140000X0*%
%ADD23C,0.899200*%
%ADD24RoundRect,0.050800X-0.762000X-0.299700X0.762000X-0.299700X0.762000X0.299700X-0.762000X0.299700X0*%
%ADD25RoundRect,0.050800X-0.350500X0.599450X-0.350500X-0.599450X0.350500X-0.599450X0.350500X0.599450X0*%
G04 APERTURE END LIST*
D10*
X187874123Y-92990609D02*
X188781266Y-92990609D01*
X188962695Y-92930133D01*
X189083647Y-92809180D01*
X189144123Y-92627752D01*
X189144123Y-92506800D01*
X189144123Y-94200133D02*
X189144123Y-93595371D01*
X187874123Y-93595371D01*
X189023171Y-95349180D02*
X189083647Y-95288704D01*
X189144123Y-95107276D01*
X189144123Y-94986323D01*
X189083647Y-94804895D01*
X188962695Y-94683942D01*
X188841742Y-94623466D01*
X188599838Y-94562990D01*
X188418409Y-94562990D01*
X188176504Y-94623466D01*
X188055552Y-94683942D01*
X187934600Y-94804895D01*
X187874123Y-94986323D01*
X187874123Y-95107276D01*
X187934600Y-95288704D01*
X187995076Y-95349180D01*
X187874123Y-96256323D02*
X188781266Y-96256323D01*
X188962695Y-96195847D01*
X189083647Y-96074895D01*
X189144123Y-95893466D01*
X189144123Y-95772514D01*
X189144123Y-97465847D02*
X189144123Y-96861085D01*
X187874123Y-96861085D01*
X189023171Y-98614895D02*
X189083647Y-98554419D01*
X189144123Y-98372990D01*
X189144123Y-98252038D01*
X189083647Y-98070609D01*
X188962695Y-97949657D01*
X188841742Y-97889180D01*
X188599838Y-97828704D01*
X188418409Y-97828704D01*
X188176504Y-97889180D01*
X188055552Y-97949657D01*
X187934600Y-98070609D01*
X187874123Y-98252038D01*
X187874123Y-98372990D01*
X187934600Y-98554419D01*
X187995076Y-98614895D01*
X187874123Y-99522038D02*
X188781266Y-99522038D01*
X188962695Y-99461561D01*
X189083647Y-99340609D01*
X189144123Y-99159180D01*
X189144123Y-99038228D01*
X189144123Y-100731561D02*
X189144123Y-100126800D01*
X187874123Y-100126800D01*
X189023171Y-101880609D02*
X189083647Y-101820133D01*
X189144123Y-101638704D01*
X189144123Y-101517752D01*
X189083647Y-101336323D01*
X188962695Y-101215371D01*
X188841742Y-101154895D01*
X188599838Y-101094419D01*
X188418409Y-101094419D01*
X188176504Y-101154895D01*
X188055552Y-101215371D01*
X187934600Y-101336323D01*
X187874123Y-101517752D01*
X187874123Y-101638704D01*
X187934600Y-101820133D01*
X187995076Y-101880609D01*
X187874123Y-102787752D02*
X188781266Y-102787752D01*
X188962695Y-102727276D01*
X189083647Y-102606323D01*
X189144123Y-102424895D01*
X189144123Y-102303942D01*
X189144123Y-103997276D02*
X189144123Y-103392514D01*
X187874123Y-103392514D01*
X189023171Y-105146323D02*
X189083647Y-105085847D01*
X189144123Y-104904419D01*
X189144123Y-104783466D01*
X189083647Y-104602038D01*
X188962695Y-104481085D01*
X188841742Y-104420609D01*
X188599838Y-104360133D01*
X188418409Y-104360133D01*
X188176504Y-104420609D01*
X188055552Y-104481085D01*
X187934600Y-104602038D01*
X187874123Y-104783466D01*
X187874123Y-104904419D01*
X187934600Y-105085847D01*
X187995076Y-105146323D01*
D11*
X96528875Y-89828350D02*
X96528875Y-91829950D01*
X97730275Y-93130350D02*
X97867475Y-93130350D01*
X97867475Y-88527950D02*
X97730275Y-88527950D01*
X100028975Y-89940150D02*
X100028975Y-91718150D01*
X96528875Y-89828350D02*
X97730275Y-89828350D01*
X97730275Y-88527950D02*
X97730275Y-93130350D01*
X96528875Y-91829950D02*
X97730275Y-91829950D01*
X96528875Y-102553750D02*
X96528875Y-104555350D01*
X97730275Y-105855750D02*
X97867475Y-105855750D01*
X97867475Y-101253350D02*
X97730275Y-101253350D01*
X96528875Y-104555350D02*
X97730275Y-104555350D01*
X97730275Y-101253350D02*
X97730275Y-105855750D01*
X96528875Y-102553750D02*
X97730275Y-102553750D01*
X100028975Y-102665550D02*
X100028975Y-104443550D01*
D12*
X100583000Y-95705959D02*
X100583000Y-96013241D01*
X99823000Y-95705959D02*
X99823000Y-96013241D01*
X98349800Y-96013241D02*
X98349800Y-95705959D01*
X99109800Y-96013241D02*
X99109800Y-95705959D01*
X99089800Y-98367964D02*
X99089800Y-98583636D01*
X98369800Y-98367964D02*
X98369800Y-98583636D01*
D11*
X96066600Y-85722500D02*
X94867700Y-85722500D01*
X96960700Y-83822500D02*
X96960700Y-82321400D01*
X94060000Y-84345800D02*
X92459800Y-84345800D01*
X92459800Y-84345800D02*
X92459800Y-83070700D01*
X96066600Y-78920300D02*
X94867700Y-78920300D01*
X92459800Y-83070700D02*
X94060000Y-83070700D01*
X94060000Y-85072200D02*
X94060000Y-79570600D01*
D12*
X100583000Y-98322159D02*
X100583000Y-98629441D01*
X99823000Y-98322159D02*
X99823000Y-98629441D01*
%LPC*%
D13*
X169964000Y-97559100D03*
D14*
X169964000Y-69359300D03*
D15*
X129626400Y-70942160D03*
X124627600Y-70942160D03*
X106263400Y-70942160D03*
X111262200Y-70942160D03*
D16*
X98629475Y-89978250D03*
X98629475Y-91680050D03*
D17*
X98629475Y-93130350D03*
D18*
X98629475Y-88530450D03*
D19*
X100178875Y-89155250D03*
X100178875Y-92505550D03*
D16*
X98629475Y-102703650D03*
D18*
X98629475Y-101255850D03*
D16*
X98629475Y-104405450D03*
D17*
X98629475Y-105855750D03*
D19*
X100178875Y-101880650D03*
X100178875Y-105230950D03*
D20*
X100203000Y-95349600D03*
X100203000Y-96369600D03*
D21*
X98729800Y-96369600D03*
X98729800Y-95349600D03*
D22*
X98729800Y-97995800D03*
X98729800Y-98955800D03*
D23*
X95459500Y-83820000D03*
X95459500Y-80820300D03*
D24*
X97710000Y-84571800D03*
X97710000Y-81572100D03*
X97710000Y-80071000D03*
D25*
X96610100Y-78722200D03*
X94311400Y-78722200D03*
X94311400Y-85920600D03*
X96610100Y-85920600D03*
D20*
X100203000Y-97965800D03*
X100203000Y-98985800D03*
M02*
