M48
; DRILL file {KiCad (6.0.4)} date Wed May 11 13:02:36 2022
; FORMAT={-:-/ absolute / metric / decimal}
; #@! TF.CreationDate,2022-05-11T13:02:36+08:00
; #@! TF.GenerationSoftware,Kicad,Pcbnew,(6.0.4)
; #@! TF.FileFunction,MixedPlating,1,4
FMAT,2
METRIC
; #@! TA.AperFunction,Plated,PTH,ViaDrill
T1C0.254
; #@! TA.AperFunction,NonPlated,NPTH,ComponentDrill
T2C0.701
; #@! TA.AperFunction,NonPlated,NPTH,ComponentDrill
T3C0.800
; #@! TA.AperFunction,NonPlated,NPTH,ComponentDrill
T4C0.899
; #@! TA.AperFunction,NonPlated,NPTH,ComponentDrill
T5C1.200
; #@! TA.AperFunction,NonPlated,NPTH,ComponentDrill
T6C1.300
%
G90
G05
T1
X94.31Y-77.394
X95.088Y-66.548
X95.09Y-71.652
X95.352Y-63.525
X95.453Y-85.903
X95.528Y-74.541
X95.783Y-69.037
X96.202Y-72.672
X96.202Y-73.332
X96.205Y-64.773
X96.205Y-65.433
X96.266Y-66.548
X96.596Y-74.549
X96.596Y-77.445
X98.73Y-97.003
X98.771Y-99.971
X99.111Y-67.92
X99.187Y-62.306
X99.466Y-86.03
X99.543Y-80.071
X99.543Y-81.572
X100.0Y-84.48
X100.178Y-91.338
X100.254Y-103.988
X100.94Y-98.984
X101.829Y-64.872
X101.829Y-105.283
X101.854Y-66.726
X102.798Y-87.964
X103.276Y-66.218
X103.861Y-84.734
X104.8Y-78.181
X105.258Y-98.882
X105.308Y-92.532
X105.486Y-78.181
X105.646Y-63.864
X107.721Y-63.856
X107.747Y-78.918
X108.356Y-69.875
X108.458Y-89.484
X109.601Y-104.775
X109.726Y-84.093
X109.855Y-64.11
X110.058Y-67.92
X110.82Y-92.812
X111.557Y-82.88
X111.785Y-78.74
X113.309Y-98.933
X113.335Y-66.218
X114.452Y-93.828
X115.011Y-89.332
X115.494Y-79.248
X115.697Y-95.174
X116.535Y-67.894
X116.942Y-88.163
X116.967Y-104.394
X117.907Y-65.075
X118.466Y-89.814
X119.228Y-75.997
X119.38Y-93.701
X119.609Y-67.945
X119.644Y-98.754
X119.736Y-83.337
X119.786Y-91.084
X120.244Y-75.997
X121.285Y-75.997
X121.59Y-92.862
X121.869Y-79.146
X123.139Y-87.376
X124.79Y-104.851
X125.73Y-97.028
X126.009Y-100.33
X126.365Y-83.261
X126.898Y-66.65
X127.0Y-62.636
X129.134Y-93.65
X130.226Y-87.3
X130.48Y-104.724
X130.937Y-102.26
X131.064Y-66.726
X133.401Y-97.993
X133.655Y-65.481
X133.706Y-67.539
X134.544Y-81.813
X134.607Y-78.397
X135.915Y-102.972
X135.915Y-106.426
X136.576Y-75.997
X136.677Y-64.77
X136.677Y-67.513
X136.931Y-93.345
X137.058Y-75.184
X137.109Y-100.305
X137.202Y-78.281
X137.363Y-70.866
X138.913Y-62.662
X139.014Y-73.177
X139.471Y-85.547
X140.665Y-67.031
X141.122Y-70.993
X141.3Y-104.75
X141.326Y-98.425
X141.681Y-75.413
X142.748Y-73.228
X142.951Y-66.954
X142.951Y-68.605
X143.586Y-87.884
X144.669Y-66.446
X144.907Y-62.662
X145.03Y-70.967
X145.089Y-67.114
X145.749Y-67.114
X145.974Y-93.04
X146.253Y-75.54
X147.244Y-85.446
X147.264Y-68.204
X147.32Y-73.203
X147.731Y-67.737
X148.082Y-69.723
X148.819Y-106.375
X148.844Y-102.921
X149.398Y-68.331
X149.708Y-71.323
X149.865Y-67.864
X150.327Y-73.629
X150.724Y-75.692
X150.794Y-73.162
X150.851Y-97.688
X151.308Y-87.579
X151.689Y-100.914
X152.248Y-62.662
X152.629Y-67.31
X152.629Y-67.97
X152.73Y-73.05
X153.645Y-104.724
X154.635Y-75.692
X154.686Y-85.852
X154.838Y-93.04
X154.864Y-68.605
X155.753Y-73.05
X156.159Y-64.567
X157.353Y-70.866
X157.785Y-62.662
X158.267Y-66.777
X158.471Y-75.743
X158.826Y-87.833
X159.029Y-106.375
X159.055Y-102.946
X159.182Y-97.485
X159.512Y-66.777
X160.198Y-70.866
X160.833Y-75.129
X160.833Y-75.789
X161.188Y-76.835
X161.823Y-92.913
X161.95Y-80.112
X162.255Y-85.852
X162.281Y-63.83
X162.408Y-70.079
X162.458Y-73.101
X162.479Y-76.916
X162.946Y-76.449
X163.017Y-78.461
X163.271Y-74.676
X164.592Y-100.889
X164.638Y-78.44
X164.643Y-80.086
X164.643Y-104.724
X164.744Y-88.417
X164.897Y-70.409
X164.897Y-83.642
X164.973Y-86.182
X165.105Y-77.973
X165.354Y-97.561
X165.684Y-91.846
X166.573Y-70.409
X168.554Y-70.409
X169.976Y-95.474
X170.205Y-86.309
X170.205Y-86.868
X170.332Y-102.946
X170.332Y-106.426
X170.434Y-84.074
X170.485Y-73.787
X170.485Y-77.064
X170.485Y-79.832
X172.716Y-64.469
X172.72Y-67.412
X173.888Y-69.52
X174.041Y-96.571
X174.269Y-71.857
X174.32Y-91.059
X174.34Y-80.795
X174.422Y-83.287
X174.473Y-88.722
X174.523Y-87.376
X174.803Y-90.246
X174.93Y-94.59
X174.981Y-84.554
X175.108Y-98.577
X175.158Y-72.923
X175.311Y-104.775
X175.59Y-92.227
X175.844Y-67.158
X175.895Y-80.975
X176.047Y-70.002
X176.098Y-73.66
X176.2Y-96.545
X176.378Y-100.863
X176.835Y-77.064
X176.835Y-78.308
X176.835Y-79.324
X177.013Y-72.923
X177.216Y-93.345
X177.267Y-91.237
X177.336Y-68.629
X177.673Y-73.381
X178.511Y-64.795
X179.197Y-80.315
X179.553Y-83.464
X179.756Y-64.77
X179.984Y-99.873
X180.249Y-86.303
X180.365Y-87.935
X180.569Y-77.978
X180.774Y-86.31
X180.797Y-102.565
X180.797Y-106.375
X181.254Y-64.567
X182.347Y-67.894
X182.855Y-99.847
X182.901Y-102.052
X183.007Y-71.349
X183.21Y-79.781
X183.261Y-77.114
X183.367Y-102.519
X183.744Y-89.281
X184.069Y-104.211
X184.404Y-89.281
X184.531Y-66.827
X184.536Y-104.678
X184.632Y-69.589
X184.633Y-79.832
X184.76Y-64.465
X185.445Y-99.847
X185.699Y-82.525
X186.004Y-71.501
X186.03Y-62.636
X186.614Y-105.715
X186.876Y-63.447
X187.208Y-85.337
X187.216Y-84.796
X188.366Y-103.556
X188.595Y-99.746
X188.976Y-91.491
X189.001Y-94.691
X189.027Y-97.409
X189.205Y-90.043
X189.23Y-79.426
X189.23Y-80.01
X189.281Y-85.522
X189.611Y-88.011
T2
X98.629Y-89.978
X98.629Y-91.68
X98.629Y-102.704
X98.629Y-104.405
T3
X169.964Y-97.559
T4
X95.459Y-80.82
X95.459Y-83.82
T5
X169.964Y-69.359
T6
X106.263Y-70.942
X111.262Y-70.942
X124.628Y-70.942
X129.626Y-70.942
T0
M30
