G04 #@! TF.GenerationSoftware,KiCad,Pcbnew,(6.0.4)*
G04 #@! TF.CreationDate,2022-05-11T13:02:33+08:00*
G04 #@! TF.ProjectId,A133CoreDK-LCDdeck,41313333-436f-4726-9544-4b2d4c434464,rev?*
G04 #@! TF.SameCoordinates,Original*
G04 #@! TF.FileFunction,Profile,NP*
%FSLAX46Y46*%
G04 Gerber Fmt 4.6, Leading zero omitted, Abs format (unit mm)*
G04 Created by KiCad (PCBNEW (6.0.4)) date 2022-05-11 13:02:33*
%MOMM*%
%LPD*%
G01*
G04 APERTURE LIST*
G04 #@! TA.AperFunction,Profile*
%ADD10C,0.100000*%
G04 #@! TD*
G04 APERTURE END LIST*
D10*
X179800300Y-75184000D02*
G75*
G03*
X180460650Y-75844400I660400J0D01*
G01*
X160248600Y-80518000D02*
X139573000Y-80518000D01*
X190246000Y-63169800D02*
G75*
G03*
X190246000Y-66294000I0J-1562100D01*
G01*
X180460650Y-72847150D02*
G75*
G03*
X179800250Y-73507600I50J-660450D01*
G01*
X160909000Y-78181200D02*
G75*
G03*
X160248600Y-77520800I-660400J0D01*
G01*
X179800250Y-75184000D02*
X179800250Y-73507600D01*
X189636400Y-61417200D02*
X149860000Y-61391800D01*
X139573000Y-77520800D02*
G75*
G03*
X138912600Y-78181200I0J-660400D01*
G01*
X138912600Y-79857600D02*
G75*
G03*
X139573000Y-80518000I660400J0D01*
G01*
X93649800Y-86309200D02*
X93649800Y-62026800D01*
X160909000Y-78181200D02*
X160909000Y-79857600D01*
X190246000Y-66294000D02*
X190246000Y-106426000D01*
X189636400Y-107035600D02*
G75*
G03*
X190246000Y-106426000I0J609600D01*
G01*
X97688400Y-106426000D02*
X97688400Y-86918800D01*
X185553350Y-75844400D02*
X180460650Y-75844400D01*
X146760992Y-61417200D02*
G75*
G03*
X149860000Y-61391800I1549608J0D01*
G01*
X160248600Y-80518000D02*
G75*
G03*
X160909000Y-79857600I0J660400D01*
G01*
X93649800Y-86309200D02*
G75*
G03*
X94259400Y-86918800I609600J0D01*
G01*
X97688400Y-106426000D02*
G75*
G03*
X98298000Y-107035600I609600J0D01*
G01*
X138912600Y-79857600D02*
X138912600Y-78181200D01*
X190246000Y-62026800D02*
G75*
G03*
X189636400Y-61417200I-609600J0D01*
G01*
X190246000Y-63169800D02*
X190246000Y-62026800D01*
X94259400Y-86918800D02*
X97688400Y-86918800D01*
X98298000Y-107035600D02*
X189636400Y-107035600D01*
X180460650Y-72847200D02*
X185553350Y-72847200D01*
X116369892Y-61417044D02*
X94259400Y-61417200D01*
X146760992Y-61417200D02*
X119468900Y-61391644D01*
X100364800Y-77809600D02*
G75*
G03*
X100364800Y-77809600I-1000000J0D01*
G01*
X186213700Y-73507600D02*
G75*
G03*
X185553350Y-72847200I-660400J0D01*
G01*
X94259400Y-61417200D02*
G75*
G03*
X93649800Y-62026800I0J-609600D01*
G01*
X116369893Y-61417044D02*
G75*
G03*
X119468900Y-61391644I1549607J44D01*
G01*
X186213750Y-73507600D02*
X186213750Y-75184000D01*
X185553350Y-75844450D02*
G75*
G03*
X186213750Y-75184000I-50J660450D01*
G01*
X139573000Y-77520800D02*
X160248600Y-77520800D01*
M02*
