G04 #@! TF.GenerationSoftware,KiCad,Pcbnew,(6.0.4)*
G04 #@! TF.CreationDate,2022-05-11T13:02:33+08:00*
G04 #@! TF.ProjectId,A133CoreDK-LCDdeck,41313333-436f-4726-9544-4b2d4c434464,rev?*
G04 #@! TF.SameCoordinates,Original*
G04 #@! TF.FileFunction,Legend,Top*
G04 #@! TF.FilePolarity,Positive*
%FSLAX46Y46*%
G04 Gerber Fmt 4.6, Leading zero omitted, Abs format (unit mm)*
G04 Created by KiCad (PCBNEW (6.0.4)) date 2022-05-11 13:02:33*
%MOMM*%
%LPD*%
G01*
G04 APERTURE LIST*
G04 Aperture macros list*
%AMRoundRect*
0 Rectangle with rounded corners*
0 $1 Rounding radius*
0 $2 $3 $4 $5 $6 $7 $8 $9 X,Y pos of 4 corners*
0 Add a 4 corners polygon primitive as box body*
4,1,4,$2,$3,$4,$5,$6,$7,$8,$9,$2,$3,0*
0 Add four circle primitives for the rounded corners*
1,1,$1+$1,$2,$3*
1,1,$1+$1,$4,$5*
1,1,$1+$1,$6,$7*
1,1,$1+$1,$8,$9*
0 Add four rect primitives between the rounded corners*
20,1,$1+$1,$2,$3,$4,$5,0*
20,1,$1+$1,$4,$5,$6,$7,0*
20,1,$1+$1,$6,$7,$8,$9,0*
20,1,$1+$1,$8,$9,$2,$3,0*%
G04 Aperture macros list end*
%ADD10C,0.635000*%
%ADD11C,0.406400*%
%ADD12C,0.203200*%
%ADD13C,0.120000*%
%ADD14C,0.152400*%
%ADD15C,0.152000*%
%ADD16C,0.254000*%
%ADD17C,0.149900*%
%ADD18RoundRect,0.140000X0.140000X0.170000X-0.140000X0.170000X-0.140000X-0.170000X0.140000X-0.170000X0*%
%ADD19RoundRect,0.140000X0.170000X-0.140000X0.170000X0.140000X-0.170000X0.140000X-0.170000X-0.140000X0*%
%ADD20RoundRect,0.150000X0.150000X-0.587500X0.150000X0.587500X-0.150000X0.587500X-0.150000X-0.587500X0*%
%ADD21RoundRect,0.225000X-0.225000X-0.250000X0.225000X-0.250000X0.225000X0.250000X-0.225000X0.250000X0*%
%ADD22RoundRect,0.135000X-0.185000X0.135000X-0.185000X-0.135000X0.185000X-0.135000X0.185000X0.135000X0*%
%ADD23R,1.200000X0.900000*%
%ADD24R,0.900000X1.200000*%
%ADD25RoundRect,0.135000X0.135000X0.185000X-0.135000X0.185000X-0.135000X-0.185000X0.135000X-0.185000X0*%
%ADD26RoundRect,0.050800X-0.700000X-0.600000X0.700000X-0.600000X0.700000X0.600000X-0.700000X0.600000X0*%
%ADD27C,0.800000*%
%ADD28C,1.200000*%
%ADD29RoundRect,0.050800X-1.000000X0.250000X-1.000000X-0.250000X1.000000X-0.250000X1.000000X0.250000X0*%
%ADD30RoundRect,0.050800X-2.000250X0.400050X-2.000250X-0.400050X2.000250X-0.400050X2.000250X0.400050X0*%
%ADD31RoundRect,0.050800X-0.800100X0.199400X-0.800100X-0.199400X0.800100X-0.199400X0.800100X0.199400X0*%
%ADD32RoundRect,0.050800X-1.559550X0.900450X-1.559550X-0.900450X1.559550X-0.900450X1.559550X0.900450X0*%
%ADD33RoundRect,0.135000X0.185000X-0.135000X0.185000X0.135000X-0.185000X0.135000X-0.185000X-0.135000X0*%
%ADD34RoundRect,0.050800X-0.900450X-1.559550X0.900450X-1.559550X0.900450X1.559550X-0.900450X1.559550X0*%
%ADD35O,0.708700X0.464800*%
%ADD36RoundRect,0.050800X0.500400X-0.800100X0.500400X0.800100X-0.500400X0.800100X-0.500400X-0.800100X0*%
%ADD37RoundRect,0.225000X-0.250000X0.225000X-0.250000X-0.225000X0.250000X-0.225000X0.250000X0.225000X0*%
%ADD38RoundRect,0.225000X0.250000X-0.225000X0.250000X0.225000X-0.250000X0.225000X-0.250000X-0.225000X0*%
%ADD39RoundRect,0.140000X-0.140000X-0.170000X0.140000X-0.170000X0.140000X0.170000X-0.140000X0.170000X0*%
%ADD40RoundRect,0.225000X0.225000X0.250000X-0.225000X0.250000X-0.225000X-0.250000X0.225000X-0.250000X0*%
%ADD41RoundRect,0.150000X0.150000X-0.850000X0.150000X0.850000X-0.150000X0.850000X-0.150000X-0.850000X0*%
%ADD42C,1.300500*%
%ADD43RoundRect,0.050800X0.599450X1.899900X-0.599450X1.899900X-0.599450X-1.899900X0.599450X-1.899900X0*%
%ADD44RoundRect,0.050800X1.499850X2.650500X-1.499850X2.650500X-1.499850X-2.650500X1.499850X-2.650500X0*%
%ADD45R,0.300000X1.100000*%
%ADD46R,2.300000X3.100000*%
%ADD47RoundRect,0.150000X0.512500X0.150000X-0.512500X0.150000X-0.512500X-0.150000X0.512500X-0.150000X0*%
%ADD48C,0.701000*%
%ADD49C,0.899200*%
G04 APERTURE END LIST*
D10*
X100736400Y-84105750D02*
X100736400Y-85445600D01*
X100736400Y-80708500D02*
X100736400Y-82918300D01*
D11*
X102320876Y-82253666D02*
X103288495Y-82253666D01*
X102127352Y-82834238D02*
X102804685Y-80802238D01*
X103482019Y-82834238D01*
X105223733Y-82834238D02*
X104062590Y-82834238D01*
X104643161Y-82834238D02*
X104643161Y-80802238D01*
X104449638Y-81092523D01*
X104256114Y-81286047D01*
X104062590Y-81382809D01*
X105901066Y-80802238D02*
X107158971Y-80802238D01*
X106481638Y-81576333D01*
X106771923Y-81576333D01*
X106965447Y-81673095D01*
X107062209Y-81769857D01*
X107158971Y-81963380D01*
X107158971Y-82447190D01*
X107062209Y-82640714D01*
X106965447Y-82737476D01*
X106771923Y-82834238D01*
X106191352Y-82834238D01*
X105997828Y-82737476D01*
X105901066Y-82640714D01*
X107836304Y-80802238D02*
X109094209Y-80802238D01*
X108416876Y-81576333D01*
X108707161Y-81576333D01*
X108900685Y-81673095D01*
X108997447Y-81769857D01*
X109094209Y-81963380D01*
X109094209Y-82447190D01*
X108997447Y-82640714D01*
X108900685Y-82737476D01*
X108707161Y-82834238D01*
X108126590Y-82834238D01*
X107933066Y-82737476D01*
X107836304Y-82640714D01*
X111126209Y-82640714D02*
X111029447Y-82737476D01*
X110739161Y-82834238D01*
X110545638Y-82834238D01*
X110255352Y-82737476D01*
X110061828Y-82543952D01*
X109965066Y-82350428D01*
X109868304Y-81963380D01*
X109868304Y-81673095D01*
X109965066Y-81286047D01*
X110061828Y-81092523D01*
X110255352Y-80899000D01*
X110545638Y-80802238D01*
X110739161Y-80802238D01*
X111029447Y-80899000D01*
X111126209Y-80995761D01*
X112287352Y-82834238D02*
X112093828Y-82737476D01*
X111997066Y-82640714D01*
X111900304Y-82447190D01*
X111900304Y-81866619D01*
X111997066Y-81673095D01*
X112093828Y-81576333D01*
X112287352Y-81479571D01*
X112577638Y-81479571D01*
X112771161Y-81576333D01*
X112867923Y-81673095D01*
X112964685Y-81866619D01*
X112964685Y-82447190D01*
X112867923Y-82640714D01*
X112771161Y-82737476D01*
X112577638Y-82834238D01*
X112287352Y-82834238D01*
X113835542Y-82834238D02*
X113835542Y-81479571D01*
X113835542Y-81866619D02*
X113932304Y-81673095D01*
X114029066Y-81576333D01*
X114222590Y-81479571D01*
X114416114Y-81479571D01*
X115867542Y-82737476D02*
X115674019Y-82834238D01*
X115286971Y-82834238D01*
X115093447Y-82737476D01*
X114996685Y-82543952D01*
X114996685Y-81769857D01*
X115093447Y-81576333D01*
X115286971Y-81479571D01*
X115674019Y-81479571D01*
X115867542Y-81576333D01*
X115964304Y-81769857D01*
X115964304Y-81963380D01*
X114996685Y-82156904D01*
X116835161Y-82834238D02*
X116835161Y-80802238D01*
X117318971Y-80802238D01*
X117609257Y-80899000D01*
X117802780Y-81092523D01*
X117899542Y-81286047D01*
X117996304Y-81673095D01*
X117996304Y-81963380D01*
X117899542Y-82350428D01*
X117802780Y-82543952D01*
X117609257Y-82737476D01*
X117318971Y-82834238D01*
X116835161Y-82834238D01*
X118867161Y-82834238D02*
X118867161Y-80802238D01*
X120028304Y-82834238D02*
X119157447Y-81673095D01*
X120028304Y-80802238D02*
X118867161Y-81963380D01*
X120899161Y-82060142D02*
X122447352Y-82060142D01*
X124382590Y-82834238D02*
X123414971Y-82834238D01*
X123414971Y-80802238D01*
X126221066Y-82640714D02*
X126124304Y-82737476D01*
X125834019Y-82834238D01*
X125640495Y-82834238D01*
X125350209Y-82737476D01*
X125156685Y-82543952D01*
X125059923Y-82350428D01*
X124963161Y-81963380D01*
X124963161Y-81673095D01*
X125059923Y-81286047D01*
X125156685Y-81092523D01*
X125350209Y-80899000D01*
X125640495Y-80802238D01*
X125834019Y-80802238D01*
X126124304Y-80899000D01*
X126221066Y-80995761D01*
X127091923Y-82834238D02*
X127091923Y-80802238D01*
X127575733Y-80802238D01*
X127866019Y-80899000D01*
X128059542Y-81092523D01*
X128156304Y-81286047D01*
X128253066Y-81673095D01*
X128253066Y-81963380D01*
X128156304Y-82350428D01*
X128059542Y-82543952D01*
X127866019Y-82737476D01*
X127575733Y-82834238D01*
X127091923Y-82834238D01*
X129994780Y-82834238D02*
X129994780Y-80802238D01*
X129994780Y-82737476D02*
X129801257Y-82834238D01*
X129414209Y-82834238D01*
X129220685Y-82737476D01*
X129123923Y-82640714D01*
X129027161Y-82447190D01*
X129027161Y-81866619D01*
X129123923Y-81673095D01*
X129220685Y-81576333D01*
X129414209Y-81479571D01*
X129801257Y-81479571D01*
X129994780Y-81576333D01*
X131736495Y-82737476D02*
X131542971Y-82834238D01*
X131155923Y-82834238D01*
X130962399Y-82737476D01*
X130865638Y-82543952D01*
X130865638Y-81769857D01*
X130962399Y-81576333D01*
X131155923Y-81479571D01*
X131542971Y-81479571D01*
X131736495Y-81576333D01*
X131833257Y-81769857D01*
X131833257Y-81963380D01*
X130865638Y-82156904D01*
X133574971Y-82737476D02*
X133381447Y-82834238D01*
X132994400Y-82834238D01*
X132800876Y-82737476D01*
X132704114Y-82640714D01*
X132607352Y-82447190D01*
X132607352Y-81866619D01*
X132704114Y-81673095D01*
X132800876Y-81576333D01*
X132994400Y-81479571D01*
X133381447Y-81479571D01*
X133574971Y-81576333D01*
X134445828Y-82834238D02*
X134445828Y-80802238D01*
X134639352Y-82060142D02*
X135219923Y-82834238D01*
X135219923Y-81479571D02*
X134445828Y-82253666D01*
D12*
X102004699Y-85283523D02*
X102163449Y-84013523D01*
X102465830Y-84013523D01*
X102639699Y-84074000D01*
X102745532Y-84194952D01*
X102790889Y-84315904D01*
X102821127Y-84557809D01*
X102798449Y-84739238D01*
X102707734Y-84981142D01*
X102632139Y-85102095D01*
X102496068Y-85223047D01*
X102307080Y-85283523D01*
X102004699Y-85283523D01*
X103766068Y-85223047D02*
X103637556Y-85283523D01*
X103395651Y-85283523D01*
X103282258Y-85223047D01*
X103236901Y-85102095D01*
X103297377Y-84618285D01*
X103372972Y-84497333D01*
X103501484Y-84436857D01*
X103743389Y-84436857D01*
X103856782Y-84497333D01*
X103902139Y-84618285D01*
X103887020Y-84739238D01*
X103267139Y-84860190D01*
X104310353Y-85223047D02*
X104423746Y-85283523D01*
X104665651Y-85283523D01*
X104794163Y-85223047D01*
X104869758Y-85102095D01*
X104877318Y-85041619D01*
X104831961Y-84920666D01*
X104718568Y-84860190D01*
X104537139Y-84860190D01*
X104423746Y-84799714D01*
X104378389Y-84678761D01*
X104385949Y-84618285D01*
X104461544Y-84497333D01*
X104590056Y-84436857D01*
X104771484Y-84436857D01*
X104884877Y-84497333D01*
X105391365Y-85283523D02*
X105497199Y-84436857D01*
X105550115Y-84013523D02*
X105482080Y-84074000D01*
X105534996Y-84134476D01*
X105603032Y-84074000D01*
X105550115Y-84013523D01*
X105534996Y-84134476D01*
X106646246Y-84436857D02*
X106517734Y-85464952D01*
X106442139Y-85585904D01*
X106374103Y-85646380D01*
X106245591Y-85706857D01*
X106064163Y-85706857D01*
X105950770Y-85646380D01*
X106547972Y-85223047D02*
X106419461Y-85283523D01*
X106177556Y-85283523D01*
X106064163Y-85223047D01*
X106011246Y-85162571D01*
X105965889Y-85041619D01*
X106011246Y-84678761D01*
X106086841Y-84557809D01*
X106154877Y-84497333D01*
X106283389Y-84436857D01*
X106525294Y-84436857D01*
X106638687Y-84497333D01*
X107251008Y-84436857D02*
X107145175Y-85283523D01*
X107235889Y-84557809D02*
X107303925Y-84497333D01*
X107432437Y-84436857D01*
X107613865Y-84436857D01*
X107727258Y-84497333D01*
X107772615Y-84618285D01*
X107689461Y-85283523D01*
X108785591Y-85223047D02*
X108657080Y-85283523D01*
X108415175Y-85283523D01*
X108301782Y-85223047D01*
X108256425Y-85102095D01*
X108316901Y-84618285D01*
X108392496Y-84497333D01*
X108521008Y-84436857D01*
X108762913Y-84436857D01*
X108876306Y-84497333D01*
X108921663Y-84618285D01*
X108906544Y-84739238D01*
X108286663Y-84860190D01*
X109927080Y-85283523D02*
X110085830Y-84013523D01*
X109934639Y-85223047D02*
X109806127Y-85283523D01*
X109564222Y-85283523D01*
X109450830Y-85223047D01*
X109397913Y-85162571D01*
X109352556Y-85041619D01*
X109397913Y-84678761D01*
X109473508Y-84557809D01*
X109541544Y-84497333D01*
X109670056Y-84436857D01*
X109911961Y-84436857D01*
X110025353Y-84497333D01*
X111499461Y-85283523D02*
X111658211Y-84013523D01*
X111597734Y-84497333D02*
X111726246Y-84436857D01*
X111968151Y-84436857D01*
X112081544Y-84497333D01*
X112134461Y-84557809D01*
X112179818Y-84678761D01*
X112134461Y-85041619D01*
X112058865Y-85162571D01*
X111990830Y-85223047D01*
X111862318Y-85283523D01*
X111620413Y-85283523D01*
X111507020Y-85223047D01*
X112633389Y-84436857D02*
X112829937Y-85283523D01*
X113238151Y-84436857D02*
X112829937Y-85283523D01*
X112671187Y-85585904D01*
X112603151Y-85646380D01*
X112474639Y-85706857D01*
X115090234Y-84618285D02*
X114666901Y-84618285D01*
X114583746Y-85283523D02*
X114742496Y-84013523D01*
X115347258Y-84013523D01*
X115853746Y-85283523D02*
X115740353Y-85223047D01*
X115687437Y-85162571D01*
X115642080Y-85041619D01*
X115687437Y-84678761D01*
X115763032Y-84557809D01*
X115831068Y-84497333D01*
X115959580Y-84436857D01*
X116141008Y-84436857D01*
X116254401Y-84497333D01*
X116307318Y-84557809D01*
X116352675Y-84678761D01*
X116307318Y-85041619D01*
X116231722Y-85162571D01*
X116163687Y-85223047D01*
X116035175Y-85283523D01*
X115853746Y-85283523D01*
X116821365Y-85283523D02*
X116927199Y-84436857D01*
X116896961Y-84678761D02*
X116972556Y-84557809D01*
X117040591Y-84497333D01*
X117169103Y-84436857D01*
X117290056Y-84436857D01*
X118151841Y-85283523D02*
X118234996Y-84618285D01*
X118189639Y-84497333D01*
X118076246Y-84436857D01*
X117834341Y-84436857D01*
X117705830Y-84497333D01*
X118159401Y-85223047D02*
X118030889Y-85283523D01*
X117728508Y-85283523D01*
X117615115Y-85223047D01*
X117569758Y-85102095D01*
X117584877Y-84981142D01*
X117660472Y-84860190D01*
X117788984Y-84799714D01*
X118091365Y-84799714D01*
X118219877Y-84739238D01*
X118756603Y-85283523D02*
X118862437Y-84436857D01*
X118915353Y-84013523D02*
X118847318Y-84074000D01*
X118900234Y-84134476D01*
X118968270Y-84074000D01*
X118915353Y-84013523D01*
X118900234Y-84134476D01*
X119361365Y-85283523D02*
X119467199Y-84436857D01*
X119436961Y-84678761D02*
X119512556Y-84557809D01*
X119580591Y-84497333D01*
X119709103Y-84436857D01*
X119830056Y-84436857D01*
X120691841Y-85283523D02*
X120774996Y-84618285D01*
X120729639Y-84497333D01*
X120616246Y-84436857D01*
X120374341Y-84436857D01*
X120245830Y-84497333D01*
X120699401Y-85223047D02*
X120570889Y-85283523D01*
X120268508Y-85283523D01*
X120155115Y-85223047D01*
X120109758Y-85102095D01*
X120124877Y-84981142D01*
X120200472Y-84860190D01*
X120328984Y-84799714D01*
X120631365Y-84799714D01*
X120759877Y-84739238D01*
X121840889Y-85283523D02*
X121924044Y-84618285D01*
X121878687Y-84497333D01*
X121765294Y-84436857D01*
X121523389Y-84436857D01*
X121394877Y-84497333D01*
X121848449Y-85223047D02*
X121719937Y-85283523D01*
X121417556Y-85283523D01*
X121304163Y-85223047D01*
X121258806Y-85102095D01*
X121273925Y-84981142D01*
X121349520Y-84860190D01*
X121478032Y-84799714D01*
X121780413Y-84799714D01*
X121908925Y-84739238D01*
X122989937Y-85283523D02*
X123073091Y-84618285D01*
X123027734Y-84497333D01*
X122914341Y-84436857D01*
X122672437Y-84436857D01*
X122543925Y-84497333D01*
X122997496Y-85223047D02*
X122868984Y-85283523D01*
X122566603Y-85283523D01*
X122453211Y-85223047D01*
X122407853Y-85102095D01*
X122422972Y-84981142D01*
X122498568Y-84860190D01*
X122627080Y-84799714D01*
X122929461Y-84799714D01*
X123057972Y-84739238D01*
X124138984Y-85283523D02*
X124222139Y-84618285D01*
X124176782Y-84497333D01*
X124063389Y-84436857D01*
X123821484Y-84436857D01*
X123692972Y-84497333D01*
X124146544Y-85223047D02*
X124018032Y-85283523D01*
X123715651Y-85283523D01*
X123602258Y-85223047D01*
X123556901Y-85102095D01*
X123572020Y-84981142D01*
X123647615Y-84860190D01*
X123776127Y-84799714D01*
X124078508Y-84799714D01*
X124207020Y-84739238D01*
X125288032Y-85283523D02*
X125371187Y-84618285D01*
X125325830Y-84497333D01*
X125212437Y-84436857D01*
X124970532Y-84436857D01*
X124842020Y-84497333D01*
X125295591Y-85223047D02*
X125167080Y-85283523D01*
X124864699Y-85283523D01*
X124751306Y-85223047D01*
X124705949Y-85102095D01*
X124721068Y-84981142D01*
X124796663Y-84860190D01*
X124925175Y-84799714D01*
X125227556Y-84799714D01*
X125356068Y-84739238D01*
D13*
X180828836Y-64012400D02*
X180613164Y-64012400D01*
X180828836Y-63292400D02*
X180613164Y-63292400D01*
X181335000Y-89922236D02*
X181335000Y-89706564D01*
X180615000Y-89922236D02*
X180615000Y-89706564D01*
X182605000Y-89922236D02*
X182605000Y-89706564D01*
X181885000Y-89922236D02*
X181885000Y-89706564D01*
X175274800Y-81938100D02*
X175274800Y-81288100D01*
X178394800Y-81938100D02*
X178394800Y-82588100D01*
X175274800Y-81938100D02*
X175274800Y-83613100D01*
X178394800Y-81938100D02*
X178394800Y-81288100D01*
X165870020Y-66358200D02*
X166151180Y-66358200D01*
X165870020Y-65338200D02*
X166151180Y-65338200D01*
X174244600Y-66786636D02*
X174244600Y-66570964D01*
X173524600Y-66786636D02*
X173524600Y-66570964D01*
X188256211Y-81610018D02*
X188256211Y-81917300D01*
X187496211Y-81610018D02*
X187496211Y-81917300D01*
X188215811Y-83526859D02*
X188215811Y-87426859D01*
X186215811Y-83526859D02*
X186215811Y-87426859D01*
X188215811Y-83526859D02*
X186215811Y-83526859D01*
X163887600Y-62834000D02*
X167787600Y-62834000D01*
X163887600Y-64834000D02*
X167787600Y-64834000D01*
X163887600Y-62834000D02*
X163887600Y-64834000D01*
X135446500Y-67864959D02*
X135446500Y-68172241D01*
X136206500Y-67864959D02*
X136206500Y-68172241D01*
X175743841Y-74194400D02*
X175436559Y-74194400D01*
X175743841Y-74954400D02*
X175436559Y-74954400D01*
D14*
X179425600Y-88899900D02*
X179425600Y-90550900D01*
X179425600Y-90550900D02*
X179425600Y-90550900D01*
X175364100Y-87248700D02*
X179425600Y-87248900D01*
X179425600Y-90550900D02*
X175364100Y-90578700D01*
D15*
X175107600Y-90296900D02*
X175107600Y-90804900D01*
X175107600Y-90804900D02*
X175615600Y-90804900D01*
D14*
X175364100Y-90578700D02*
X175364100Y-87248700D01*
X179425600Y-87248900D02*
X179425600Y-88899900D01*
D13*
X175362200Y-66786636D02*
X175362200Y-66570964D01*
X174642200Y-66786636D02*
X174642200Y-66570964D01*
D16*
X170853100Y-96667200D02*
X166964100Y-96667200D01*
X172250100Y-95905200D02*
X172250100Y-97429200D01*
X172964100Y-95540400D02*
X172964100Y-98359200D01*
X171107100Y-70251200D02*
X167218100Y-70251200D01*
X172504100Y-71013200D02*
X172504100Y-69489200D01*
X172964100Y-68559200D02*
X172964100Y-71378000D01*
X172250100Y-97429200D02*
X170853100Y-97429200D01*
X170853100Y-97429200D02*
X170853100Y-96667200D01*
X171107100Y-69489200D02*
X171107100Y-70251200D01*
X172964100Y-68559200D02*
X166964100Y-68559200D01*
X166964100Y-71378000D02*
X166964100Y-68559200D01*
X172504100Y-69489200D02*
X171107100Y-69489200D01*
X172964100Y-98359200D02*
X166964100Y-98359200D01*
X166964100Y-98359200D02*
X166964100Y-95540400D01*
X93933000Y-69999900D02*
X94052400Y-69999900D01*
X98284100Y-73931800D02*
X98284100Y-74071500D01*
X93933000Y-75999300D02*
X94052400Y-75999300D01*
X98284100Y-71932800D02*
X98284100Y-72070000D01*
X98284100Y-70629800D02*
X98284100Y-71069200D01*
X98284100Y-72933600D02*
X98284100Y-73070700D01*
X98284100Y-74932500D02*
X98284100Y-75369400D01*
X93933000Y-69999900D02*
X93933000Y-75999300D01*
D17*
X168680100Y-67235100D02*
X168680100Y-63734900D01*
X172281900Y-63734900D02*
X172281900Y-67235100D01*
D13*
X177404800Y-85215941D02*
X177404800Y-84908659D01*
X178164800Y-85215941D02*
X178164800Y-84908659D01*
X178233041Y-77443600D02*
X177925759Y-77443600D01*
X178233041Y-76683600D02*
X177925759Y-76683600D01*
X165870020Y-67958400D02*
X166151180Y-67958400D01*
X165870020Y-66938400D02*
X166151180Y-66938400D01*
D17*
X181731911Y-84509359D02*
X185232111Y-84509359D01*
X185232111Y-88111159D02*
X181731911Y-88111159D01*
D14*
X175520400Y-65546000D02*
X173366400Y-65546000D01*
X175520400Y-63392000D02*
X173366400Y-63392000D01*
D17*
X176150300Y-65119200D02*
G75*
G03*
X176150300Y-65119200I-76200J0D01*
G01*
D13*
X175743841Y-77928200D02*
X175436559Y-77928200D01*
X175743841Y-78688200D02*
X175436559Y-78688200D01*
X134323500Y-68126436D02*
X134323500Y-67910764D01*
X135043500Y-68126436D02*
X135043500Y-67910764D01*
X100967000Y-63943620D02*
X100967000Y-64224780D01*
X99947000Y-63943620D02*
X99947000Y-64224780D01*
X186960811Y-81917300D02*
X186960811Y-81610018D01*
X186200811Y-81917300D02*
X186200811Y-81610018D01*
X175743841Y-77443600D02*
X175436559Y-77443600D01*
X175743841Y-76683600D02*
X175436559Y-76683600D01*
X189783211Y-82285239D02*
X189783211Y-82004079D01*
X188763211Y-82285239D02*
X188763211Y-82004079D01*
X178233041Y-77928200D02*
X177925759Y-77928200D01*
X178233041Y-78688200D02*
X177925759Y-78688200D01*
X181045611Y-81243839D02*
X181045611Y-80962679D01*
X180025611Y-81243839D02*
X180025611Y-80962679D01*
X182619764Y-63292400D02*
X182835436Y-63292400D01*
X182619764Y-64012400D02*
X182835436Y-64012400D01*
X175504800Y-84908659D02*
X175504800Y-85215941D01*
X176264800Y-84908659D02*
X176264800Y-85215941D01*
D16*
X98284100Y-65034200D02*
X98284100Y-65171300D01*
X93933000Y-62100500D02*
X94052400Y-62100500D01*
X98284100Y-64033400D02*
X98284100Y-64170600D01*
X98284100Y-67033100D02*
X98284100Y-67470000D01*
X98284100Y-66032400D02*
X98284100Y-66172100D01*
X93933000Y-68099900D02*
X94052400Y-68099900D01*
X93933000Y-62100500D02*
X93933000Y-68099900D01*
X98284100Y-62730400D02*
X98284100Y-63169800D01*
D13*
X175743841Y-76199000D02*
X175436559Y-76199000D01*
X175743841Y-75439000D02*
X175436559Y-75439000D01*
X134768180Y-75486800D02*
X134487020Y-75486800D01*
X134768180Y-76506800D02*
X134487020Y-76506800D01*
X136186500Y-66069036D02*
X136186500Y-65853364D01*
X135466500Y-66069036D02*
X135466500Y-65853364D01*
X177134800Y-64622641D02*
X177134800Y-64315359D01*
X176374800Y-64622641D02*
X176374800Y-64315359D01*
X177820000Y-94818200D02*
X177820000Y-92868200D01*
X187940000Y-94818200D02*
X187940000Y-96768200D01*
X177820000Y-94818200D02*
X177820000Y-98318200D01*
X187940000Y-94818200D02*
X187940000Y-92868200D01*
D16*
X122801400Y-74543960D02*
X121221500Y-74543960D01*
X129011700Y-61640760D02*
X131907300Y-61640760D01*
X122709900Y-62102960D02*
X122237500Y-66880760D01*
X122773400Y-68318360D02*
X122773400Y-74541360D01*
X119811800Y-60723760D02*
X120520500Y-60723760D01*
X120520500Y-60972660D02*
X120523000Y-69339460D01*
X124536200Y-62771060D02*
X124460000Y-62092860D01*
X131490700Y-68328560D02*
X131490700Y-74541360D01*
X120860800Y-60883760D02*
X120530600Y-60553560D01*
X125554700Y-67315060D02*
X125046700Y-67309960D01*
X134442200Y-60543460D02*
X133710700Y-60543460D01*
X129626400Y-62245260D02*
X129037100Y-67381160D01*
X133032500Y-70510360D02*
X132199400Y-70520560D01*
X119811800Y-60543460D02*
X120520500Y-60543460D01*
X120962400Y-60972660D02*
X120860800Y-60883760D01*
X134442200Y-60723760D02*
X133710700Y-60723760D01*
X122237500Y-66880760D02*
X122207000Y-67312560D01*
X122059700Y-70518060D02*
X121231700Y-70510360D01*
X125300700Y-74543960D02*
X124462500Y-74543960D01*
X132199400Y-68318360D02*
X122059700Y-68318360D01*
X129037100Y-67381160D02*
X128656100Y-67381160D01*
X122174000Y-61574660D02*
X125059400Y-61579760D01*
X127302300Y-74543960D02*
X126961900Y-74543960D01*
X131602500Y-65115460D02*
X129344400Y-65115460D01*
X128656100Y-67381160D02*
X129011700Y-61640760D01*
X120962400Y-60972660D02*
X133281400Y-60972660D01*
X131907300Y-61640760D02*
X132389900Y-67381160D01*
X124581900Y-63807360D02*
X122552500Y-63807360D01*
X132199400Y-70520560D02*
X132199400Y-68318360D01*
X133710700Y-60723760D02*
X133710700Y-60972660D01*
X131462800Y-63906360D02*
X129433300Y-63906360D01*
X133281400Y-60972660D02*
X133710700Y-60543460D01*
X129801600Y-74543960D02*
X128963400Y-74543960D01*
X124460000Y-62092860D02*
X122709900Y-62102960D01*
X121826000Y-67312560D02*
X122174000Y-61574660D01*
X133710700Y-60543460D02*
X133710700Y-60792360D01*
X125059400Y-61579760D02*
X125554700Y-67315060D01*
X124721600Y-65016360D02*
X122461000Y-65016360D01*
X131881900Y-67381160D02*
X131376400Y-62245260D01*
X120520500Y-60543460D02*
X120520500Y-60792360D01*
X122207000Y-67312560D02*
X121826000Y-67312560D01*
X120520500Y-60723760D02*
X120520500Y-60972660D01*
X131376400Y-62245260D02*
X129626400Y-62245260D01*
X131462800Y-74543960D02*
X133032500Y-74543960D01*
X125046700Y-67309960D02*
X124536200Y-62771060D01*
X134452400Y-60723760D02*
X134452400Y-60543460D01*
X122059700Y-68318360D02*
X122059700Y-70518060D01*
X133713200Y-69349660D02*
X133708100Y-60921860D01*
X132389900Y-67381160D02*
X131881900Y-67381160D01*
X119801600Y-60723760D02*
X119801600Y-60543460D01*
D13*
X100967000Y-67653780D02*
X100967000Y-67372620D01*
X99947000Y-67653780D02*
X99947000Y-67372620D01*
X162633800Y-68902200D02*
X162743800Y-68902200D01*
X162743800Y-68902200D02*
X162743800Y-69502200D01*
X140168800Y-66712200D02*
X140368800Y-66312200D01*
X137093800Y-68902200D02*
X137093800Y-69502200D01*
X139968800Y-66312200D02*
X140168800Y-66712200D01*
X137203800Y-68902200D02*
X137093800Y-68902200D01*
X140368800Y-66312200D02*
X139968800Y-66312200D01*
D16*
X103461800Y-67312560D02*
X103809800Y-61574660D01*
X104409200Y-68318360D02*
X104409200Y-74541360D01*
X114025700Y-67381160D02*
X113517700Y-67381160D01*
X113098600Y-63906360D02*
X111069100Y-63906360D01*
X110647500Y-61640760D02*
X113543100Y-61640760D01*
X114917200Y-60972660D02*
X115346500Y-60543460D01*
X103842800Y-67312560D02*
X103461800Y-67312560D01*
X115346500Y-60723760D02*
X115346500Y-60972660D01*
X113012200Y-62245260D02*
X111262200Y-62245260D01*
X102496600Y-60883760D02*
X102166400Y-60553560D01*
X106682500Y-67309960D02*
X106172000Y-62771060D01*
X113126500Y-68328560D02*
X113126500Y-74541360D01*
X115349000Y-69349660D02*
X115343900Y-60921860D01*
X103695500Y-68318360D02*
X103695500Y-70518060D01*
X113835200Y-68318360D02*
X103695500Y-68318360D01*
X101447600Y-60723760D02*
X102156300Y-60723760D01*
X116078000Y-60723760D02*
X115346500Y-60723760D01*
X113238300Y-65115460D02*
X110980200Y-65115460D01*
X111437400Y-74543960D02*
X110599200Y-74543960D01*
X115346500Y-60543460D02*
X115346500Y-60792360D01*
X102598200Y-60972660D02*
X102496600Y-60883760D01*
X107190500Y-67315060D02*
X106682500Y-67309960D01*
X104437200Y-74543960D02*
X102857300Y-74543960D01*
X103695500Y-70518060D02*
X102867500Y-70510360D01*
X106217700Y-63807360D02*
X104188300Y-63807360D01*
X101447600Y-60543460D02*
X102156300Y-60543460D01*
X102156300Y-60972660D02*
X102158800Y-69339460D01*
X110291900Y-67381160D02*
X110647500Y-61640760D01*
X113517700Y-67381160D02*
X113012200Y-62245260D01*
X103809800Y-61574660D02*
X106695200Y-61579760D01*
X113543100Y-61640760D02*
X114025700Y-67381160D01*
X106357400Y-65016360D02*
X104096800Y-65016360D01*
X113835200Y-70520560D02*
X113835200Y-68318360D01*
X116088200Y-60723760D02*
X116088200Y-60543460D01*
X108938100Y-74543960D02*
X108597700Y-74543960D01*
X101437400Y-60723760D02*
X101437400Y-60543460D01*
X102156300Y-60723760D02*
X102156300Y-60972660D01*
X106936500Y-74543960D02*
X106098300Y-74543960D01*
X110672900Y-67381160D02*
X110291900Y-67381160D01*
X102598200Y-60972660D02*
X114917200Y-60972660D01*
X103873300Y-66880760D02*
X103842800Y-67312560D01*
X114668300Y-70510360D02*
X113835200Y-70520560D01*
X106172000Y-62771060D02*
X106095800Y-62092860D01*
X106695200Y-61579760D02*
X107190500Y-67315060D01*
X113098600Y-74543960D02*
X114668300Y-74543960D01*
X116078000Y-60543460D02*
X115346500Y-60543460D01*
X104345700Y-62102960D02*
X103873300Y-66880760D01*
X102156300Y-60543460D02*
X102156300Y-60792360D01*
X111262200Y-62245260D02*
X110672900Y-67381160D01*
X106095800Y-62092860D02*
X104345700Y-62102960D01*
D13*
X116403980Y-76506800D02*
X116122820Y-76506800D01*
X116403980Y-75486800D02*
X116122820Y-75486800D01*
X183507411Y-80965659D02*
X182707411Y-80965659D01*
X183507411Y-84085659D02*
X182707411Y-84085659D01*
X183507411Y-84085659D02*
X185307411Y-84085659D01*
X183507411Y-80965659D02*
X184307411Y-80965659D01*
X181057000Y-66312200D02*
X181257000Y-66712200D01*
X181257000Y-66712200D02*
X181457000Y-66312200D01*
X187722000Y-68902200D02*
X187832000Y-68902200D01*
X178292000Y-68902200D02*
X178182000Y-68902200D01*
X178182000Y-68902200D02*
X178182000Y-69502200D01*
X187832000Y-68902200D02*
X187832000Y-69502200D01*
X181457000Y-66312200D02*
X181057000Y-66312200D01*
X135043500Y-66069036D02*
X135043500Y-65853364D01*
X134323500Y-66069036D02*
X134323500Y-65853364D01*
%LPC*%
D18*
X181201000Y-63652400D03*
X180241000Y-63652400D03*
D19*
X180975000Y-90294400D03*
X180975000Y-89334400D03*
X182245000Y-90294400D03*
X182245000Y-89334400D03*
D20*
X175884800Y-82875600D03*
X177784800Y-82875600D03*
X176834800Y-81000600D03*
D21*
X165235600Y-65848200D03*
X166785600Y-65848200D03*
D19*
X173884600Y-67158800D03*
X173884600Y-66198800D03*
D22*
X187876211Y-81253659D03*
X187876211Y-82273659D03*
D23*
X187215811Y-84126859D03*
X187215811Y-87426859D03*
D24*
X164487600Y-63834000D03*
X167787600Y-63834000D03*
D22*
X135826500Y-67508600D03*
X135826500Y-68528600D03*
D25*
X176100200Y-74574400D03*
X175080200Y-74574400D03*
D26*
X176293500Y-89775000D03*
X178493700Y-89775000D03*
X178493700Y-88025000D03*
X176293500Y-88025000D03*
D19*
X175002200Y-67158800D03*
X175002200Y-66198800D03*
D27*
X169964000Y-97559100D03*
D28*
X169964000Y-69359300D03*
D29*
X167364000Y-71859100D03*
X167364000Y-72659200D03*
X167364000Y-73459100D03*
X167364000Y-74259200D03*
X167364000Y-75059300D03*
X167364000Y-75859100D03*
X167364000Y-76659200D03*
X167364000Y-77459100D03*
X167364000Y-78259200D03*
X167364000Y-79059300D03*
X167364000Y-79859100D03*
X167364000Y-80659200D03*
X167364000Y-81459300D03*
X167364000Y-82259200D03*
X167364000Y-83059300D03*
X167364000Y-83859100D03*
X167364000Y-84659200D03*
X167364000Y-85459300D03*
X167364000Y-86259200D03*
X167364000Y-87059300D03*
X167364000Y-87859100D03*
X167364000Y-88659200D03*
X167364000Y-89459300D03*
X167364000Y-90259200D03*
X167364000Y-91059300D03*
X167364000Y-91859100D03*
X167364000Y-92659200D03*
X167364000Y-93459300D03*
X167364000Y-94259200D03*
X167364000Y-95059300D03*
X172563900Y-71859100D03*
X172563900Y-72659200D03*
X172563900Y-73459100D03*
X172563900Y-74259200D03*
X172563900Y-75059300D03*
X172563900Y-75859100D03*
X172563900Y-76659200D03*
X172563900Y-77459100D03*
X172563900Y-78259200D03*
X172563900Y-79059300D03*
X172563900Y-79859100D03*
X172563900Y-80659200D03*
X172563900Y-81459300D03*
X172563900Y-82259200D03*
X172563900Y-83059300D03*
X172563900Y-83859100D03*
X172563900Y-84659200D03*
X172563900Y-85459300D03*
X172563900Y-86259200D03*
X172563900Y-87059300D03*
X172563900Y-87859100D03*
X172563900Y-88659200D03*
X172563900Y-89459300D03*
X172563900Y-90259200D03*
X172563900Y-91059300D03*
X172563900Y-91859100D03*
X172563900Y-92659200D03*
X172563900Y-93459300D03*
X172563900Y-94259200D03*
X172564200Y-95059300D03*
D30*
X96285100Y-75798700D03*
X96285100Y-70200500D03*
D31*
X98281500Y-71501000D03*
X98281500Y-72501800D03*
X98281500Y-73502500D03*
X98281500Y-74500700D03*
D32*
X170481000Y-66788000D03*
X170481000Y-64182000D03*
D33*
X177784800Y-85572300D03*
X177784800Y-84552300D03*
D25*
X178589400Y-77063600D03*
X177569400Y-77063600D03*
D21*
X165235600Y-67448400D03*
X166785600Y-67448400D03*
D34*
X184785011Y-86310259D03*
X182179011Y-86310259D03*
D35*
X175472100Y-65119200D03*
X175472100Y-64469000D03*
X175472100Y-63818800D03*
X173414700Y-63818800D03*
X173414700Y-64469000D03*
X173414700Y-65119200D03*
D36*
X174443400Y-64469000D03*
D25*
X176100200Y-78308200D03*
X175080200Y-78308200D03*
D19*
X134683500Y-68498600D03*
X134683500Y-67538600D03*
D37*
X100457000Y-63309200D03*
X100457000Y-64859200D03*
D33*
X186580811Y-82273659D03*
X186580811Y-81253659D03*
D25*
X176100200Y-77063600D03*
X175080200Y-77063600D03*
D38*
X189273211Y-82919659D03*
X189273211Y-81369659D03*
D25*
X178589400Y-78308200D03*
X177569400Y-78308200D03*
D38*
X180535611Y-81878259D03*
X180535611Y-80328259D03*
D39*
X182247600Y-63652400D03*
X183207600Y-63652400D03*
D22*
X175884800Y-84552300D03*
X175884800Y-85572300D03*
D30*
X96285100Y-62301100D03*
X96285100Y-67899300D03*
D31*
X98281500Y-63601600D03*
X98281500Y-64602400D03*
X98281500Y-65603100D03*
X98281500Y-66601300D03*
D25*
X176100200Y-75819000D03*
X175080200Y-75819000D03*
D40*
X135402600Y-75996800D03*
X133852600Y-75996800D03*
D19*
X135826500Y-66441200D03*
X135826500Y-65481200D03*
D33*
X176754800Y-64979000D03*
X176754800Y-63959000D03*
D41*
X178435000Y-97318200D03*
X179705000Y-97318200D03*
X180975000Y-97318200D03*
X182245000Y-97318200D03*
X183515000Y-97318200D03*
X184785000Y-97318200D03*
X186055000Y-97318200D03*
X187325000Y-97318200D03*
X187325000Y-92318200D03*
X186055000Y-92318200D03*
X184785000Y-92318200D03*
X183515000Y-92318200D03*
X182245000Y-92318200D03*
X180975000Y-92318200D03*
X179705000Y-92318200D03*
X178435000Y-92318200D03*
D42*
X129626400Y-70942160D03*
X124627600Y-70942160D03*
D43*
X130632200Y-74843660D03*
X128132800Y-74843660D03*
X126131300Y-74843660D03*
X123632000Y-74843660D03*
D44*
X134627600Y-72242660D03*
X119626400Y-72242660D03*
D38*
X100457000Y-68288200D03*
X100457000Y-66738200D03*
D45*
X140168800Y-65512200D03*
X140668800Y-65512200D03*
X141168800Y-65512200D03*
X141668800Y-65512200D03*
X142168800Y-65512200D03*
X142668800Y-65512200D03*
X143168800Y-65512200D03*
X143668800Y-65512200D03*
X144168800Y-65512200D03*
X144668800Y-65512200D03*
X145168800Y-65512200D03*
X145668800Y-65512200D03*
X146168800Y-65512200D03*
X146668800Y-65512200D03*
X147168800Y-65512200D03*
X147668800Y-65512200D03*
X148168800Y-65512200D03*
X148668800Y-65512200D03*
X149168800Y-65512200D03*
X149668800Y-65512200D03*
X150168800Y-65512200D03*
X150668800Y-65512200D03*
X151168800Y-65512200D03*
X151668800Y-65512200D03*
X152168800Y-65512200D03*
X152668800Y-65512200D03*
X153168800Y-65512200D03*
X153668800Y-65512200D03*
X154168800Y-65512200D03*
X154668800Y-65512200D03*
X155168800Y-65512200D03*
X155668800Y-65512200D03*
X156168800Y-65512200D03*
X156668800Y-65512200D03*
X157168800Y-65512200D03*
X157668800Y-65512200D03*
X158168800Y-65512200D03*
X158668800Y-65512200D03*
X159168800Y-65512200D03*
X159668800Y-65512200D03*
D46*
X138498800Y-67212200D03*
X161338800Y-67212200D03*
D42*
X106263400Y-70942160D03*
X111262200Y-70942160D03*
D43*
X112268000Y-74843660D03*
X109768600Y-74843660D03*
X107767100Y-74843660D03*
X105267800Y-74843660D03*
D44*
X101262200Y-72242660D03*
X116263400Y-72242660D03*
D40*
X117038400Y-75996800D03*
X115488400Y-75996800D03*
D47*
X184644911Y-83475659D03*
X184644911Y-82525659D03*
X184644911Y-81575659D03*
X182369911Y-81575659D03*
X182369911Y-82525659D03*
X182369911Y-83475659D03*
D45*
X181257000Y-65512200D03*
X181757000Y-65512200D03*
X182257000Y-65512200D03*
X182757000Y-65512200D03*
X183257000Y-65512200D03*
X183757000Y-65512200D03*
X184257000Y-65512200D03*
X184757000Y-65512200D03*
D46*
X179587000Y-67212200D03*
X186427000Y-67212200D03*
D19*
X134683500Y-66441200D03*
X134683500Y-65481200D03*
D48*
X98629475Y-89978250D03*
X98629475Y-91680050D03*
X98629475Y-102703650D03*
X98629475Y-104405450D03*
D49*
X95459500Y-83820000D03*
X95459500Y-80820300D03*
M02*
